SplineFontDB: 3.2
FontName: SoftCode-Bold
FullName: SoftCode Bold
FamilyName: SoftCode
Weight: Bold
Copyright: (c) 2013-2020 Fabio Y. Goto
UComments: "2013-6-22: Created."
Version: 0.0.1
ItalicAngle: 0
UnderlinePosition: -122
UnderlineWidth: 58
Ascent: 812
Descent: 188
InvalidEm: 0
LayerCount: 2
Layer: 0 0 "Back" 1
Layer: 1 0 "Fore" 0
XUID: [1021 435 22966 28455]
FSType: 0
OS2Version: 0
OS2_WeightWidthSlopeOnly: 0
OS2_UseTypoMetrics: 1
CreationTime: 1371875741
ModificationTime: 1583858680
PfmFamily: 17
TTFWeight: 400
TTFWidth: 5
LineGap: 90
VLineGap: 90
OS2TypoAscent: 0
OS2TypoAOffset: 1
OS2TypoDescent: 0
OS2TypoDOffset: 1
OS2TypoLinegap: 90
OS2WinAscent: 0
OS2WinAOffset: 1
OS2WinDescent: 0
OS2WinDOffset: 1
HheadAscent: 0
HheadAOffset: 1
HheadDescent: 0
HheadDOffset: 1
OS2Vendor: 'PfEd'
MarkAttachClasses: 1
DEI: 91125
LangName: 1033
GaspTable: 11 7 3 8 2 9 3 10 2 11 3 12 1 13 3 14 2 15 3 16 2 65535 3 0
Encoding: ISO8859-1
Compacted: 1
UnicodeInterp: none
NameList: Adobe Glyph List
DisplaySize: -24
AntiAlias: 1
FitToEm: 1
WinInfo: 0 30 20
BeginPrivate: 0
EndPrivate
TeXData: 1 0 0 393216 196608 131072 458752 1048576 131072 783286 444596 497025 792723 393216 433062 380633 303038 157286 324010 404750 52429 2506097 1059062 262144
BeginChars: 276 208

StartChar: A
Encoding: 65 65 0
Width: 375
VWidth: 0
Flags: W
HStem: -16 21G<-16 78 234 328> 109 94<99 214> 621 20G<111 201>
VStem: -16 94<0 97.375> 234 94<0 97.375>
LayerCount: 2
Fore
SplineSet
125 641 m 1
 188 641 l 1
 201 632 l 1
 234 566 328 254 328 0 c 1
 312 -16 l 1
 250 -16 l 1
 234 0 l 1
 234 31 232 69 228 109 c 1
 85 109 l 1
 80 67 78 31 78 0 c 1
 62 -16 l 1
 0 -16 l 1
 -16 0 l 1
 -16 254 78 566 111 632 c 1
 125 641 l 1
156 478 m 1
 133 392 113 292 99 203 c 1
 214 203 l 1
 200 294 179 393 156 478 c 1
EndSplineSet
Validated: 1
EndChar

StartChar: B
Encoding: 66 66 1
Width: 375
VWidth: 0
Flags: W
HStem: -16 94<78 218.425> 297 94<78 219.963> 547 94<78 218.425>
VStem: -16 94<78 297 391 547> 242 94<100.794 275.201 412.917 524.905>
LayerCount: 2
Fore
SplineSet
0 641 m 1
 125 641 l 0
 246 641 336 589 336 469 c 0
 336 414 316 372 285 345 c 1
 319 312 336 262 336 188 c 0
 336 22 246 -16 125 -16 c 0
 0 -16 l 1
 -16 0 l 1
 -16 625 l 1
 0 641 l 1
78 547 m 1
 78 391 l 1
 125 391 l 0
 188 391 242 398 242 469 c 0
 242 540 188 547 125 547 c 0
 78 547 l 1
78 297 m 1
 78 78 l 1
 125 78 l 0
 131 78 136 78 141 78 c 0
 202 78 242 83 242 188 c 0
 242 293 202 297 141 297 c 0
 136 297 131 297 125 297 c 0
 78 297 l 1
EndSplineSet
Validated: 1
EndChar

StartChar: C
Encoding: 67 67 2
Width: 375
VWidth: 0
Flags: W
HStem: -23 101<104.846 207.411> 547 101<104.846 207.411>
VStem: -23 101<109.242 515.291> 224 93<93.3166 112 513 531.683>
LayerCount: 2
Fore
SplineSet
156 648 m 0
 248 648 296 602 317 531 c 1
 311 513 l 1
 247 477 l 1
 224 486 l 1
 214 529 197 547 156 547 c 0
 81 547 78 475 78 312 c 0
 78 149 81 78 156 78 c 0
 197 78 214 96 224 139 c 1
 247 148 l 1
 311 112 l 1
 317 94 l 1
 296 23 248 -23 156 -23 c 0
 -17 -23 -23 128 -23 312 c 0
 -23 496 -17 648 156 648 c 0
EndSplineSet
Validated: 1
EndChar

StartChar: I
Encoding: 73 73 3
Width: 375
VWidth: 0
Flags: W
HStem: -16 94<31 109 203 281> 547 94<31 109 203 281>
VStem: 109 94<78 547>
LayerCount: 2
Fore
SplineSet
31 641 m 1
 281 641 l 1
 297 625 l 1
 297 562 l 1
 281 547 l 1
 203 547 l 1
 203 78 l 1
 281 78 l 1
 297 62 l 1
 297 0 l 1
 281 -16 l 1
 31 -16 l 1
 16 0 l 1
 16 62 l 1
 31 78 l 1
 109 78 l 1
 109 547 l 1
 31 547 l 1
 16 562 l 1
 16 625 l 1
 31 641 l 1
EndSplineSet
Validated: 1
EndChar

StartChar: D
Encoding: 68 68 4
Width: 375
VWidth: 0
Flags: W
HStem: -16 21G<-16 121> 621 20G<-16 112>
VStem: -16 94<79 546> 234 102<188.341 438.36>
LayerCount: 2
Fore
SplineSet
0 641 m 1
 62 641 l 0
 162 641 248 585 299 491 c 1
 299 490 l 1
 322 443 336 383 336 312 c 0
 336 85 180 -16 62 -16 c 0
 0 -16 l 1
 -16 0 l 1
 -16 625 l 1
 0 641 l 1
78 546 m 1
 78 79 l 1
 181 88 234 181 234 312 c 0
 234 444 180 537 78 546 c 1
EndSplineSet
Validated: 1
EndChar

StartChar: E
Encoding: 69 69 5
Width: 375
VWidth: 0
Flags: W
HStem: -16 94<78 312> 297 94<78 250> 547 94<78 312>
VStem: -16 94<78 297 391 547>
LayerCount: 2
Fore
SplineSet
0 641 m 1
 312 641 l 1
 328 625 l 1
 328 562 l 1
 312 547 l 1
 78 547 l 1
 78 391 l 1
 250 391 l 1
 266 375 l 1
 266 312 l 1
 250 297 l 1
 78 297 l 1
 78 78 l 1
 312 78 l 1
 328 62 l 1
 328 0 l 1
 312 -16 l 1
 0 -16 l 1
 -16 0 l 1
 -16 625 l 1
 0 641 l 1
EndSplineSet
Validated: 1
EndChar

StartChar: F
Encoding: 70 70 6
Width: 375
VWidth: 0
Flags: W
HStem: -16 21G<-16 78> 297 94<78 250> 547 94<78 312>
VStem: -16 94<0 297 391 547>
LayerCount: 2
Fore
SplineSet
0 641 m 1
 312 641 l 1
 328 625 l 1
 328 562 l 1
 312 547 l 1
 78 547 l 1
 78 391 l 1
 250 391 l 1
 266 375 l 1
 266 312 l 1
 250 297 l 1
 78 297 l 1
 78 0 l 1
 62 -16 l 1
 0 -16 l 1
 -16 0 l 1
 -16 625 l 1
 0 641 l 1
EndSplineSet
Validated: 1
EndChar

StartChar: G
Encoding: 71 71 7
Width: 375
VWidth: 0
Flags: W
HStem: -23 101<104.846 208.248> -16 21G<241 328> 297 94<125 234> 547 101<105.017 205.229>
VStem: -23 101<109.242 515.291> 224 104<92.5934 293.913> 234 94<105.262 297>
LayerCount: 2
Fore
SplineSet
241 -7 m 1x7a
 224 -14 206 -19 188 -21 c 0
 177 -22 168 -23 156 -23 c 0
 -17 -23 -23 128 -23 312 c 0
 -23 496 -17 648 156 648 c 0
 164 648 l 1
 251 645 296 600 317 531 c 1
 311 513 l 1
 247 477 l 1
 224 486 l 1
 214 529 197 547 156 547 c 0
 81 547 78 475 78 312 c 0
 78 149 81 78 156 78 c 0
 189 78 204 89 215 110 c 1
 219 118 222 127 224 138 c 1
 224 139 l 1xbc
 234 174 234 231 234 297 c 1
 125 297 l 1
 109 312 l 1
 109 375 l 1
 125 391 l 1
 312 391 l 1
 328 375 l 1
 328 0 l 1
 312 -16 l 1
 250 -16 l 1
 241 -7 l 1x7a
EndSplineSet
Validated: 1
EndChar

StartChar: H
Encoding: 72 72 8
Width: 375
VWidth: 0
Flags: W
HStem: -16 21G<-16 78 234 328> 297 94<78 234> 621 20G<-16 78 234 328>
VStem: -16 94<0 297 391 625> 234 94<0 297 391 625>
LayerCount: 2
Fore
SplineSet
0 641 m 1
 62 641 l 1
 78 625 l 1
 78 391 l 1
 234 391 l 1
 234 625 l 1
 250 641 l 1
 312 641 l 1
 328 625 l 1
 328 0 l 1
 312 -16 l 1
 250 -16 l 1
 234 0 l 1
 234 297 l 1
 78 297 l 1
 78 0 l 1
 62 -16 l 1
 0 -16 l 1
 -16 0 l 1
 -16 625 l 1
 0 641 l 1
EndSplineSet
Validated: 1
EndChar

StartChar: e
Encoding: 101 101 9
Width: 375
VWidth: 0
Flags: W
HStem: -23 101<98.0511 214.846> 172 94<79 233> 359 102<98.0511 213.982>
VStem: -23 102<97.1765 172 266 336.501>
LayerCount: 2
Fore
SplineSet
156 461 m 0
 294 461 336 346 336 219 c 0
 336 208 336 197 335 186 c 1
 319 172 l 1
 79 172 l 1
 83 113 94 78 156 78 c 0
 194 78 212 91 222 111 c 1
 239 119 l 1
 304 103 l 1
 314 82 l 1
 289 20 238 -23 156 -23 c 0
 18 -23 -23 92 -23 219 c 0
 -23 346 18 461 156 461 c 0
156 359 m 0
 94 359 83 324 79 266 c 1
 233 266 l 1
 229 325 218 359 156 359 c 0
EndSplineSet
Validated: 1
EndChar

StartChar: J
Encoding: 74 74 10
Width: 375
VWidth: 0
Flags: W
HStem: -23 101<105.744 207.712> 621 20G<234 328>
VStem: -14 97<102.295 152.917> 234 94<107.903 625>
LayerCount: 2
Fore
SplineSet
250 641 m 1
 312 641 l 1
 328 625 l 1
 328 312 l 0
 328 302 l 0
 328 138 326 -23 156 -23 c 0
 52 -23 5 41 -14 143 c 1
 -2 160 l 1
 63 178 l 1
 83 165 l 1
 92 103 109 78 156 78 c 0
 232 78 234 134 234 312 c 0
 234 625 l 1
 250 641 l 1
EndSplineSet
Validated: 1
EndChar

StartChar: K
Encoding: 75 75 11
Width: 375
VWidth: 0
Flags: W
HStem: -16 21G<-16 78 234 328> 621 20G<-16 78 234 328>
VStem: -16 94<0 261.047 354 625> 234 94<0 222.327 524.355 625>
LayerCount: 2
Fore
SplineSet
0 641 m 1
 62 641 l 1
 78 625 l 1
 78 354 l 1
 148 400 234 532 234 594 c 0
 234 625 l 1
 250 641 l 1
 312 641 l 1
 328 625 l 1
 328 594 l 0
 328 531 285 455 238 392 c 1
 303 308 328 144 328 31 c 0
 328 0 l 1
 312 -16 l 1
 250 -16 l 1
 234 0 l 1
 234 31 l 0
 234 111 222 248 173 318 c 1
 139 285 105 260 78 252 c 1
 78 0 l 1
 62 -16 l 1
 0 -16 l 1
 -16 0 l 1
 -16 625 l 1
 0 641 l 1
EndSplineSet
Validated: 1
EndChar

StartChar: L
Encoding: 76 76 12
Width: 375
VWidth: 0
Flags: W
HStem: -16 94<78 312> 621 20G<-16 78>
VStem: -16 94<78 625>
LayerCount: 2
Fore
SplineSet
-16 0 m 1
 -16 625 l 1
 0 641 l 1
 62 641 l 1
 78 625 l 1
 78 78 l 1
 312 78 l 1
 328 62 l 1
 328 0 l 1
 312 -16 l 1
 0 -16 l 1
 -16 0 l 1
EndSplineSet
Validated: 1
EndChar

StartChar: M
Encoding: 77 77 13
Width: 375
VWidth: 0
Flags: W
HStem: -16 21G<-16 78 234 328> 621 20G<-16 77 235 328>
VStem: -16 94<0 402> 234 94<0 402>
LayerCount: 2
Fore
SplineSet
0 641 m 1
 62 641 l 1
 77 632 l 1
 156 459 l 1
 235 632 l 1
 250 641 l 1
 312 641 l 1
 328 625 l 1
 328 0 l 1
 312 -16 l 1
 250 -16 l 1
 234 0 l 1
 234 402 l 1
 170 274 l 1
 143 274 l 1
 78 402 l 1
 78 0 l 1
 62 -16 l 1
 0 -16 l 1
 -16 0 l 1
 -16 625 l 1
 0 641 l 1
EndSplineSet
Validated: 1
EndChar

StartChar: N
Encoding: 78 78 14
Width: 375
VWidth: 0
Flags: W
HStem: -16 21G<-16 78 234 328> 621 20G<-16 76 234 328>
VStem: -16 94<0 443> 234 94<0 184 369 625>
LayerCount: 2
Fore
SplineSet
0 641 m 1
 62 641 l 1
 76 633 l 1
 234 369 l 1
 234 625 l 1
 250 641 l 1
 312 641 l 1
 328 625 l 1
 328 0 l 1
 312 -16 l 1
 250 -16 l 1
 234 0 l 1
 234 184 l 1
 78 443 l 1
 78 0 l 1
 62 -16 l 1
 0 -16 l 1
 -16 0 l 1
 -16 625 l 1
 0 641 l 1
EndSplineSet
Validated: 1
EndChar

StartChar: O
Encoding: 79 79 15
Width: 375
VWidth: 0
Flags: W
HStem: -23 101<104.846 207.17> 547 101<104.846 207.17>
VStem: -23 101<109.242 515.291> 234 102<109.242 515.291>
LayerCount: 2
Fore
SplineSet
156 648 m 0
 329 648 336 496 336 312 c 0
 336 128 329 -23 156 -23 c 0
 -17 -23 -23 128 -23 312 c 0
 -23 496 -17 648 156 648 c 0
156 547 m 0
 81 547 78 475 78 312 c 0
 78 149 81 78 156 78 c 0
 231 78 234 149 234 312 c 0
 234 475 231 547 156 547 c 0
EndSplineSet
Validated: 1
EndChar

StartChar: P
Encoding: 80 80 16
Width: 375
VWidth: 0
Flags: W
HStem: -16 21G<-16 78> 295 96<78 218.393> 547 94<78 218.138>
VStem: -16 94<0 296 391 547> 242 94<414.698 522.587>
LayerCount: 2
Fore
SplineSet
125 641 m 2
 195 641 336 624 336 469 c 0
 336 406 315 295 107 295 c 0
 97 295 87 295 78 296 c 1
 78 0 l 1
 62 -16 l 1
 0 -16 l 1
 -16 0 l 1
 -16 625 l 1
 0 641 l 1
 125 641 l 2
98 547 m 2
 78 547 l 1
 78 391 l 1
 101 391 l 0
 185 391 242 397 242 469 c 0
 242 542 183 547 98 547 c 2
EndSplineSet
Validated: 1
EndChar

StartChar: Q
Encoding: 81 81 17
Width: 375
VWidth: 0
Flags: W
HStem: -141 94<253.448 312> 547 101<104.846 207.17>
VStem: -23 101<108.529 515.291> 109 94<102.114 250> 234 102<107.063 515.291>
LayerCount: 2
Fore
SplineSet
156 648 m 0
 329 648 336 496 336 312 c 0
 336 163 333 37 238 -8 c 1
 254 -32 276 -47 312 -47 c 1
 328 -62 l 1
 328 -125 l 1
 312 -141 l 1
 250 -141 183 -124 145 -23 c 1
 -17 -15 -23 133 -23 312 c 0
 -23 496 -17 648 156 648 c 0
156 547 m 0
 81 547 78 475 78 312 c 0
 78 183 82 109 118 87 c 1
 112 133 109 186 109 250 c 1
 125 266 l 1
 188 266 l 1
 203 250 l 1
 203 197 203 145 208 100 c 1
 232 131 234 205 234 312 c 0
 234 475 231 547 156 547 c 0
EndSplineSet
Validated: 1
EndChar

StartChar: R
Encoding: 82 82 18
Width: 375
VWidth: 0
Flags: W
HStem: -16 21G<-16 78 233 327> 297 94<78 152> 547 94<78 218.138>
VStem: -16 94<0 297 391 547> 242 94<414.315 522.587>
LayerCount: 2
Fore
SplineSet
0 641 m 1
 125 641 l 0
 195 641 336 624 336 469 c 0
 336 425 335 346 245 312 c 1
 327 4 l 1
 312 -16 l 1
 248 -16 l 1
 233 -4 l 1
 152 296 l 1
 146 296 143 295 137 295 c 0
 124 295 109 296 94 297 c 1
 78 297 l 1
 78 0 l 1
 62 -16 l 1
 0 -16 l 1
 -16 0 l 1
 -16 625 l 1
 0 641 l 1
98 547 m 2
 78 547 l 1
 78 391 l 1
 101 391 l 0
 185 391 242 397 242 469 c 0
 242 542 183 547 98 547 c 2
EndSplineSet
Validated: 1
EndChar

StartChar: S
Encoding: 83 83 19
Width: 375
VWidth: 0
Flags: W
HStem: -23 101<102.607 207.902> 297 94<94.0881 206.856> 547 101<95.5376 218.297>
VStem: -23 101<103.907 132.412 406.871 529.462> 234 102<103.911 268.956>
LayerCount: 2
Fore
SplineSet
156 648 m 0
 229 648 291 610 319 548 c 1
 309 526 l 1
 242 509 l 1
 225 516 l 1
 214 537 193 547 156 547 c 0
 101 547 78 524 78 469 c 0
 78 414 101 391 156 391 c 0
 275 391 336 303 336 188 c 0
 336 56 260 -23 156 -23 c 0
 70 -23 2 32 -18 125 c 1
 -6 143 l 1
 62 161 l 1
 81 149 l 1
 90 101 114 78 156 78 c 0
 207 78 234 114 234 188 c 0
 234 235 219 297 156 297 c 0
 54 297 -23 366 -23 469 c 0
 -23 572 53 648 156 648 c 0
EndSplineSet
Validated: 1
EndChar

StartChar: T
Encoding: 84 84 20
Width: 375
VWidth: 0
Flags: W
HStem: -16 21G<109 203> 547 94<0 109 203 312>
VStem: 109 94<0 547>
LayerCount: 2
Fore
SplineSet
0 641 m 1
 312 641 l 1
 328 625 l 1
 328 562 l 1
 312 547 l 1
 203 547 l 1
 203 0 l 1
 188 -16 l 1
 125 -16 l 1
 109 0 l 1
 109 547 l 1
 0 547 l 1
 -16 562 l 1
 -16 625 l 1
 0 641 l 1
EndSplineSet
Validated: 1
EndChar

StartChar: U
Encoding: 85 85 21
Width: 375
VWidth: 0
Flags: W
HStem: -23 101<104.992 207.008> 621 20G<-16 78 234 328>
VStem: -16 94<110.524 625> 234 94<110.524 625>
LayerCount: 2
Fore
SplineSet
-16 312 m 2
 -16 625 l 1
 0 641 l 1
 62 641 l 1
 78 625 l 1
 78 312 l 0
 78 288 77 262 77 237 c 0
 77 144 88 78 156 78 c 0
 224 78 235 144 235 237 c 0
 235 262 234 288 234 312 c 0
 234 625 l 1
 250 641 l 1
 312 641 l 1
 328 625 l 1
 328 312 l 0
 328 307 l 0
 328 127 327 -23 156 -23 c 0
 -15 -23 -16 127 -16 307 c 0
 -16 312 l 2
EndSplineSet
Validated: 1
EndChar

StartChar: V
Encoding: 86 86 22
Width: 375
VWidth: 0
Flags: W
HStem: -16 21G<113 199> 621 20G<-16 78 234 328>
VStem: -16 94<311.108 625> 234 94<311.445 625>
LayerCount: 2
Fore
SplineSet
0 641 m 1
 62 641 l 1
 78 625 l 1
 78 562 l 0
 78 353 116 194 156 111 c 1
 196 195 234 353 234 562 c 0
 234 625 l 1
 250 641 l 1
 312 641 l 1
 328 625 l 1
 328 562 l 0
 328 326 266 74 199 -10 c 1
 188 -16 l 1
 125 -16 l 1
 113 -10 l 1
 46 74 -16 326 -16 562 c 0
 -16 625 l 1
 0 641 l 1
EndSplineSet
Validated: 1
EndChar

StartChar: W
Encoding: 87 87 23
Width: 375
VWidth: 0
Flags: W
HStem: -16 21G<47 141 172 266> 621 20G<-16 78 234 328>
VStem: -16 94<205.634 625> 47 94<0 73.3234> 109 94<203.207 391> 172 94<0 73.3234> 234 94<205.634 625>
LayerCount: 2
Fore
SplineSet
0 641 m 1xe0
 62 641 l 1
 78 625 l 1
 78 438 l 0
 78 327 86 252 95 201 c 1
 104 248 109 300 109 359 c 0
 109 391 l 1
 125 406 l 1
 188 406 l 1
 203 391 l 1
 203 359 l 0
 203 300 209 246 218 201 c 1
 228 254 234 327 234 438 c 0
 234 625 l 1
 250 641 l 1
 312 641 l 1
 328 625 l 1
 328 438 l 0xea
 328 156 266 54 266 0 c 1
 250 -16 l 1
 188 -16 l 1
 172 0 l 1
 172 29 165 51 156 77 c 1
 146 49 141 29 141 0 c 1
 125 -16 l 1
 62 -16 l 1
 47 0 l 1xd4
 47 54 -16 156 -16 438 c 0
 -16 625 l 1
 0 641 l 1xe0
EndSplineSet
Validated: 1
EndChar

StartChar: X
Encoding: 88 88 24
Width: 375
VWidth: 0
Flags: W
HStem: -16 21G<-16 78 234 328> 621 20G<-16 78 234 328>
VStem: -16 94<0 131.625 496.398 625> 234 94<0 129.318 496.026 625>
LayerCount: 2
Fore
SplineSet
0 641 m 1
 62 641 l 1
 78 625 l 1
 78 562 l 0
 78 528 111 466 156 396 c 1
 202 468 234 527 234 562 c 0
 234 625 l 1
 250 641 l 1
 312 641 l 1
 328 625 l 1
 328 562 l 0
 328 495 269 401 210 312 c 1
 270 221 328 129 328 62 c 0
 328 0 l 1
 312 -16 l 1
 250 -16 l 1
 234 0 l 1
 234 62 l 0
 234 96 201 159 156 229 c 1
 110 157 78 97 78 62 c 0
 78 0 l 1
 62 -16 l 1
 0 -16 l 1
 -16 0 l 1
 -16 62 l 0
 -16 129 44 223 103 312 c 1
 43 403 -16 495 -16 562 c 0
 -16 625 l 1
 0 641 l 1
EndSplineSet
Validated: 1
EndChar

StartChar: Y
Encoding: 89 89 25
Width: 375
VWidth: 0
Flags: W
HStem: -16 21G<109 203> 621 20G<-16 78 234 328>
VStem: -16 94<474.859 625> 109 94<0 285.734> 234 94<474.789 625>
CounterMasks: 1 38
LayerCount: 2
Fore
SplineSet
0 641 m 1
 62 641 l 1
 78 625 l 1
 78 562 l 0
 78 505 118 429 156 356 c 1
 194 430 234 504 234 562 c 0
 234 625 l 1
 250 641 l 1
 312 641 l 1
 328 625 l 1
 328 562 l 0
 328 462 235 309 203 246 c 1
 203 0 l 1
 188 -16 l 1
 125 -16 l 1
 109 0 l 1
 109 246 l 1
 76 310 -16 462 -16 562 c 0
 -16 625 l 1
 0 641 l 1
EndSplineSet
Validated: 1
EndChar

StartChar: Z
Encoding: 90 90 26
Width: 375
VWidth: 0
Flags: W
HStem: -16 94<96 312> 547 94<0 217>
LayerCount: 2
Fore
SplineSet
0 641 m 1
 312 641 l 1
 328 625 l 1
 328 562 l 1
 326 556 l 1
 96 78 l 1
 312 78 l 1
 328 62 l 1
 328 0 l 1
 312 -16 l 1
 0 -16 l 1
 -16 0 l 1
 -16 62 l 1
 -14 69 l 1
 217 547 l 1
 0 547 l 1
 -16 562 l 1
 -16 625 l 1
 0 641 l 1
EndSplineSet
Validated: 1
EndChar

StartChar: a
Encoding: 97 97 27
Width: 375
VWidth: 0
Flags: W
HStem: -23 101<82.8432 233.497> -16 21G<239 328> 180 93<87.0779 234> 359 102<85.2621 218.129>
VStem: -23 101<84.6795 170.355> 234 94<85.1755 182 274.393 339.733>
LayerCount: 2
Fore
SplineSet
239 -5 m 1x7c
 209 -18 172 -23 148 -23 c 0xbc
 85 -23 -23 -6 -23 125 c 0
 -23 256 92 273 148 273 c 0
 204 273 229 275 234 277 c 1
 234 278 234 279 234 281 c 0
 234 336 211 359 156 359 c 0
 130 359 112 354 100 344 c 1
 82 342 l 1
 26 374 l 1
 21 397 l 1
 51 437 99 461 156 461 c 0
 259 461 328 383 328 281 c 0
 328 0 l 1
 312 -16 l 1
 250 -16 l 1
 239 -5 l 1x7c
234 182 m 1
 221 180 213 179 201 179 c 0
 182 179 163 180 148 180 c 0
 85 180 78 157 78 125 c 0
 78 89 88 78 148 78 c 0
 187 78 234 84 234 102 c 0
 234 182 l 1
EndSplineSet
Validated: 1
EndChar

StartChar: b
Encoding: 98 98 28
Width: 375
VWidth: 0
Flags: W
HStem: -23 101<99.7401 213.678> -16 21G<-16 75> 359 102<99.8658 213.678> 621 20G<-16 78>
VStem: -16 94<100.556 336.92 439 625> 234 102<100.344 337.303>
LayerCount: 2
Fore
SplineSet
0 641 m 1x7c
 62 641 l 1
 78 625 l 1
 78 439 l 1
 102 454 127 461 156 461 c 0
 294 461 336 346 336 219 c 0
 336 92 294 -23 156 -23 c 0xbc
 127 -23 101 -18 75 -3 c 1
 62 -16 l 1
 0 -16 l 1
 -16 0 l 1
 -16 625 l 1
 0 641 l 1x7c
156 359 m 0
 104 359 78 342 78 219 c 0
 78 96 104 78 156 78 c 0
 234 78 234 137 234 219 c 0
 234 301 234 359 156 359 c 0
EndSplineSet
Validated: 1
EndChar

StartChar: c
Encoding: 99 99 29
Width: 375
VWidth: 0
Flags: W
HStem: -23 101<98.3553 212.893> 359 102<98.3553 213.323>
VStem: -23 101<100.344 337.303>
LayerCount: 2
Fore
SplineSet
156 461 m 0
 251 461 302 404 323 327 c 1
 312 309 l 1
 248 291 l 1
 229 303 l 1
 221 338 205 359 156 359 c 0
 78 359 78 301 78 219 c 0
 78 137 78 78 156 78 c 0
 205 78 221 100 229 135 c 1
 248 146 l 1
 312 129 l 1
 323 110 l 1
 302 33 251 -23 156 -23 c 0
 18 -23 -23 92 -23 219 c 0
 -23 346 18 461 156 461 c 0
EndSplineSet
Validated: 1
EndChar

StartChar: d
Encoding: 100 100 30
Width: 375
VWidth: 0
Flags: W
HStem: -23 101<98.3553 211.917> -16 21G<237 328> 359 102<98.3553 212.354> 621 20G<234 328>
VStem: -23 101<100.344 337.303> 234 94<100.556 336.92 439 625>
LayerCount: 2
Fore
SplineSet
328 625 m 1xbc
 328 0 l 1
 312 -16 l 1
 250 -16 l 1x7c
 237 -3 l 1
 209 -19 186 -23 156 -23 c 0
 18 -23 -23 92 -23 219 c 0
 -23 346 18 461 156 461 c 0
 185 461 211 453 234 439 c 1
 234 625 l 1
 250 641 l 1
 312 641 l 1
 328 625 l 1xbc
156 359 m 0
 78 359 78 301 78 219 c 0
 78 137 78 78 156 78 c 0xbc
 208 78 234 96 234 219 c 0
 234 342 208 359 156 359 c 0
EndSplineSet
Validated: 1
EndChar

StartChar: f
Encoding: 102 102 31
Width: 375
VWidth: 0
Flags: W
HStem: -16 21G<47 141> 234 94<0 47 141 250> 547 101<160.237 278.579>
VStem: 47 94<0 234 328 526.078>
LayerCount: 2
Fore
SplineSet
219 648 m 0
 282 648 338 618 370 561 c 1
 364 539 l 1
 308 507 l 1
 286 514 l 1
 276 534 260 547 219 547 c 0
 166 547 141 528 141 438 c 0
 141 328 l 1
 250 328 l 1
 266 312 l 1
 266 250 l 1
 250 234 l 1
 141 234 l 1
 141 0 l 1
 125 -16 l 1
 62 -16 l 1
 47 0 l 1
 47 234 l 1
 0 234 l 1
 -16 250 l 1
 -16 312 l 1
 0 328 l 1
 47 328 l 1
 47 438 l 0
 47 569 115 648 219 648 c 0
EndSplineSet
Validated: 1
EndChar

StartChar: g
Encoding: 103 103 32
Width: 375
VWidth: 0
Flags: W
HStem: -211 102<98.3254 213.585> -23 101<100.056 213.523> 359 102<100.056 216.221> 433 20G<236 328>
VStem: -23 101<99.4772 338.17> 234 94<-86.9688 -2 97.4282 342.285>
LayerCount: 2
Fore
SplineSet
156 461 m 0xec
 181 461 207 457 236 439 c 1
 250 453 l 1
 312 453 l 1xdc
 328 438 l 1
 328 0 l 0
 328 -128 292 -211 156 -211 c 0
 52 -211 3 -161 -11 -76 c 1
 1 -59 l 1
 63 -41 l 1
 83 -52 l 1
 93 -96 113 -109 156 -109 c 0
 209 -109 233 -88 234 -2 c 1
 210 -19 186 -23 156 -23 c 0
 54 -23 -23 26 -23 219 c 0
 -23 412 54 461 156 461 c 0xec
156 359 m 0xec
 78 359 78 301 78 219 c 0
 78 137 78 78 156 78 c 0
 221 78 234 119 234 188 c 0
 234 250 l 0
 234 327 222 359 156 359 c 0xec
EndSplineSet
Validated: 1
EndChar

StartChar: u
Encoding: 117 117 33
Width: 375
VWidth: 0
Flags: W
HStem: -23 101<110.222 201.637> -16 21G<234 328> 433 20G<-16 78 234 328>
VStem: -16 94<113.625 438> 234 94<115.97 438>
LayerCount: 2
Fore
SplineSet
156 -23 m 0xb8
 69 -23 -16 26 -16 219 c 0
 -16 438 l 1
 0 453 l 1
 62 453 l 1
 78 438 l 1
 78 219 l 0
 78 126 108 78 156 78 c 0xb8
 217 78 234 159 234 219 c 0
 234 438 l 1
 250 453 l 1
 312 453 l 1
 328 438 l 1
 328 0 l 1
 312 -16 l 1
 250 -16 l 1x78
 234 0 l 1
 234 0 166 -23 156 -23 c 0xb8
EndSplineSet
Validated: 1
EndChar

StartChar: v
Encoding: 118 118 34
Width: 375
VWidth: 0
Flags: W
HStem: -16 21G<109 203> 433 20G<-16 78 234 328>
VStem: -16 94<287.318 438> 234 94<287.219 438>
LayerCount: 2
Fore
SplineSet
0 453 m 1
 62 453 l 1
 78 438 l 1
 78 375 l 0
 78 326 121 227 156 143 c 1
 192 228 234 325 234 375 c 0
 234 438 l 1
 250 453 l 1
 312 453 l 1
 328 438 l 1
 328 375 l 0
 328 246 205 23 203 0 c 1
 188 -16 l 1
 125 -16 l 1
 109 0 l 1
 107 24 -16 246 -16 375 c 0
 -16 438 l 1
 0 453 l 1
EndSplineSet
Validated: 1
EndChar

StartChar: w
Encoding: 119 119 35
Width: 375
VWidth: 0
Flags: W
HStem: -16 21G<47 141 172 266> 433 20G<-16 78 234 328>
VStem: -16 94<174.717 438> 47 94<0 44.8326> 109 94<172.972 312> 172 94<0 43.7246> 234 94<177.54 438>
LayerCount: 2
Fore
SplineSet
0 453 m 1xe0
 62 453 l 1
 78 438 l 1
 78 406 l 0
 78 298 86 223 96 171 c 1
 104 213 109 260 109 312 c 1
 125 328 l 1
 188 328 l 1
 203 312 l 1
 203 260 209 211 217 171 c 1
 227 225 234 298 234 406 c 0
 234 438 l 1
 250 453 l 1
 312 453 l 1
 328 438 l 1
 328 406 l 0xea
 328 62 266 49 266 0 c 1
 250 -16 l 1
 188 -16 l 1
 172 0 l 1
 172 2 164 23 156 46 c 1
 147 21 141 2 141 0 c 1
 125 -16 l 1
 62 -16 l 1
 47 0 l 1xd4
 47 47 -12 63 -16 375 c 1
 -16 438 l 1
 0 453 l 1xe0
EndSplineSet
Validated: 1
EndChar

StartChar: h
Encoding: 104 104 36
Width: 375
VWidth: 0
Flags: W
HStem: -16 21G<-16 78 234 328> 359 102<102.892 212.38> 621 20G<-16 78>
VStem: -16 94<0 332.853 441 625> 234 94<0 335.561>
LayerCount: 2
Fore
SplineSet
0 641 m 1
 62 641 l 1
 78 625 l 1
 78 441 l 1
 106 457 133 461 156 461 c 0
 328 461 328 310 328 219 c 0
 328 0 l 1
 312 -16 l 1
 250 -16 l 1
 234 0 l 1
 234 219 l 0
 234 342 208 359 156 359 c 0
 112 359 78 341 78 219 c 0
 78 0 l 1
 62 -16 l 1
 0 -16 l 1
 -16 0 l 1
 -16 625 l 1
 0 641 l 1
EndSplineSet
Validated: 1
EndChar

StartChar: i
Encoding: 105 105 37
Width: 375
VWidth: 0
Flags: W
HStem: -16 94<31 109 203 281> 359 94<62 109> 477 109<113.463 199.153>
VStem: 102 109<488.463 574.153> 109 94<78 359>
LayerCount: 2
Fore
SplineSet
156 586 m 0xf0
 186 586 211 561 211 531 c 0
 211 501 186 477 156 477 c 0
 126 477 102 501 102 531 c 0
 102 561 126 586 156 586 c 0xf0
62 453 m 1
 188 453 l 1
 203 438 l 1
 203 78 l 1
 281 78 l 1
 297 62 l 1
 297 0 l 1
 281 -16 l 1
 31 -16 l 1
 16 0 l 1
 16 62 l 1
 31 78 l 1
 109 78 l 1
 109 359 l 1xe8
 62 359 l 1
 47 375 l 1
 47 438 l 1
 62 453 l 1
EndSplineSet
Validated: 1
EndChar

StartChar: j
Encoding: 106 106 38
Width: 375
VWidth: 0
Flags: W
HStem: -211 102<70.3146 183.04> 359 94<94 203> 477 109<144.847 230.537>
VStem: 133 109<488.463 574.153> 203 94<-88.2344 359>
LayerCount: 2
Fore
SplineSet
188 586 m 0xf0
 218 586 242 561 242 531 c 0
 242 501 218 477 188 477 c 0
 158 477 133 501 133 531 c 0
 133 561 158 586 188 586 c 0xf0
94 453 m 1
 281 453 l 1
 297 438 l 1
 297 0 l 0
 297 -131 229 -211 125 -211 c 0
 45 -211 -22 -167 -45 -78 c 1
 -34 -60 l 1
 33 -41 l 1
 53 -52 l 1
 62 -86 79 -109 125 -109 c 0
 190 -109 203 -69 203 0 c 0
 203 359 l 1xe8
 94 359 l 1
 78 375 l 1
 78 438 l 1
 94 453 l 1
EndSplineSet
Validated: 1
EndChar

StartChar: k
Encoding: 107 107 39
Width: 375
VWidth: 0
Flags: W
HStem: -16 21G<-16 78 234 328> 433 20G<234 328> 621 20G<-16 78>
VStem: -16 94<0 127.084 214 625> 234 94<0 117.381 373.471 438>
LayerCount: 2
Fore
SplineSet
0 641 m 1
 62 641 l 1
 78 625 l 1
 78 214 l 1
 131 255 234 373 234 438 c 1
 250 453 l 1
 312 453 l 1
 328 438 l 1
 328 379 286 314 240 259 c 1
 281 204 328 115 328 0 c 1
 312 -16 l 1
 250 -16 l 1
 234 0 l 1
 234 80 205 146 174 190 c 1
 132 150 98 124 78 114 c 1
 78 0 l 1
 62 -16 l 1
 0 -16 l 1
 -16 0 l 1
 -16 625 l 1
 0 641 l 1
EndSplineSet
Validated: 1
EndChar

StartChar: l
Encoding: 108 108 40
Width: 375
VWidth: 0
Flags: W
HStem: -16 94<210.74 281> 547 94<31 109>
VStem: 109 94<83.4937 547>
LayerCount: 2
Fore
SplineSet
31 641 m 1
 188 641 l 1
 203 625 l 1
 203 156 l 0
 203 83 216 78 259 78 c 0
 266 78 272 78 281 78 c 1
 297 62 l 1
 297 0 l 1
 281 -16 l 1
 147 -16 109 57 109 156 c 0
 109 547 l 1
 31 547 l 1
 16 562 l 1
 16 625 l 1
 31 641 l 1
EndSplineSet
Validated: 1
EndChar

StartChar: m
Encoding: 109 109 41
Width: 375
VWidth: 0
Flags: W
HStem: -16 21G<-16 78 109 203 234 328> 441 12G<-16 71 102 126 221.5 280.5>
VStem: -16 94<0 354.812> 109 94<0 354.812> 234 94<0 357.412>
CounterMasks: 1 38
LayerCount: 2
Fore
SplineSet
71 444 m 1
 81 453 95 461 109 461 c 0
 143 461 168 448 183 427 c 1
 195 445 209 461 234 461 c 0
 327 461 328 375 328 316 c 0
 328 312 l 0
 328 0 l 1
 312 -16 l 1
 250 -16 l 1
 234 0 l 1
 234 312 l 0
 234 332 233 351 231 358 c 1
 223 355 213 347 203 334 c 1
 203 0 l 1
 188 -16 l 1
 125 -16 l 1
 109 0 l 1
 109 312 l 0
 109 332 108 351 106 358 c 1
 98 355 88 347 78 334 c 1
 78 0 l 1
 62 -16 l 1
 0 -16 l 1
 -16 0 l 1
 -16 438 l 1
 0 453 l 1
 62 453 l 1
 71 444 l 1
EndSplineSet
Validated: 1
EndChar

StartChar: n
Encoding: 110 110 42
Width: 375
VWidth: 0
Flags: W
HStem: -16 21G<-16 78 234 328> 359 102<110.363 201.778> 433 20G<-16 78>
VStem: -16 94<0 321.437> 234 94<0 319.581>
LayerCount: 2
Fore
SplineSet
156 461 m 0xd8
 243 461 328 412 328 219 c 0
 328 0 l 1
 312 -16 l 1
 250 -16 l 1
 234 0 l 1
 234 219 l 0
 234 312 204 359 156 359 c 0xd8
 95 359 78 279 78 219 c 0
 78 0 l 1
 62 -16 l 1
 0 -16 l 1
 -16 0 l 1
 -16 438 l 1
 0 453 l 1
 62 453 l 1xb8
 78 438 l 1
 78 438 146 461 156 461 c 0xd8
EndSplineSet
Validated: 1
EndChar

StartChar: o
Encoding: 111 111 43
Width: 375
VWidth: 0
Flags: W
HStem: -23 101<98.3553 213.678> 359 102<98.3553 213.678>
VStem: -23 101<100.344 337.303> 234 102<100.344 337.303>
LayerCount: 2
Fore
SplineSet
156 461 m 0
 294 461 336 346 336 219 c 0
 336 92 294 -23 156 -23 c 0
 18 -23 -23 92 -23 219 c 0
 -23 346 18 461 156 461 c 0
156 359 m 0
 78 359 78 301 78 219 c 0
 78 137 78 78 156 78 c 0
 234 78 234 137 234 219 c 0
 234 301 234 359 156 359 c 0
EndSplineSet
Validated: 1
EndChar

StartChar: p
Encoding: 112 112 44
Width: 375
VWidth: 0
Flags: W
HStem: -23 101<98.2592 211.99> 359 102<95.329 211.99> 433 20G<-16 76>
VStem: -16 94<-188 -2 97.4282 342.285> 234 102<99.4772 338.17>
LayerCount: 2
Fore
SplineSet
156 461 m 0xd8
 258 461 336 412 336 219 c 0
 336 26 258 -23 156 -23 c 0
 126 -23 101 -18 78 -2 c 1
 78 -188 l 1
 62 -203 l 1
 0 -203 l 1
 -16 -188 l 1
 -16 438 l 1
 0 453 l 1
 62 453 l 1xb8
 76 439 l 1
 106 458 131 461 156 461 c 0xd8
156 359 m 0xd8
 90 359 78 327 78 250 c 0
 78 188 l 0
 78 119 91 78 156 78 c 0
 234 78 234 137 234 219 c 0
 234 301 234 359 156 359 c 0xd8
EndSplineSet
Validated: 1
EndChar

StartChar: q
Encoding: 113 113 45
Width: 375
VWidth: 0
Flags: W
HStem: -23 101<100.056 213.523> 359 102<100.056 216.221> 433 20G<236 328>
VStem: -23 101<99.4772 338.17> 234 94<-188 -2 97.4282 342.285>
LayerCount: 2
Fore
SplineSet
156 461 m 0xd8
 181 461 207 457 236 439 c 1
 250 453 l 1
 312 453 l 1xb8
 328 438 l 1
 328 -188 l 1
 312 -203 l 1
 250 -203 l 1
 234 -188 l 1
 234 -2 l 1
 210 -19 186 -23 156 -23 c 0
 54 -23 -23 26 -23 219 c 0
 -23 412 54 461 156 461 c 0xd8
156 359 m 0xd8
 78 359 78 301 78 219 c 0
 78 137 78 78 156 78 c 0
 221 78 234 119 234 188 c 0
 234 250 l 0
 234 327 222 359 156 359 c 0xd8
EndSplineSet
Validated: 1
EndChar

StartChar: r
Encoding: 114 114 46
Width: 375
VWidth: 0
Flags: W
HStem: -16 21G<-16 78> 359 102<95.329 214.508> 433 20G<-16 76>
VStem: -16 94<0 342.285>
LayerCount: 2
Fore
SplineSet
156 461 m 0xd0
 232 461 302 433 326 327 c 1
 314 309 l 1
 248 291 l 1
 229 303 l 1
 221 338 205 359 156 359 c 0xd0
 90 359 78 327 78 250 c 0
 78 0 l 1
 62 -16 l 1
 0 -16 l 1
 -16 0 l 1
 -16 438 l 1
 0 453 l 1
 62 453 l 1xb0
 76 439 l 1
 106 458 131 461 156 461 c 0xd0
EndSplineSet
Validated: 1
EndChar

StartChar: s
Encoding: 115 115 47
Width: 375
VWidth: 0
Flags: W
HStem: -23 101<94.4318 224.929> 172 94<83.0154 224.599> 359 102<87.1321 217.869>
VStem: -23 101<274.71 347.817> 234 102<89.2099 164.232>
LayerCount: 2
Fore
SplineSet
156 461 m 0
 231 461 298 434 324 359 c 1
 313 340 l 1
 242 321 l 1
 225 328 l 1
 214 349 193 359 156 359 c 0
 91 359 78 333 78 312 c 0
 78 278 94 266 156 266 c 0
 296 266 336 195 336 125 c 0
 336 37 271 -23 156 -23 c 0
 81 -23 14 3 -12 78 c 1
 -1 98 l 1
 70 116 l 1
 88 108 l 1
 98 88 119 78 156 78 c 0
 221 78 234 104 234 125 c 0
 234 159 218 172 156 172 c 0
 16 172 -23 242 -23 312 c 0
 -23 400 41 461 156 461 c 0
EndSplineSet
Validated: 1
EndChar

StartChar: t
Encoding: 116 116 48
Width: 375
VWidth: 0
Flags: W
HStem: -23 101<160.237 288.491> 359 94<0 47 141 312> 621 20G<47 141>
VStem: 47 94<99.7656 359 453 625>
LayerCount: 2
Fore
SplineSet
62 641 m 1
 125 641 l 1
 141 625 l 1
 141 453 l 1
 312 453 l 1
 328 438 l 1
 328 375 l 1
 312 359 l 1
 141 359 l 1
 141 188 l 0
 141 98 166 78 219 78 c 0
 245 78 261 84 271 93 c 1
 292 92 l 1
 339 45 l 1
 339 22 l 1
 307 -8 266 -23 219 -23 c 0
 115 -23 47 57 47 188 c 0
 47 359 l 1
 0 359 l 1
 -16 375 l 1
 -16 438 l 1
 0 453 l 1
 47 453 l 1
 47 625 l 1
 62 641 l 1
EndSplineSet
Validated: 1
EndChar

StartChar: x
Encoding: 120 120 49
Width: 375
VWidth: 0
Flags: W
HStem: -16 21G<-16 78 234 328> 433 20G<-16 78 234 328>
VStem: -16 94<0 95.7226 334.198 438> 234 94<0 95.1374 333.997 438>
LayerCount: 2
Fore
SplineSet
0 453 m 1
 62 453 l 1
 78 438 l 1
 78 406 l 0
 78 348 110 312 156 275 c 1
 203 313 234 348 234 406 c 0
 234 438 l 1
 250 453 l 1
 312 453 l 1
 328 438 l 1
 328 406 l 0
 328 321 280 264 229 218 c 1
 280 175 324 120 328 31 c 1
 328 0 l 1
 312 -16 l 1
 250 -16 l 1
 234 0 l 1
 234 31 l 0
 234 81 202 118 156 157 c 1
 109 117 78 81 78 31 c 0
 78 0 l 1
 62 -16 l 1
 0 -16 l 1
 -16 0 l 1
 -16 31 l 1
 -12 121 34 176 84 218 c 1
 31 265 -16 321 -16 406 c 0
 -16 438 l 1
 0 453 l 1
EndSplineSet
Validated: 1
EndChar

StartChar: y
Encoding: 121 121 50
Width: 375
VWidth: 0
Flags: W
HStem: -211 102<98.3254 213.585> -23 101<100.008 213.523> 433 20G<-16 78 234 328>
VStem: -16 94<-87.7209 -69 99.1887 438> 234 94<-86.9688 -2 97.4282 438>
LayerCount: 2
Fore
SplineSet
-16 219 m 2
 -16 438 l 1
 0 453 l 1
 62 453 l 1
 78 438 l 1
 78 219 l 0
 78 137 78 78 156 78 c 0
 221 78 234 119 234 188 c 0
 234 438 l 1
 250 453 l 1
 312 453 l 1
 328 438 l 1
 328 0 l 0
 328 -128 292 -211 156 -211 c 0
 52 -211 3 -161 -11 -76 c 1
 1 -59 l 1
 63 -41 l 1
 83 -52 l 1
 93 -96 113 -109 156 -109 c 0
 209 -109 233 -88 234 -2 c 1
 210 -19 186 -23 156 -23 c 0
 52 -23 -16 51 -16 219 c 2
EndSplineSet
Validated: 1
EndChar

StartChar: z
Encoding: 122 122 51
Width: 375
VWidth: 0
Flags: W
HStem: -16 94<109 312> 359 94<0 203>
LayerCount: 2
Fore
SplineSet
0 453 m 1
 312 453 l 1
 328 438 l 1
 328 375 l 1
 325 365 l 1
 109 78 l 1
 312 78 l 1
 328 62 l 1
 328 0 l 1
 312 -16 l 1
 0 -16 l 1
 -16 0 l 1
 -16 62 l 1
 -13 72 l 1
 203 359 l 1
 0 359 l 1
 -16 375 l 1
 -16 438 l 1
 0 453 l 1
EndSplineSet
Validated: 1
EndChar

StartChar: zero
Encoding: 48 48 52
Width: 375
VWidth: 0
Flags: W
HStem: -23 101<129.619 167.98> 628 20G<101 211>
VStem: -23 101<166.063 391.616> 234 102<232.91 458.26>
LayerCount: 2
Fore
SplineSet
156 648 m 0
 266 648 336 500 336 312 c 0
 336 124 266 -23 156 -23 c 0
 46 -23 -23 124 -23 312 c 0
 -23 500 46 648 156 648 c 0
156 547 m 0
 151 547 148 546 143 543 c 1
 228 229 l 1
 233 259 234 288 234 312 c 0
 234 411 197 547 156 547 c 0
85 396 m 1
 80 366 78 336 78 312 c 0
 78 213 115 78 156 78 c 0
 161 78 165 79 170 82 c 1
 85 396 l 1
EndSplineSet
Validated: 1
EndChar

StartChar: one
Encoding: 49 49 53
Width: 375
VWidth: 0
Flags: W
HStem: -16 94<0 109 203 312> 621 20G<112 203>
VStem: 109 94<78 461>
LayerCount: 2
Fore
SplineSet
125 641 m 1
 188 641 l 1
 203 625 l 1
 203 78 l 1
 312 78 l 1
 328 62 l 1
 328 0 l 1
 312 -16 l 1
 0 -16 l 1
 -16 0 l 1
 -16 62 l 1
 0 78 l 1
 109 78 l 1
 109 461 l 1
 64 394 l 1
 43 390 l 1
 -9 425 l 1
 -13 446 l 1
 112 634 l 1
 125 641 l 1
EndSplineSet
Validated: 1
EndChar

StartChar: two
Encoding: 50 50 54
Width: 375
VWidth: 0
Flags: W
HStem: -16 94<79 312> 547 101<102.581 211.444>
VStem: 234 102<381.818 522.956>
LayerCount: 2
Fore
SplineSet
156 648 m 0
 260 648 336 570 336 438 c 0
 336 256 94 232 79 78 c 1
 312 78 l 1
 328 62 l 1
 328 0 l 1
 312 -16 l 1
 0 -16 l 1
 -16 0 l 1
 -16 62 l 0
 -16 325 234 303 234 438 c 0
 234 500 220 547 156 547 c 0
 110 547 93 523 84 489 c 1
 62 479 l 1
 43 488 18 491 -2 497 c 1
 -13 516 l 1
 11 600 71 648 156 648 c 0
EndSplineSet
Validated: 1
EndChar

StartChar: three
Encoding: 51 51 55
Width: 375
VWidth: 0
Flags: W
HStem: -23 101<105.771 205.028> 289 102<156 212.383> 547 101<99.8207 211.621>
VStem: -17 100<99.9604 135 506.636 527.673> 234 102<107.284 270.147 412.37 524.713>
LayerCount: 2
Fore
SplineSet
156 648 m 0
 259 648 336 572 336 469 c 0
 336 418 316 373 285 341 c 1
 318 308 336 261 336 203 c 0
 336 107 295 -23 156 -23 c 0
 52 -23 1 45 -17 126 c 1
 -5 144 l 1
 63 162 l 1
 83 150 l 1
 92 107 110 78 156 78 c 0
 218 78 234 140 234 203 c 0
 234 260 210 289 156 289 c 1
 141 305 l 1
 141 375 l 1
 156 391 l 1
 209 391 234 429 234 469 c 0
 234 509 209 547 156 547 c 0
 113 547 88 521 80 490 c 1
 62 479 l 1
 -6 498 l 1
 -18 517 l 1
 2 594 71 648 156 648 c 0
EndSplineSet
Validated: 1
EndChar

StartChar: four
Encoding: 52 52 56
Width: 375
VWidth: 0
Flags: W
HStem: -16 21G<172 266> 172 94<96 172 266 312> 621 20G<174 266>
VStem: 172 94<0 172 266 419>
LayerCount: 2
Fore
SplineSet
188 641 m 1
 250 641 l 1
 266 625 l 1
 266 266 l 1
 312 266 l 1
 328 250 l 1
 328 188 l 1
 312 172 l 1
 266 172 l 1
 266 0 l 1
 250 -16 l 1
 188 -16 l 1
 172 0 l 1
 172 172 l 1
 0 172 l 1
 -16 188 l 1
 -16 250 l 1
 -14 257 l 1
 174 632 l 1
 188 641 l 1
172 419 m 1
 96 266 l 1
 172 266 l 1
 172 419 l 1
EndSplineSet
Validated: 1
EndChar

StartChar: five
Encoding: 53 53 57
Width: 375
VWidth: 0
Flags: W
HStem: -23 101<101.039 212.247> 359 102<109.842 209.316> 547 94<109 281>
VStem: 16 93<446 547> 234 102<188 334.212>
LayerCount: 2
Fore
SplineSet
335 187 m 1
 321 41 237 -23 156 -23 c 0
 95 -23 29 12 -3 94 c 1
 4 113 l 1
 62 146 l 1
 86 137 l 1
 97 88 116 78 156 78 c 0
 208 78 234 96 234 219 c 0
 234 342 208 359 156 359 c 0
 152 359 149 359 145 359 c 0
 124 359 118 358 107 337 c 1
 94 328 l 1
 31 328 l 1
 16 344 l 1
 16 625 l 1
 31 641 l 1
 281 641 l 1
 297 625 l 1
 297 562 l 1
 281 547 l 1
 109 547 l 1
 109 446 l 1
 127 457 143 461 156 461 c 0
 244 461 336 389 336 219 c 0
 336 188 l 1
 335 187 l 1
EndSplineSet
Validated: 1
EndChar

StartChar: six
Encoding: 54 54 58
Width: 375
VWidth: 0
Flags: W
HStem: -23 101<106.398 205.648> 359 102<105.981 205.648> 547 101<107.316 218.934>
VStem: -23 101<111.018 325.463> 234 102<111.018 326.767>
LayerCount: 2
Fore
SplineSet
156 648 m 0
 203 648 248 631 280 576 c 1
 274 555 l 1
 226 526 l 1
 205 530 l 1
 194 543 182 547 156 547 c 0
 114 547 97 538 86 443 c 1
 109 455 133 461 156 461 c 0
 245 461 336 381 336 219 c 0
 336 57 245 -23 156 -23 c 0
 67 -23 -23 57 -23 219 c 0
 -23 562 48 648 156 648 c 0
156 359 m 0
 120 359 78 340 78 219 c 0
 78 98 120 78 156 78 c 0
 192 78 234 98 234 219 c 0
 234 340 192 359 156 359 c 0
EndSplineSet
Validated: 1
EndChar

StartChar: seven
Encoding: 55 55 59
Width: 375
VWidth: 0
Flags: W
HStem: -16 21G<47 141> 547 94<0 233>
VStem: 47 94<0 144.378>
LayerCount: 2
Fore
SplineSet
0 641 m 1
 312 641 l 1
 328 625 l 1
 328 562 l 0
 328 427 141 177 141 62 c 0
 141 0 l 1
 125 -16 l 1
 62 -16 l 1
 47 0 l 1
 47 62 l 0
 47 191 218 427 233 547 c 1
 0 547 l 1
 -16 562 l 1
 -16 625 l 1
 0 641 l 1
EndSplineSet
Validated: 1
EndChar

StartChar: eight
Encoding: 56 56 60
Width: 375
VWidth: 0
Flags: W
HStem: -23 101<107.137 205.028> 289 102<99.6168 212.383> 547 101<100.425 211.621>
VStem: -23 101<108.783 270.302 412.509 524.713> 234 102<107.284 270.147 412.37 524.713>
LayerCount: 2
Fore
SplineSet
156 648 m 0
 259 648 336 572 336 469 c 0
 336 418 316 373 285 341 c 1
 318 308 336 261 336 203 c 0
 336 107 295 -23 156 -23 c 0
 18 -23 -23 92 -23 203 c 0
 -23 261 -4 309 27 341 c 1
 -5 374 -23 418 -23 469 c 0
 -23 572 53 648 156 648 c 0
156 547 m 0
 103 547 78 509 78 469 c 0
 78 429 103 391 156 391 c 0
 209 391 234 429 234 469 c 0
 234 509 209 547 156 547 c 0
156 289 m 0
 102 289 78 260 78 203 c 0
 78 140 94 78 156 78 c 0
 218 78 234 140 234 203 c 0
 234 260 210 289 156 289 c 0
EndSplineSet
Validated: 1
EndChar

StartChar: nine
Encoding: 57 57 61
Width: 375
VWidth: 0
Flags: W
HStem: -23 101<93.0658 205.002> 164 102<106.398 205.864> 547 101<106.398 205.648>
VStem: -23 101<298.233 513.982> 234 102<299.537 513.982>
LayerCount: 2
Fore
SplineSet
156 -23 m 0
 109 -23 64 -6 32 49 c 1
 38 70 l 1
 87 99 l 1
 107 95 l 1
 118 82 130 78 156 78 c 0
 198 78 216 87 227 182 c 1
 204 170 179 164 156 164 c 0
 67 164 -23 244 -23 406 c 0
 -23 568 67 648 156 648 c 0
 245 648 336 568 336 406 c 0
 336 63 264 -23 156 -23 c 0
156 266 m 0
 192 266 234 285 234 406 c 0
 234 527 192 547 156 547 c 0
 120 547 78 527 78 406 c 0
 78 285 120 266 156 266 c 0
EndSplineSet
Validated: 1
EndChar

StartChar: dollar
Encoding: 36 36 62
Width: 375
VWidth: 0
Flags: W
VStem: -23 101<104.523 132.412 407.943 530.238> 109 94<-62 -12.0984 94 280 400 537 637.448 688> 234 102<103.927 269.023>
LayerCount: 2
Fore
SplineSet
125 703 m 1
 188 703 l 1
 203 688 l 1
 203 643 l 1
 256 630 298 596 319 548 c 1
 309 526 l 1
 242 509 l 1
 225 517 l 1
 220 526 212 532 203 537 c 1
 203 386 l 1
 293 365 336 286 336 188 c 0
 336 78 283 3 203 -18 c 1
 203 -62 l 1
 188 -78 l 1
 125 -78 l 1
 109 -62 l 1
 109 -18 l 1
 46 -2 -1 50 -18 125 c 1
 -6 143 l 1
 62 161 l 1
 81 149 l 1
 86 123 96 104 109 93 c 1
 109 302 l 1
 30 321 -23 383 -23 469 c 0
 -23 555 31 623 109 643 c 1
 109 688 l 1
 125 703 l 1
109 537 m 1
 88 525 78 506 78 469 c 0
 78 432 89 411 109 400 c 1
 109 537 l 1
203 280 m 1
 203 94 l 1
 223 111 234 141 234 188 c 0
 234 218 225 259 203 280 c 1
EndSplineSet
Validated: 1
EndChar

StartChar: ampersand
Encoding: 38 38 63
Width: 375
VWidth: 0
Flags: W
HStem: -23 101<102.398 181.966> -16 21G<234 328> 628 20G<118 194>
VStem: -16 94<102.025 222.334> 47 94<437.978 538.37> 172 94<437.574 538.371> 234 94<0 11 282.26 344>
LayerCount: 2
Fore
SplineSet
156 648 m 0xa8
 232 648 266 572 266 516 c 0xac
 266 439 234 381 199 335 c 1
 211 315 221 298 232 281 c 1
 234 308 234 328 234 344 c 1
 250 359 l 1
 312 359 l 1
 328 344 l 1
 328 280 323 207 307 145 c 1
 321 109 328 72 328 31 c 0
 328 0 l 1
 312 -16 l 1
 250 -16 l 1x62
 234 0 l 1
 234 11 l 1
 209 -10 178 -23 141 -23 c 0xaa
 37 -23 -16 59 -16 172 c 0xb0
 -16 242 36 293 81 341 c 1
 60 391 47 447 47 516 c 0
 47 572 80 648 156 648 c 0xa8
156 539 m 0
 154 539 141 526 141 516 c 0
 141 488 146 460 153 437 c 1
 165 461 172 486 172 516 c 0
 172 528 159 539 156 539 c 0
127 255 m 1
 96 222 78 197 78 172 c 0xb0
 78 101 120 78 141 78 c 0
 168 78 188 99 204 136 c 1
 183 174 154 211 127 255 c 1
EndSplineSet
Validated: 1
EndChar

StartChar: at
Encoding: 64 64 64
Width: 375
VWidth: 0
Flags: W
HStem: -23 120<97.8697 226> 547 101<106.736 216.813>
VStem: -23 101<108.393 517.042> 94 101<234.539 390.057> 234 94<233.007 391.992 490 527.315>
LayerCount: 2
Fore
SplineSet
245 138 m 1
 234 135 221 133 211 133 c 0
 126 133 94 217 94 312 c 0
 94 407 126 492 211 492 c 0
 219 492 228 491 233 490 c 1
 227 527 200 547 157 547 c 1
 85 541 78 487 78 369 c 0
 78 256 l 0
 78 138 85 85 156 78 c 1
 180 80 193 87 204 97 c 1
 226 96 l 1
 277 44 l 1
 278 23 l 1
 249 -11 207 -23 156 -23 c 0
 17 -23 -23 71 -23 312 c 0
 -23 553 17 648 156 648 c 0
 266 648 328 570 328 477 c 0
 328 148 l 1
 312 133 l 1
 250 133 l 1
 245 138 l 1
211 391 m 1
 210 391 195 388 195 312 c 0
 195 236 210 234 211 234 c 0
 212 234 214 233 217 233 c 0
 224 233 234 242 234 312 c 0
 234 382 224 392 217 392 c 0
 214 392 212 391 211 391 c 1
EndSplineSet
Validated: 1
EndChar

StartChar: cent
Encoding: 162 162 65
Width: 375
VWidth: 0
Flags: W
HStem: -16 21G<109 203>
VStem: -23 101<162.523 399.822> 109 94<0 49.573 152 410 513.592 562>
LayerCount: 2
Fore
SplineSet
125 578 m 1
 188 578 l 1
 203 562 l 1
 203 519 l 1
 270 502 305 452 323 390 c 1
 312 371 l 1
 248 354 l 1
 229 365 l 1
 224 386 216 401 203 410 c 1
 203 152 l 1
 217 162 224 176 229 197 c 1
 248 209 l 1
 312 191 l 1
 323 173 l 1
 305 110 269 60 203 44 c 1
 203 0 l 1
 188 -16 l 1
 125 -16 l 1
 109 0 l 1
 109 44 l 1
 6 69 -23 171 -23 281 c 0
 -23 392 7 495 109 519 c 1
 109 562 l 1
 125 578 l 1
109 410 m 1
 80 389 78 341 78 281 c 0
 78 220 81 172 109 152 c 1
 109 410 l 1
EndSplineSet
Validated: 1
EndChar

StartChar: sterling
Encoding: 163 163 66
Width: 375
VWidth: 0
Flags: W
HStem: -16 94<106 312> 266 93<0 24 132 219> 547 101<111.595 218.325>
VStem: 8 101<361.691 542.873> 36 97<114.397 266>
LayerCount: 2
Fore
SplineSet
156 648 m 0xf0
 219 648 263 618 285 577 c 1
 279 556 l 1
 221 521 l 1
 199 528 l 1
 194 538 185 547 156 547 c 0
 112 547 109 528 109 500 c 0xf0
 109 475 117 420 124 359 c 1
 219 359 l 1
 234 344 l 1
 234 281 l 1
 219 266 l 1
 132 266 l 1
 133 252 133 239 133 225 c 0
 133 170 126 118 106 78 c 1
 312 78 l 1
 328 62 l 1
 328 0 l 1
 312 -16 l 1
 0 -16 l 1
 -16 0 l 1
 -16 62 l 1
 -12 73 l 1
 24 115 36 170 36 232 c 0xe8
 36 242 36 256 35 266 c 1
 0 266 l 1
 -16 281 l 1
 -16 344 l 1
 0 359 l 1
 24 359 l 1
 15 413 8 461 8 500 c 0
 8 568 52 648 156 648 c 0xf0
EndSplineSet
Validated: 1
EndChar

StartChar: yen
Encoding: 165 165 67
Width: 375
VWidth: 0
Flags: W
HStem: -16 21G<109 203> 109 94<31 109 203 281> 234 94<31 66 246 281> 621 20G<-16 78 234 328>
VStem: -16 94<474.859 625> 109 94<0 109 203 234> 234 94<474.789 625>
CounterMasks: 1 0e
LayerCount: 2
Fore
SplineSet
0 641 m 1
 62 641 l 1
 78 625 l 1
 78 562 l 0
 78 505 118 429 156 356 c 1
 194 430 234 504 234 562 c 0
 234 625 l 1
 250 641 l 1
 312 641 l 1
 328 625 l 1
 328 562 l 0
 328 493 283 399 246 328 c 1
 281 328 l 1
 297 312 l 1
 297 250 l 1
 281 234 l 1
 203 234 l 1
 203 203 l 1
 281 203 l 1
 297 188 l 1
 297 125 l 1
 281 109 l 1
 203 109 l 1
 203 0 l 1
 188 -16 l 1
 125 -16 l 1
 109 0 l 1
 109 109 l 1
 31 109 l 1
 16 125 l 1
 16 188 l 1
 31 203 l 1
 109 203 l 1
 109 234 l 1
 31 234 l 1
 16 250 l 1
 16 312 l 1
 31 328 l 1
 66 328 l 1
 28 401 -16 493 -16 562 c 0
 -16 625 l 1
 0 641 l 1
EndSplineSet
Validated: 1
EndChar

StartChar: section
Encoding: 167 167 68
Width: 375
VWidth: 0
Flags: W
HStem: -23 101<84.4907 227.563> 172 94<90.4644 225.174> 359 94<86.8257 221.628> 547 101<84.4907 227.563>
VStem: -23 101<88.6339 125 278.06 347.013 464.453 537.912> 234 102<87.0879 160.547 277.374 346.222 500 536.366>
LayerCount: 2
Fore
SplineSet
156 648 m 0
 289 648 336 570 336 500 c 1
 320 484 l 1
 250 484 l 1
 234 500 l 1
 234 534 218 547 156 547 c 0
 94 547 78 534 78 500 c 0
 78 468 110 453 156 453 c 0
 288 453 336 383 336 312 c 0
 336 279 326 244 300 219 c 1
 327 192 336 158 336 125 c 0
 336 55 289 -23 156 -23 c 0
 23 -23 -23 55 -23 125 c 1
 -8 141 l 1
 62 141 l 1
 78 125 l 1
 78 91 94 78 156 78 c 0
 218 78 234 91 234 125 c 0
 234 157 202 172 156 172 c 0
 24 172 -23 241 -23 312 c 0
 -23 345 -13 381 13 406 c 1
 -14 433 -23 467 -23 500 c 0
 -23 570 23 648 156 648 c 0
156 359 m 0
 110 359 78 344 78 312 c 0
 78 280 110 266 156 266 c 0
 202 266 234 280 234 312 c 0
 234 344 202 359 156 359 c 0
EndSplineSet
Validated: 1
EndChar

StartChar: degree
Encoding: 176 176 69
Width: 375
VWidth: 0
Flags: W
HStem: 414 86<64.1883 123.358> 562 86<64.1883 123.358>
VStem: -23 85<501.754 560.246> 125 86<501.642 560.358>
LayerCount: 2
Fore
SplineSet
94 648 m 0
 158 648 211 595 211 531 c 0
 211 467 158 414 94 414 c 0
 30 414 -23 467 -23 531 c 0
 -23 595 30 648 94 648 c 0
94 562 m 0
 76 562 62 549 62 531 c 0
 62 513 76 500 94 500 c 0
 112 500 125 513 125 531 c 0
 125 549 112 562 94 562 c 0
EndSplineSet
Validated: 1
EndChar

StartChar: ordfeminine
Encoding: 170 170 70
Width: 375
VWidth: 0
Flags: W
HStem: 172 94<0 188> 547 101<52.7575 107.848>
VStem: 109 94<391 422 516 545.914>
LayerCount: 2
Fore
SplineSet
118 296 m 1
 111 292 101 289 94 289 c 0
 24 289 -23 336 -23 406 c 0
 -23 477 26 516 94 516 c 0
 109 516 l 1
 108 542 105 547 94 547 c 0
 85 547 83 546 80 536 c 1
 62 525 l 1
 1 542 l 1
 -11 560 l 1
 1 619 39 648 94 648 c 0
 167 648 203 597 203 500 c 0
 203 305 l 1
 188 289 l 1
 125 289 l 1
 118 296 l 1
94 422 m 2
 76 422 78 414 78 406 c 0
 78 391 73 391 94 391 c 0
 115 391 109 391 109 403 c 0
 109 422 l 1
 94 422 l 2
0 266 m 1
 188 266 l 1
 203 250 l 1
 203 188 l 1
 188 172 l 1
 0 172 l 1
 -16 188 l 1
 -16 250 l 1
 0 266 l 1
EndSplineSet
Validated: 1
EndChar

StartChar: ordmasculine
Encoding: 186 186 71
Width: 375
VWidth: 0
Flags: W
HStem: 172 94<0 188> 628 20G<38.5 149.5>
VStem: -23 101<392.079 545.763> 109 102<392.079 545.763>
LayerCount: 2
Fore
SplineSet
94 648 m 0
 205 648 211 512 211 469 c 0
 211 426 205 289 94 289 c 0
 -17 289 -23 426 -23 469 c 0
 -23 512 -17 648 94 648 c 0
94 547 m 0
 81 547 78 538 78 469 c 0
 78 400 81 391 94 391 c 0
 107 391 109 400 109 469 c 0
 109 538 107 547 94 547 c 0
0 266 m 1
 188 266 l 1
 203 250 l 1
 203 188 l 1
 188 172 l 1
 0 172 l 1
 -16 188 l 1
 -16 250 l 1
 0 266 l 1
EndSplineSet
Validated: 1
EndChar

StartChar: Aring
Encoding: 197 197 72
Width: 375
VWidth: 0
Flags: W
HStem: -16 21G<-16 78 234 328> 109 94<99 214> 703 78<127.405 186.396>
VStem: -16 94<0 103.082> 47 78<642.621 700.595> 188 78<643.211 700.483> 234 94<0 102.625>
LayerCount: 2
Fore
SplineSet
156 781 m 0xe8
 217 781 266 733 266 672 c 0xec
 266 635 247 604 221 584 c 1
 262 469 328 214 328 0 c 1
 312 -16 l 1
 250 -16 l 1
 234 0 l 1
 234 31 233 69 228 109 c 1
 85 109 l 1
 80 67 78 31 78 0 c 1
 62 -16 l 1
 0 -16 l 1
 -16 0 l 1xf2
 -16 215 52 471 92 584 c 1
 65 605 47 636 47 672 c 0
 47 733 95 781 156 781 c 0xe8
156 703 m 0
 138 703 125 690 125 672 c 0
 125 654 138 641 156 641 c 0
 174 641 188 654 188 672 c 0
 188 690 174 703 156 703 c 0
156 478 m 1
 133 392 113 292 99 203 c 1
 214 203 l 1
 200 294 179 393 156 478 c 1
EndSplineSet
Validated: 1
EndChar

StartChar: aring
Encoding: 229 229 73
Width: 375
VWidth: 0
Flags: W
HStem: -23 101<82.8432 233.497> -16 21G<239 328> 180 93<87.0779 234> 359 102<126.318 185.63> 523 79<127.405 186.396>
VStem: -23 101<84.6795 170.355> 47 78<462.347 520.628> 188 78<462.536 520.516> 234 94<85.1755 182 274.393 341.8>
LayerCount: 2
Fore
SplineSet
239 -5 m 1x7880
 209 -18 172 -23 148 -23 c 0
 85 -23 -23 -6 -23 125 c 0
 -23 256 92 273 148 273 c 0
 204 273 229 275 234 277 c 1
 234 278 234 279 234 281 c 0xbc80
 234 336 211 359 156 359 c 0
 130 359 112 354 100 344 c 1
 82 342 l 1
 26 374 l 1
 21 397 l 1
 33 412 46 425 62 435 c 1
 51 453 47 471 47 492 c 0
 47 553 95 602 156 602 c 0
 217 602 266 553 266 492 c 0xbb
 266 471 260 451 250 435 c 1
 301 403 328 346 328 281 c 0
 328 0 l 1
 312 -16 l 1
 250 -16 l 1
 239 -5 l 1x7880
156 523 m 0
 138 523 125 510 125 492 c 0
 125 474 138 461 156 461 c 0
 174 461 188 474 188 492 c 0x3b
 188 510 174 523 156 523 c 0
234 182 m 1xbc80
 221 180 213 179 201 179 c 0
 182 179 163 180 148 180 c 0
 85 180 78 157 78 125 c 0
 78 89 88 78 148 78 c 0
 187 78 234 84 234 102 c 0
 234 182 l 1xbc80
EndSplineSet
Validated: 1
EndChar

StartChar: oslash
Encoding: 248 248 74
Width: 375
VWidth: 0
Flags: W
HStem: -23 101<131.82 213.678> 359 102<98.3553 181.317>
VStem: -23 101<179.995 336.501> 234 102<101.499 258.005>
LayerCount: 2
Fore
SplineSet
277 491 m 1
 332 460 l 1
 338 438 l 1
 304 379 l 1
 328 334 336 280 336 219 c 0
 336 92 294 -23 156 -23 c 0
 127 -23 101 -18 79 -8 c 1
 57 -48 l 1
 35 -54 l 1
 -20 -22 l 1
 -25 -1 l 1
 9 59 l 1
 -15 104 -23 158 -23 219 c 0
 -23 346 18 461 156 461 c 0
 185 461 211 455 233 445 c 1
 256 485 l 1
 277 491 l 1
156 359 m 0
 78 359 78 301 78 219 c 0
 78 205 78 192 78 179 c 1
 182 356 l 1
 174 358 166 359 156 359 c 0
234 259 m 1
 131 81 l 1
 139 79 146 78 156 78 c 0
 234 78 234 137 234 219 c 0
 234 233 234 246 234 259 c 1
EndSplineSet
Validated: 1
EndChar

StartChar: Oslash
Encoding: 216 216 75
Width: 375
VWidth: 0
Flags: W
HStem: -23 101<115.423 204.623> 547 101<108.754 196.577>
VStem: -24 101<244.318 506.938> 235 102<118.062 380.682>
LayerCount: 2
Fore
SplineSet
273 687 m 1
 332 663 l 1
 341 643 l 1
 309 563 l 1
 332 513 337 445 337 366 c 0
 337 346 336 330 336 310 c 1
 333 128 323 -23 155 -23 c 0
 150 -23 l 1
 121 -22 98 -18 77 -10 c 1
 60 -53 l 1
 39 -62 l 1
 -20 -38 l 1
 -28 -18 l 1
 4 62 l 1
 -19 112 -24 180 -24 259 c 0
 -24 279 -23 295 -23 315 c 1
 -20 497 -11 648 157 648 c 0
 162 648 l 1
 191 647 214 643 235 635 c 1
 253 678 l 1
 273 687 l 1
156 547 m 2
 85 546 81 474 78 314 c 1
 78 289 77 263 77 242 c 0
 77 242 187 515 197 538 c 1
 188 544 177 547 160 547 c 0
 156 547 l 2
235 383 m 1
 115 87 l 1
 124 81 135 78 152 78 c 0
 155 78 l 0
 227 78 231 150 234 311 c 1
 234 336 235 362 235 383 c 1
EndSplineSet
Validated: 1
EndChar

StartChar: grave
Encoding: 96 96 76
Width: 375
VWidth: 0
Flags: W
HStem: 487 166
VStem: 73 166
LayerCount: 2
Fore
SplineSet
140 653 m 1
 239 554 l 1
 239 532 l 1
 194 487 l 1
 173 487 l 1
 73 587 l 1
 73 608 l 1
 118 653 l 1
 140 653 l 1
EndSplineSet
Validated: 1
EndChar

StartChar: asciicircum
Encoding: 94 94 77
Width: 375
VWidth: 0
Flags: W
HStem: 492 159
VStem: 52 209<536 558>
LayerCount: 2
Fore
SplineSet
167 651 m 1
 261 558 l 1
 261 536 l 1
 217 492 l 1
 195 492 l 1
 156 530 l 1
 117 492 l 1
 96 492 l 1
 52 536 l 1
 52 558 l 1
 146 651 l 1
 167 651 l 1
EndSplineSet
Validated: 1
EndChar

StartChar: acute
Encoding: 180 180 78
Width: 375
VWidth: 0
Flags: W
HStem: 487 166
VStem: 73 166
LayerCount: 2
Fore
SplineSet
194 653 m 1
 239 608 l 1
 239 587 l 1
 140 487 l 1
 118 487 l 1
 73 532 l 1
 73 554 l 1
 173 653 l 1
 194 653 l 1
EndSplineSet
Validated: 1
EndChar

StartChar: cedilla
Encoding: 184 184 79
Width: 375
VWidth: 0
Flags: W
HStem: -172 102<73.2857 154.962>
VStem: 156 94<-68.0958 -1.15898>
LayerCount: 2
Fore
SplineSet
148 78 m 1
 199 78 250 22 250 -47 c 0
 250 -110 195 -172 109 -172 c 0
 85 -172 63 -166 44 -156 c 1
 37 -135 l 1
 71 -77 l 1
 87 -69 l 1
 92 -70 99 -70 109 -70 c 0
 148 -70 156 -65 156 -47 c 0
 156 -35 150 -19 145 -14 c 1
 139 -8 138 -5 133 0 c 1
 133 62 l 1
 148 78 l 1
EndSplineSet
Validated: 1
EndChar

StartChar: asciitilde
Encoding: 126 126 80
Width: 375
VWidth: 0
Flags: W
HStem: 479 94<191.779 229.498> 552 94<84 119.646>
LayerCount: 2
Fore
SplineSet
102 646 m 2x40
 104 646 l 0x40
 147 646 180 617 198 583 c 1
 202 576 206 573 211 573 c 0
 214 573 216 573 220 575 c 1
 229 580 229 584 229 588 c 0
 229 592 l 1
 236 610 l 1
 300 641 l 1
 321 633 l 1
 326 621 328 609 328 595 c 0
 328 555 306 514 261 492 c 1
 243 483 226 479 210 479 c 0x80
 166 479 131 508 114 542 c 1
 111 549 107 552 102 552 c 0
 99 552 97 552 93 550 c 1
 84 545 84 541 84 537 c 0
 84 533 l 1
 76 515 l 1
 13 484 l 1
 -9 492 l 1
 -14 504 -16 516 -16 530 c 0
 -16 570 8 611 52 633 c 1
 63 639 72 643 81 644 c 1
 91 647 96 646 102 646 c 2x40
EndSplineSet
Validated: 1
EndChar

StartChar: dieresis
Encoding: 168 168 81
Width: 375
VWidth: 0
Flags: W
HStem: 469 125<30.8634 125.707 186.863 281.707>
VStem: 16 125<483.863 578.707> 172 125<483.863 578.707>
LayerCount: 2
Fore
SplineSet
78 594 m 0
 113 594 141 566 141 531 c 0
 141 496 113 469 78 469 c 0
 43 469 16 496 16 531 c 0
 16 566 43 594 78 594 c 0
234 594 m 0
 269 594 297 566 297 531 c 0
 297 496 269 469 234 469 c 0
 199 469 172 496 172 531 c 0
 172 566 199 594 234 594 c 0
EndSplineSet
Validated: 1
EndChar

StartChar: Agrave
Encoding: 192 192 82
Width: 375
VWidth: 0
Flags: W
HStem: -16 21G<-16 78 234 328> 109 94<99 214> 621 20G<111 201>
VStem: -16 94<0 97.375> 234 94<0 97.375>
LayerCount: 2
Fore
SplineSet
140 841 m 1
 239 741 l 1
 239 720 l 1
 194 675 l 1
 173 675 l 1
 73 774 l 1
 73 796 l 1
 118 841 l 1
 140 841 l 1
125 641 m 1
 188 641 l 1
 201 632 l 1
 234 566 328 254 328 0 c 1
 312 -16 l 1
 250 -16 l 1
 234 0 l 1
 234 31 233 69 228 109 c 1
 85 109 l 1
 80 67 78 31 78 0 c 1
 62 -16 l 1
 0 -16 l 1
 -16 0 l 1
 -16 254 78 566 111 632 c 1
 125 641 l 1
156 478 m 1
 133 392 113 292 99 203 c 1
 214 203 l 1
 200 294 179 393 156 478 c 1
EndSplineSet
Validated: 1
EndChar

StartChar: Aacute
Encoding: 193 193 83
Width: 375
VWidth: 0
Flags: W
HStem: -16 21G<-16 78 234 328> 109 94<99 214> 621 20G<111 201>
VStem: -16 94<0 97.375> 234 94<0 97.375>
LayerCount: 2
Fore
SplineSet
194 841 m 1
 239 796 l 1
 239 774 l 1
 140 675 l 1
 118 675 l 1
 73 720 l 1
 73 741 l 1
 173 841 l 1
 194 841 l 1
125 641 m 1
 188 641 l 1
 201 632 l 1
 234 566 328 254 328 0 c 1
 312 -16 l 1
 250 -16 l 1
 234 0 l 1
 234 31 233 69 228 109 c 1
 85 109 l 1
 80 67 78 31 78 0 c 1
 62 -16 l 1
 0 -16 l 1
 -16 0 l 1
 -16 254 78 566 111 632 c 1
 125 641 l 1
156 478 m 1
 133 392 113 292 99 203 c 1
 214 203 l 1
 200 294 179 393 156 478 c 1
EndSplineSet
Validated: 1
EndChar

StartChar: Acircumflex
Encoding: 194 194 84
Width: 375
VWidth: 0
Flags: W
HStem: -16 21G<-16 78 234 328> 109 94<99 214> 621 20G<111 201>
VStem: -16 94<0 97.375> 234 94<0 97.375>
LayerCount: 2
Fore
SplineSet
167 839 m 1
 261 745 l 1
 261 724 l 1
 217 680 l 1
 195 680 l 1
 156 718 l 1
 117 680 l 1
 96 680 l 1
 52 724 l 1
 52 745 l 1
 146 839 l 1
 167 839 l 1
125 641 m 1
 188 641 l 1
 201 632 l 1
 234 566 328 254 328 0 c 1
 312 -16 l 1
 250 -16 l 1
 234 0 l 1
 234 31 233 69 228 109 c 1
 85 109 l 1
 80 67 78 31 78 0 c 1
 62 -16 l 1
 0 -16 l 1
 -16 0 l 1
 -16 254 78 566 111 632 c 1
 125 641 l 1
156 478 m 1
 133 392 113 292 99 203 c 1
 214 203 l 1
 200 294 179 393 156 478 c 1
EndSplineSet
Validated: 1
EndChar

StartChar: Atilde
Encoding: 195 195 85
Width: 375
VWidth: 0
Flags: W
HStem: -16 21G<-16 78 234 328> 109 94<99 214> 621 20G<111 201> 667 94<191.779 229.498> 739 94<84 119.646>
VStem: -16 100<0 97.375 721 738.534> 229 99<0 97.375 761.466 779>
LayerCount: 2
Fore
SplineSet
102 833 m 2xee
 104 833 l 0xee
 147 833 180 805 198 771 c 1
 202 764 206 761 211 761 c 0
 214 761 216 761 220 763 c 1
 229 768 229 771 229 775 c 0
 229 779 l 1
 236 798 l 1
 300 828 l 1
 321 820 l 1
 326 808 328 796 328 782 c 0
 328 742 306 702 261 680 c 1
 243 671 226 667 210 667 c 0xf6
 166 667 131 695 114 729 c 1
 111 736 107 739 102 739 c 0
 99 739 97 739 93 737 c 1
 84 732 84 729 84 725 c 0
 84 721 l 1
 76 702 l 1
 13 672 l 1
 -9 680 l 1
 -14 692 -16 704 -16 718 c 0
 -16 758 8 798 52 820 c 1
 63 826 72 830 81 831 c 1
 91 834 96 833 102 833 c 2xee
125 641 m 1
 188 641 l 1
 201 632 l 1
 234 566 328 254 328 0 c 1
 312 -16 l 1
 250 -16 l 1
 234 0 l 1
 234 31 233 69 228 109 c 1
 85 109 l 1
 80 67 78 31 78 0 c 1
 62 -16 l 1
 0 -16 l 1
 -16 0 l 1
 -16 254 78 566 111 632 c 1
 125 641 l 1
156 478 m 1
 133 392 113 292 99 203 c 1
 214 203 l 1
 200 294 179 393 156 478 c 1
EndSplineSet
Validated: 1
EndChar

StartChar: Adieresis
Encoding: 196 196 86
Width: 375
VWidth: 0
Flags: W
HStem: -16 21G<-16 78 234 328> 109 94<99 214> 621 20G<111 201> 656 125<30.8634 125.707 186.863 281.707>
VStem: -16 94<0 97.375> 16 125<671.293 766.137> 172 125<671.293 766.137> 234 94<0 97.375>
LayerCount: 2
Fore
SplineSet
78 781 m 0xf8
 113 781 141 754 141 719 c 0xf4
 141 684 113 656 78 656 c 0xf8
 43 656 16 684 16 719 c 0xf4
 16 754 43 781 78 781 c 0xf8
234 781 m 0xf1
 269 781 297 754 297 719 c 0xf2
 297 684 269 656 234 656 c 0xf1
 199 656 172 684 172 719 c 0xf2
 172 754 199 781 234 781 c 0xf1
125 641 m 1
 188 641 l 1
 201 632 l 1
 234 566 328 254 328 0 c 1
 312 -16 l 1
 250 -16 l 1
 234 0 l 1
 234 31 233 69 228 109 c 1
 85 109 l 1
 80 67 78 31 78 0 c 1
 62 -16 l 1
 0 -16 l 1
 -16 0 l 1xf9
 -16 254 78 566 111 632 c 1
 125 641 l 1
156 478 m 1
 133 392 113 292 99 203 c 1
 214 203 l 1
 200 294 179 393 156 478 c 1
EndSplineSet
Validated: 1
EndChar

StartChar: Ccedilla
Encoding: 199 199 87
Width: 375
VWidth: 0
Flags: W
HStem: -172 102<73.2857 154.962> -23 101<110.6 155.921> 547 101<104.846 207.362>
VStem: -23 101<107.971 515.291> 156 94<-68.0958 -22.966> 224 93<93.3166 112 513 531.683>
LayerCount: 2
Fore
SplineSet
156 648 m 0xf8
 248 648 295 602 317 531 c 1
 311 513 l 1
 247 477 l 1
 224 486 l 1xf4
 214 529 197 547 156 547 c 0
 81 547 78 475 78 312 c 0
 78 149 81 78 156 78 c 0xf8
 197 78 214 96 224 139 c 1
 247 148 l 1
 311 112 l 1
 317 95 l 1xf4
 304 51 281 15 243 -5 c 1
 248 -20 250 -32 250 -47 c 0
 250 -110 195 -172 109 -172 c 0
 85 -172 63 -166 44 -156 c 1
 37 -135 l 1
 71 -77 l 1
 87 -69 l 1
 92 -70 99 -70 109 -70 c 0
 148 -70 156 -65 156 -47 c 0
 156 -34 149 -25 146 -23 c 1
 -17 -16 -23 132 -23 312 c 0
 -23 496 -17 648 156 648 c 0xf8
EndSplineSet
Validated: 1
EndChar

StartChar: Egrave
Encoding: 200 200 88
Width: 375
VWidth: 0
Flags: W
HStem: -16 94<78 312> 297 94<78 250> 547 94<78 312>
VStem: -16 94<78 297 391 547>
LayerCount: 2
Fore
SplineSet
140 841 m 1
 239 741 l 1
 239 720 l 1
 194 675 l 1
 173 675 l 1
 73 774 l 1
 73 796 l 1
 118 841 l 1
 140 841 l 1
0 641 m 1
 312 641 l 1
 328 625 l 1
 328 562 l 1
 312 547 l 1
 78 547 l 1
 78 391 l 1
 250 391 l 1
 266 375 l 1
 266 312 l 1
 250 297 l 1
 78 297 l 1
 78 78 l 1
 312 78 l 1
 328 62 l 1
 328 0 l 1
 312 -16 l 1
 0 -16 l 1
 -16 0 l 1
 -16 625 l 1
 0 641 l 1
EndSplineSet
Validated: 1
EndChar

StartChar: Eacute
Encoding: 201 201 89
Width: 375
VWidth: 0
Flags: W
HStem: -16 94<78 312> 297 94<78 250> 547 94<78 312>
VStem: -16 94<78 297 391 547>
LayerCount: 2
Fore
SplineSet
194 841 m 1
 239 796 l 1
 239 774 l 1
 140 675 l 1
 118 675 l 1
 73 720 l 1
 73 741 l 1
 173 841 l 1
 194 841 l 1
0 641 m 1
 312 641 l 1
 328 625 l 1
 328 562 l 1
 312 547 l 1
 78 547 l 1
 78 391 l 1
 250 391 l 1
 266 375 l 1
 266 312 l 1
 250 297 l 1
 78 297 l 1
 78 78 l 1
 312 78 l 1
 328 62 l 1
 328 0 l 1
 312 -16 l 1
 0 -16 l 1
 -16 0 l 1
 -16 625 l 1
 0 641 l 1
EndSplineSet
Validated: 1
EndChar

StartChar: Ecircumflex
Encoding: 202 202 90
Width: 375
VWidth: 0
Flags: W
HStem: -16 94<78 312> 297 94<78 250> 547 94<78 312>
VStem: -16 94<78 297 391 547>
LayerCount: 2
Fore
SplineSet
167 839 m 1
 261 745 l 1
 261 724 l 1
 217 680 l 1
 195 680 l 1
 156 718 l 1
 117 680 l 1
 96 680 l 1
 52 724 l 1
 52 745 l 1
 146 839 l 1
 167 839 l 1
0 641 m 1
 312 641 l 1
 328 625 l 1
 328 562 l 1
 312 547 l 1
 78 547 l 1
 78 391 l 1
 250 391 l 1
 266 375 l 1
 266 312 l 1
 250 297 l 1
 78 297 l 1
 78 78 l 1
 312 78 l 1
 328 62 l 1
 328 0 l 1
 312 -16 l 1
 0 -16 l 1
 -16 0 l 1
 -16 625 l 1
 0 641 l 1
EndSplineSet
Validated: 1
EndChar

StartChar: Edieresis
Encoding: 203 203 91
Width: 375
VWidth: 0
Flags: W
HStem: -16 94<78 312> 297 94<78 250> 547 94<78 312> 656 125<30.8634 125.707 186.863 281.707>
VStem: -16 94<78 297 391 547> 16 125<671.293 766.137> 172 125<671.293 766.137>
LayerCount: 2
Fore
SplineSet
78 781 m 0xfa
 113 781 141 754 141 719 c 0xf6
 141 684 113 656 78 656 c 0xfa
 43 656 16 684 16 719 c 0xf6
 16 754 43 781 78 781 c 0xfa
234 781 m 0
 269 781 297 754 297 719 c 0
 297 684 269 656 234 656 c 0
 199 656 172 684 172 719 c 0
 172 754 199 781 234 781 c 0
0 641 m 1
 312 641 l 1
 328 625 l 1
 328 562 l 1
 312 547 l 1
 78 547 l 1
 78 391 l 1
 250 391 l 1
 266 375 l 1
 266 312 l 1
 250 297 l 1
 78 297 l 1
 78 78 l 1
 312 78 l 1
 328 62 l 1
 328 0 l 1
 312 -16 l 1
 0 -16 l 1
 -16 0 l 1
 -16 625 l 1xfa
 0 641 l 1
EndSplineSet
Validated: 1
EndChar

StartChar: Igrave
Encoding: 204 204 92
Width: 375
VWidth: 0
Flags: W
HStem: -16 94<31 109 203 281> 547 94<31 109 203 281>
VStem: 109 94<78 547>
LayerCount: 2
Fore
SplineSet
140 841 m 1
 239 741 l 1
 239 720 l 1
 194 675 l 1
 173 675 l 1
 73 774 l 1
 73 796 l 1
 118 841 l 1
 140 841 l 1
31 641 m 1
 281 641 l 1
 297 625 l 1
 297 562 l 1
 281 547 l 1
 203 547 l 1
 203 78 l 1
 281 78 l 1
 297 62 l 1
 297 0 l 1
 281 -16 l 1
 31 -16 l 1
 16 0 l 1
 16 62 l 1
 31 78 l 1
 109 78 l 1
 109 547 l 1
 31 547 l 1
 16 562 l 1
 16 625 l 1
 31 641 l 1
EndSplineSet
Validated: 1
EndChar

StartChar: Iacute
Encoding: 205 205 93
Width: 375
VWidth: 0
Flags: W
HStem: -16 94<31 109 203 281> 547 94<31 109 203 281>
VStem: 109 94<78 547>
LayerCount: 2
Fore
SplineSet
194 841 m 1
 239 796 l 1
 239 774 l 1
 140 675 l 1
 118 675 l 1
 73 720 l 1
 73 741 l 1
 173 841 l 1
 194 841 l 1
31 641 m 1
 281 641 l 1
 297 625 l 1
 297 562 l 1
 281 547 l 1
 203 547 l 1
 203 78 l 1
 281 78 l 1
 297 62 l 1
 297 0 l 1
 281 -16 l 1
 31 -16 l 1
 16 0 l 1
 16 62 l 1
 31 78 l 1
 109 78 l 1
 109 547 l 1
 31 547 l 1
 16 562 l 1
 16 625 l 1
 31 641 l 1
EndSplineSet
Validated: 1
EndChar

StartChar: Icircumflex
Encoding: 206 206 94
Width: 375
VWidth: 0
Flags: W
HStem: -16 94<31 109 203 281> 547 94<31 109 203 281>
VStem: 109 94<78 547>
LayerCount: 2
Fore
SplineSet
167 839 m 1
 261 745 l 1
 261 724 l 1
 217 680 l 1
 195 680 l 1
 156 718 l 1
 117 680 l 1
 96 680 l 1
 52 724 l 1
 52 745 l 1
 146 839 l 1
 167 839 l 1
31 641 m 1
 281 641 l 1
 297 625 l 1
 297 562 l 1
 281 547 l 1
 203 547 l 1
 203 78 l 1
 281 78 l 1
 297 62 l 1
 297 0 l 1
 281 -16 l 1
 31 -16 l 1
 16 0 l 1
 16 62 l 1
 31 78 l 1
 109 78 l 1
 109 547 l 1
 31 547 l 1
 16 562 l 1
 16 625 l 1
 31 641 l 1
EndSplineSet
Validated: 1
EndChar

StartChar: Idieresis
Encoding: 207 207 95
Width: 375
VWidth: 0
Flags: W
HStem: -16 94<31 109 203 281> 547 94<31 109 203 281> 656 125<30.8634 125.707 186.863 281.707>
VStem: 16 125<671.293 766.137> 172 125<671.293 766.137>
LayerCount: 2
Fore
SplineSet
78 781 m 0
 113 781 141 754 141 719 c 0
 141 684 113 656 78 656 c 0
 43 656 16 684 16 719 c 0
 16 754 43 781 78 781 c 0
234 781 m 0
 269 781 297 754 297 719 c 0
 297 684 269 656 234 656 c 0
 199 656 172 684 172 719 c 0
 172 754 199 781 234 781 c 0
31 641 m 1
 281 641 l 1
 297 625 l 1
 297 562 l 1
 281 547 l 1
 203 547 l 1
 203 78 l 1
 281 78 l 1
 297 62 l 1
 297 0 l 1
 281 -16 l 1
 31 -16 l 1
 16 0 l 1
 16 62 l 1
 31 78 l 1
 109 78 l 1
 109 547 l 1
 31 547 l 1
 16 562 l 1
 16 625 l 1
 31 641 l 1
EndSplineSet
Validated: 1
EndChar

StartChar: Ntilde
Encoding: 209 209 96
Width: 375
VWidth: 0
Flags: W
HStem: -16 21G<-16 78 234 328> 621 20G<-16 76 234 328> 667 94<191.779 229.498> 739 94<84 119.646>
VStem: -16 94<0 443 721 738.534> 234 94<0 184 369 625 761.466 779>
LayerCount: 2
Fore
SplineSet
102 833 m 2xdc
 104 833 l 0xdc
 147 833 180 805 198 771 c 1
 202 764 206 761 211 761 c 0
 214 761 216 761 220 763 c 1
 229 768 229 771 229 775 c 0
 229 779 l 1
 236 798 l 1
 300 828 l 1
 321 820 l 1
 326 808 328 796 328 782 c 0
 328 742 306 702 261 680 c 1
 243 671 226 667 210 667 c 0xec
 166 667 131 695 114 729 c 1
 111 736 107 739 102 739 c 0
 99 739 97 739 93 737 c 1
 84 732 84 729 84 725 c 0
 84 721 l 1
 76 702 l 1
 13 672 l 1
 -9 680 l 1
 -14 692 -16 704 -16 718 c 0
 -16 758 8 798 52 820 c 1
 63 826 72 830 81 831 c 1
 91 834 96 833 102 833 c 2xdc
0 641 m 1
 62 641 l 1
 76 633 l 1
 234 369 l 1
 234 625 l 1
 250 641 l 1
 312 641 l 1
 328 625 l 1
 328 0 l 1
 312 -16 l 1
 250 -16 l 1
 234 0 l 1
 234 184 l 1
 78 443 l 1
 78 0 l 1
 62 -16 l 1
 0 -16 l 1
 -16 0 l 1
 -16 625 l 1
 0 641 l 1
EndSplineSet
Validated: 1
EndChar

StartChar: Ograve
Encoding: 210 210 97
Width: 375
VWidth: 0
Flags: W
HStem: -23 101<104.846 207.17> 547 101<104.846 207.17>
VStem: -23 101<109.242 515.291> 234 102<109.242 515.291>
LayerCount: 2
Fore
SplineSet
140 841 m 1
 239 741 l 1
 239 720 l 1
 194 675 l 1
 173 675 l 1
 73 774 l 1
 73 796 l 1
 118 841 l 1
 140 841 l 1
156 648 m 0
 329 648 336 496 336 312 c 0
 336 128 329 -23 156 -23 c 0
 -17 -23 -23 128 -23 312 c 0
 -23 496 -17 648 156 648 c 0
156 547 m 0
 81 547 78 475 78 312 c 0
 78 149 81 78 156 78 c 0
 231 78 234 149 234 312 c 0
 234 475 231 547 156 547 c 0
EndSplineSet
Validated: 1
EndChar

StartChar: Oacute
Encoding: 211 211 98
Width: 375
VWidth: 0
Flags: W
HStem: -23 101<104.846 207.17> 547 101<104.846 207.17>
VStem: -23 101<109.242 515.291> 234 102<109.242 515.291>
LayerCount: 2
Fore
SplineSet
194 841 m 1
 239 796 l 1
 239 774 l 1
 140 675 l 1
 118 675 l 1
 73 720 l 1
 73 741 l 1
 173 841 l 1
 194 841 l 1
156 648 m 0
 329 648 336 496 336 312 c 0
 336 128 329 -23 156 -23 c 0
 -17 -23 -23 128 -23 312 c 0
 -23 496 -17 648 156 648 c 0
156 547 m 0
 81 547 78 475 78 312 c 0
 78 149 81 78 156 78 c 0
 231 78 234 149 234 312 c 0
 234 475 231 547 156 547 c 0
EndSplineSet
Validated: 1
EndChar

StartChar: Ocircumflex
Encoding: 212 212 99
Width: 375
VWidth: 0
Flags: W
HStem: -23 101<104.846 207.17> 547 101<104.846 207.17>
VStem: -23 101<109.242 515.291> 234 102<109.242 515.291>
LayerCount: 2
Fore
SplineSet
167 839 m 1
 261 745 l 1
 261 724 l 1
 217 680 l 1
 195 680 l 1
 156 718 l 1
 117 680 l 1
 96 680 l 1
 52 724 l 1
 52 745 l 1
 146 839 l 1
 167 839 l 1
156 648 m 0
 329 648 336 496 336 312 c 0
 336 128 329 -23 156 -23 c 0
 -17 -23 -23 128 -23 312 c 0
 -23 496 -17 648 156 648 c 0
156 547 m 0
 81 547 78 475 78 312 c 0
 78 149 81 78 156 78 c 0
 231 78 234 149 234 312 c 0
 234 475 231 547 156 547 c 0
EndSplineSet
Validated: 1
EndChar

StartChar: Odieresis
Encoding: 214 214 100
Width: 375
VWidth: 0
Flags: W
HStem: -23 101<104.846 207.17> 547 101<104.846 207.17> 656 125<30.8634 125.707 186.863 281.707>
VStem: -23 101<109.242 515.291> 16 125<671.293 766.137> 172 125<671.293 766.137> 234 102<109.242 515.291>
LayerCount: 2
Fore
SplineSet
78 781 m 0xf0
 113 781 141 754 141 719 c 0xe8
 141 684 113 656 78 656 c 0xf0
 43 656 16 684 16 719 c 0xe8
 16 754 43 781 78 781 c 0xf0
234 781 m 0xe2
 269 781 297 754 297 719 c 0xe4
 297 684 269 656 234 656 c 0xe2
 199 656 172 684 172 719 c 0xe4
 172 754 199 781 234 781 c 0xe2
156 648 m 0
 329 648 336 496 336 312 c 0
 336 128 329 -23 156 -23 c 0
 -17 -23 -23 128 -23 312 c 0xf2
 -23 496 -17 648 156 648 c 0
156 547 m 0
 81 547 78 475 78 312 c 0
 78 149 81 78 156 78 c 0
 231 78 234 149 234 312 c 0
 234 475 231 547 156 547 c 0
EndSplineSet
Validated: 1
EndChar

StartChar: Otilde
Encoding: 213 213 101
Width: 375
VWidth: 0
Flags: W
HStem: -23 101<104.846 207.17> 547 101<104.846 207.17> 667 94<191.779 229.498> 739 94<84 119.646>
VStem: -23 101<109.242 515.291> 234 102<109.242 515.291>
LayerCount: 2
Fore
SplineSet
102 833 m 2xdc
 104 833 l 0xdc
 147 833 180 805 198 771 c 1
 202 764 206 761 211 761 c 0
 214 761 216 761 220 763 c 1
 229 768 229 771 229 775 c 0
 229 779 l 1
 236 798 l 1
 300 828 l 1
 321 820 l 1
 326 808 328 796 328 782 c 0
 328 742 306 702 261 680 c 1
 243 671 226 667 210 667 c 0xec
 166 667 131 695 114 729 c 1
 111 736 107 739 102 739 c 0
 99 739 97 739 93 737 c 1
 84 732 84 729 84 725 c 0
 84 721 l 1
 76 702 l 1
 13 672 l 1
 -9 680 l 1
 -14 692 -16 704 -16 718 c 0
 -16 758 8 798 52 820 c 1
 63 826 72 830 81 831 c 1
 91 834 96 833 102 833 c 2xdc
156 648 m 0
 329 648 336 496 336 312 c 0
 336 128 329 -23 156 -23 c 0
 -17 -23 -23 128 -23 312 c 0
 -23 496 -17 648 156 648 c 0
156 547 m 0
 81 547 78 475 78 312 c 0
 78 149 81 78 156 78 c 0
 231 78 234 149 234 312 c 0
 234 475 231 547 156 547 c 0
EndSplineSet
Validated: 1
EndChar

StartChar: Ugrave
Encoding: 217 217 102
Width: 375
VWidth: 0
Flags: W
HStem: -23 101<104.992 207.008> 621 20G<-16 78 234 328>
VStem: -16 94<110.524 625> 234 94<110.524 625>
LayerCount: 2
Fore
SplineSet
140 841 m 1
 239 741 l 1
 239 720 l 1
 194 675 l 1
 173 675 l 1
 73 774 l 1
 73 796 l 1
 118 841 l 1
 140 841 l 1
0 641 m 1
 62 641 l 1
 78 625 l 1
 78 312 l 0
 78 288 77 262 77 237 c 0
 77 144 88 78 156 78 c 0
 224 78 235 144 235 237 c 0
 235 262 234 288 234 312 c 0
 234 625 l 1
 250 641 l 1
 312 641 l 1
 328 625 l 1
 328 312 l 0
 328 307 l 0
 328 127 327 -23 156 -23 c 0
 -15 -23 -16 127 -16 307 c 0
 -16 312 l 0
 -16 625 l 1
 0 641 l 1
EndSplineSet
Validated: 1
EndChar

StartChar: Uacute
Encoding: 218 218 103
Width: 375
VWidth: 0
Flags: W
HStem: -23 101<104.992 207.008> 621 20G<-16 78 234 328>
VStem: -16 94<110.524 625> 234 94<110.524 625>
LayerCount: 2
Fore
SplineSet
194 841 m 1
 239 796 l 1
 239 774 l 1
 140 675 l 1
 118 675 l 1
 73 720 l 1
 73 741 l 1
 173 841 l 1
 194 841 l 1
0 641 m 1
 62 641 l 1
 78 625 l 1
 78 312 l 0
 78 288 77 262 77 237 c 0
 77 144 88 78 156 78 c 0
 224 78 235 144 235 237 c 0
 235 262 234 288 234 312 c 0
 234 625 l 1
 250 641 l 1
 312 641 l 1
 328 625 l 1
 328 312 l 0
 328 307 l 0
 328 127 327 -23 156 -23 c 0
 -15 -23 -16 127 -16 307 c 0
 -16 312 l 0
 -16 625 l 1
 0 641 l 1
EndSplineSet
Validated: 1
EndChar

StartChar: Ucircumflex
Encoding: 219 219 104
Width: 375
VWidth: 0
Flags: W
HStem: -23 101<104.992 207.008> 621 20G<-16 78 234 328>
VStem: -16 94<110.524 625> 234 94<110.524 625>
LayerCount: 2
Fore
SplineSet
167 839 m 1
 261 745 l 1
 261 724 l 1
 217 680 l 1
 195 680 l 1
 156 718 l 1
 117 680 l 1
 96 680 l 1
 52 724 l 1
 52 745 l 1
 146 839 l 1
 167 839 l 1
0 641 m 1
 62 641 l 1
 78 625 l 1
 78 312 l 0
 78 288 77 262 77 237 c 0
 77 144 88 78 156 78 c 0
 224 78 235 144 235 237 c 0
 235 262 234 288 234 312 c 0
 234 625 l 1
 250 641 l 1
 312 641 l 1
 328 625 l 1
 328 312 l 0
 328 307 l 0
 328 127 327 -23 156 -23 c 0
 -15 -23 -16 127 -16 307 c 0
 -16 312 l 0
 -16 625 l 1
 0 641 l 1
EndSplineSet
Validated: 1
EndChar

StartChar: Udieresis
Encoding: 220 220 105
Width: 375
VWidth: 0
Flags: W
HStem: -23 101<104.992 207.008> 621 20G<-16 78 234 328> 656 125<30.8634 125.707 186.863 281.707>
VStem: -16 94<110.524 625> 16 125<671.293 766.137> 172 125<671.293 766.137> 234 94<110.524 625>
LayerCount: 2
Fore
SplineSet
-16 312 m 2xf2
 -16 625 l 1
 0 641 l 1
 62 641 l 1
 78 625 l 1
 78 312 l 0
 78 288 77 262 77 237 c 0
 77 144 88 78 156 78 c 0
 224 78 235 144 235 237 c 0
 235 262 234 288 234 312 c 0
 234 625 l 1
 250 641 l 1
 312 641 l 1
 328 625 l 1
 328 312 l 0
 328 307 l 0
 328 127 327 -23 156 -23 c 0
 -15 -23 -16 127 -16 307 c 0
 -16 312 l 2xf2
78 781 m 0
 113 781 141 754 141 719 c 0xe8
 141 684 113 656 78 656 c 0xf0
 43 656 16 684 16 719 c 0xe8
 16 754 43 781 78 781 c 0
234 781 m 0xe2
 269 781 297 754 297 719 c 0xe4
 297 684 269 656 234 656 c 0xe2
 199 656 172 684 172 719 c 0xe4
 172 754 199 781 234 781 c 0xe2
EndSplineSet
Validated: 1
EndChar

StartChar: Yacute
Encoding: 221 221 106
Width: 375
VWidth: 0
Flags: W
HStem: -16 21G<109 203> 621 20G<-16 78 234 328>
VStem: -16 94<474.859 625> 109 94<0 285.734> 234 94<474.789 625>
CounterMasks: 1 38
LayerCount: 2
Fore
SplineSet
194 841 m 1
 239 796 l 1
 239 774 l 1
 140 675 l 1
 118 675 l 1
 73 720 l 1
 73 741 l 1
 173 841 l 1
 194 841 l 1
0 641 m 1
 62 641 l 1
 78 625 l 1
 78 562 l 0
 78 505 118 429 156 356 c 1
 194 430 234 504 234 562 c 0
 234 625 l 1
 250 641 l 1
 312 641 l 1
 328 625 l 1
 328 562 l 0
 328 462 235 309 203 246 c 1
 203 0 l 1
 188 -16 l 1
 125 -16 l 1
 109 0 l 1
 109 246 l 1
 76 310 -16 462 -16 562 c 0
 -16 625 l 1
 0 641 l 1
EndSplineSet
Validated: 1
EndChar

StartChar: agrave
Encoding: 224 224 107
Width: 375
VWidth: 0
Flags: W
HStem: -23 101<82.8432 233.497> -16 21G<239 328> 180 93<87.0779 234> 359 102<85.2621 218.129>
VStem: -23 101<84.6795 170.355> 234 94<85.1755 182 274.393 339.733>
LayerCount: 2
Fore
SplineSet
140 653 m 1x3c
 239 554 l 1
 239 532 l 1
 194 487 l 1
 173 487 l 1
 73 587 l 1
 73 608 l 1
 118 653 l 1
 140 653 l 1x3c
239 -5 m 1
 209 -18 172 -23 148 -23 c 0xbc
 85 -23 -23 -6 -23 125 c 0
 -23 256 92 273 148 273 c 0
 204 273 229 275 234 277 c 1
 234 278 234 279 234 281 c 0
 234 336 211 359 156 359 c 0
 130 359 112 354 100 344 c 1
 82 342 l 1
 26 374 l 1
 21 397 l 1
 51 437 99 461 156 461 c 0
 259 461 328 383 328 281 c 0
 328 0 l 1
 312 -16 l 1
 250 -16 l 1x7c
 239 -5 l 1
234 182 m 1
 221 180 213 179 201 179 c 0
 182 179 163 180 148 180 c 0
 85 180 78 157 78 125 c 0
 78 89 88 78 148 78 c 0
 187 78 234 84 234 102 c 0
 234 182 l 1
EndSplineSet
Validated: 1
EndChar

StartChar: aacute
Encoding: 225 225 108
Width: 375
VWidth: 0
Flags: W
HStem: -23 101<82.8432 233.497> -16 21G<239 328> 180 93<87.0779 234> 359 102<85.2621 218.129>
VStem: -23 101<84.6795 170.355> 234 94<85.1755 182 274.393 339.733>
LayerCount: 2
Fore
SplineSet
194 653 m 1x3c
 239 608 l 1
 239 587 l 1
 140 487 l 1
 118 487 l 1
 73 532 l 1
 73 554 l 1
 173 653 l 1
 194 653 l 1x3c
239 -5 m 1
 209 -18 172 -23 148 -23 c 0xbc
 85 -23 -23 -6 -23 125 c 0
 -23 256 92 273 148 273 c 0
 204 273 229 275 234 277 c 1
 234 278 234 279 234 281 c 0
 234 336 211 359 156 359 c 0
 130 359 112 354 100 344 c 1
 82 342 l 1
 26 374 l 1
 21 397 l 1
 51 437 99 461 156 461 c 0
 259 461 328 383 328 281 c 0
 328 0 l 1
 312 -16 l 1
 250 -16 l 1x7c
 239 -5 l 1
234 182 m 1
 221 180 213 179 201 179 c 0
 182 179 163 180 148 180 c 0
 85 180 78 157 78 125 c 0
 78 89 88 78 148 78 c 0
 187 78 234 84 234 102 c 0
 234 182 l 1
EndSplineSet
Validated: 1
EndChar

StartChar: acircumflex
Encoding: 226 226 109
Width: 375
VWidth: 0
Flags: W
HStem: -23 101<82.8432 233.497> -16 21G<239 328> 180 93<87.0779 234> 359 102<85.2621 218.129>
VStem: -23 101<84.6795 170.355> 234 94<85.1755 182 274.393 339.733>
LayerCount: 2
Fore
SplineSet
167 651 m 1x3c
 261 558 l 1
 261 536 l 1
 217 492 l 1
 195 492 l 1
 156 530 l 1
 117 492 l 1
 96 492 l 1
 52 536 l 1
 52 558 l 1
 146 651 l 1
 167 651 l 1x3c
239 -5 m 1
 209 -18 172 -23 148 -23 c 0xbc
 85 -23 -23 -6 -23 125 c 0
 -23 256 92 273 148 273 c 0
 204 273 229 275 234 277 c 1
 234 278 234 279 234 281 c 0
 234 336 211 359 156 359 c 0
 130 359 112 354 100 344 c 1
 82 342 l 1
 26 374 l 1
 21 397 l 1
 51 437 99 461 156 461 c 0
 259 461 328 383 328 281 c 0
 328 0 l 1
 312 -16 l 1
 250 -16 l 1x7c
 239 -5 l 1
234 182 m 1
 221 180 213 179 201 179 c 0
 182 179 163 180 148 180 c 0
 85 180 78 157 78 125 c 0
 78 89 88 78 148 78 c 0
 187 78 234 84 234 102 c 0
 234 182 l 1
EndSplineSet
Validated: 1
EndChar

StartChar: atilde
Encoding: 227 227 110
Width: 375
VWidth: 0
Flags: W
HStem: -23 101<82.8432 233.497> -16 21G<239 328> 180 93<87.0779 234> 359 102<85.2621 218.129> 479 94<191.779 229.498> 552 94<84 119.646>
VStem: -23 101<84.6795 170.355> 234 94<85.1755 182 274.393 339.733 574.388 592>
LayerCount: 2
Fore
SplineSet
102 646 m 2x37
 104 646 l 0x37
 147 646 180 617 198 583 c 1
 202 576 206 573 211 573 c 0
 214 573 216 573 220 575 c 1
 229 580 229 584 229 588 c 0
 229 592 l 1
 236 610 l 1
 300 641 l 1
 321 633 l 1
 326 621 328 609 328 595 c 0
 328 555 306 514 261 492 c 1
 243 483 226 479 210 479 c 0x3b
 166 479 131 508 114 542 c 1
 111 549 107 552 102 552 c 0
 99 552 97 552 93 550 c 1
 84 545 84 541 84 537 c 0
 84 533 l 1
 76 515 l 1
 13 484 l 1
 -9 492 l 1
 -14 504 -16 516 -16 530 c 0
 -16 570 8 611 52 633 c 1
 63 639 72 643 81 644 c 1
 91 647 96 646 102 646 c 2x37
239 -5 m 1
 209 -18 172 -23 148 -23 c 0xb3
 85 -23 -23 -6 -23 125 c 0
 -23 256 92 273 148 273 c 0
 204 273 229 275 234 277 c 1
 234 278 234 279 234 281 c 0
 234 336 211 359 156 359 c 0
 130 359 112 354 100 344 c 1
 82 342 l 1
 26 374 l 1
 21 397 l 1
 51 437 99 461 156 461 c 0
 259 461 328 383 328 281 c 0
 328 0 l 1
 312 -16 l 1
 250 -16 l 1x73
 239 -5 l 1
234 182 m 1
 221 180 213 179 201 179 c 0
 182 179 163 180 148 180 c 0
 85 180 78 157 78 125 c 0
 78 89 88 78 148 78 c 0
 187 78 234 84 234 102 c 0
 234 182 l 1
EndSplineSet
Validated: 1
EndChar

StartChar: adieresis
Encoding: 228 228 111
Width: 375
VWidth: 0
Flags: W
HStem: -23 101<82.8432 233.497> -16 21G<239 328> 180 93<87.0779 234> 359 102<85.2621 218.129> 469 125<30.8634 125.707 186.863 281.707>
VStem: -23 101<84.6795 170.355> 16 125<483.863 578.707> 172 125<483.863 578.707> 234 94<85.1755 182 274.393 339.733>
LayerCount: 2
Fore
SplineSet
78 594 m 0x3c
 113 594 141 566 141 531 c 0x3a
 141 496 113 469 78 469 c 0x3c
 43 469 16 496 16 531 c 0x3a
 16 566 43 594 78 594 c 0x3c
234 594 m 0x3880
 269 594 297 566 297 531 c 0x39
 297 496 269 469 234 469 c 0x3880
 199 469 172 496 172 531 c 0x39
 172 566 199 594 234 594 c 0x3880
239 -5 m 1
 209 -18 172 -23 148 -23 c 0xbc80
 85 -23 -23 -6 -23 125 c 0
 -23 256 92 273 148 273 c 0
 204 273 229 275 234 277 c 1
 234 278 234 279 234 281 c 0
 234 336 211 359 156 359 c 0
 130 359 112 354 100 344 c 1
 82 342 l 1
 26 374 l 1
 21 397 l 1
 51 437 99 461 156 461 c 0
 259 461 328 383 328 281 c 0
 328 0 l 1
 312 -16 l 1
 250 -16 l 1x7c80
 239 -5 l 1
234 182 m 1
 221 180 213 179 201 179 c 0
 182 179 163 180 148 180 c 0
 85 180 78 157 78 125 c 0
 78 89 88 78 148 78 c 0
 187 78 234 84 234 102 c 0
 234 182 l 1
EndSplineSet
Validated: 1
EndChar

StartChar: ccedilla
Encoding: 231 231 112
Width: 375
VWidth: 0
Flags: W
HStem: -172 102<73.2857 154.962> -23 101<100.84 155.921> 359 102<98.3553 213.323>
VStem: -23 101<99.415 337.303> 156 94<-68.0958 -22.8249>
LayerCount: 2
Fore
SplineSet
156 461 m 0
 251 461 302 404 323 327 c 1
 312 309 l 1
 248 291 l 1
 229 303 l 1
 221 338 205 359 156 359 c 0
 78 359 78 301 78 219 c 0
 78 137 78 78 156 78 c 0
 205 78 221 100 229 135 c 1
 248 146 l 1
 312 129 l 1
 323 110 l 1
 310 60 285 19 243 -4 c 1
 248 -19 250 -31 250 -47 c 0
 250 -110 195 -172 109 -172 c 0
 85 -172 63 -166 44 -156 c 1
 37 -135 l 1
 71 -77 l 1
 87 -69 l 1
 92 -70 99 -70 109 -70 c 0
 148 -70 156 -65 156 -47 c 0
 156 -34 149 -25 146 -23 c 1
 14 -17 -23 96 -23 219 c 0
 -23 346 18 461 156 461 c 0
EndSplineSet
Validated: 1
EndChar

StartChar: egrave
Encoding: 232 232 113
Width: 375
VWidth: 0
Flags: W
HStem: -23 101<98.0511 214.846> 172 94<79 233> 359 102<98.0511 213.982>
VStem: -23 102<97.1765 172 266 336.501>
LayerCount: 2
Fore
SplineSet
140 653 m 1
 239 554 l 1
 239 532 l 1
 194 487 l 1
 173 487 l 1
 73 587 l 1
 73 608 l 1
 118 653 l 1
 140 653 l 1
156 461 m 0
 294 461 336 346 336 219 c 0
 336 208 336 197 335 186 c 1
 319 172 l 1
 79 172 l 1
 83 113 94 78 156 78 c 0
 194 78 212 91 222 111 c 1
 239 119 l 1
 304 103 l 1
 314 82 l 1
 289 20 238 -23 156 -23 c 0
 18 -23 -23 92 -23 219 c 0
 -23 346 18 461 156 461 c 0
156 359 m 0
 94 359 83 324 79 266 c 1
 233 266 l 1
 229 325 218 359 156 359 c 0
EndSplineSet
Validated: 1
EndChar

StartChar: eacute
Encoding: 233 233 114
Width: 375
VWidth: 0
Flags: W
HStem: -23 101<98.0511 214.846> 172 94<79 233> 359 102<98.0511 213.982>
VStem: -23 102<97.1765 172 266 336.501>
LayerCount: 2
Fore
SplineSet
194 653 m 1
 239 608 l 1
 239 587 l 1
 140 487 l 1
 118 487 l 1
 73 532 l 1
 73 554 l 1
 173 653 l 1
 194 653 l 1
156 461 m 0
 294 461 336 346 336 219 c 0
 336 208 336 197 335 186 c 1
 319 172 l 1
 79 172 l 1
 83 113 94 78 156 78 c 0
 194 78 212 91 222 111 c 1
 239 119 l 1
 304 103 l 1
 314 82 l 1
 289 20 238 -23 156 -23 c 0
 18 -23 -23 92 -23 219 c 0
 -23 346 18 461 156 461 c 0
156 359 m 0
 94 359 83 324 79 266 c 1
 233 266 l 1
 229 325 218 359 156 359 c 0
EndSplineSet
Validated: 1
EndChar

StartChar: ecircumflex
Encoding: 234 234 115
Width: 375
VWidth: 0
Flags: W
HStem: -23 101<98.0511 214.846> 172 94<79 233> 359 102<98.0511 213.982>
VStem: -23 102<97.1765 172 266 336.501>
LayerCount: 2
Fore
SplineSet
167 651 m 1
 261 558 l 1
 261 536 l 1
 217 492 l 1
 195 492 l 1
 156 530 l 1
 117 492 l 1
 96 492 l 1
 52 536 l 1
 52 558 l 1
 146 651 l 1
 167 651 l 1
156 461 m 0
 294 461 336 346 336 219 c 0
 336 208 336 197 335 186 c 1
 319 172 l 1
 79 172 l 1
 83 113 94 78 156 78 c 0
 194 78 212 91 222 111 c 1
 239 119 l 1
 304 103 l 1
 314 82 l 1
 289 20 238 -23 156 -23 c 0
 18 -23 -23 92 -23 219 c 0
 -23 346 18 461 156 461 c 0
156 359 m 0
 94 359 83 324 79 266 c 1
 233 266 l 1
 229 325 218 359 156 359 c 0
EndSplineSet
Validated: 1
EndChar

StartChar: edieresis
Encoding: 235 235 116
Width: 375
VWidth: 0
Flags: W
HStem: -23 101<98.0511 214.846> 172 94<79 233> 359 102<98.0511 213.982> 469 125<30.8634 125.707 186.863 281.707>
VStem: -23 102<97.1765 172 266 336.501> 16 125<483.863 578.707> 172 125<483.863 578.707>
LayerCount: 2
Fore
SplineSet
78 594 m 0xf6
 113 594 141 566 141 531 c 0
 141 496 113 469 78 469 c 0
 43 469 16 496 16 531 c 0
 16 566 43 594 78 594 c 0xf6
234 594 m 0
 269 594 297 566 297 531 c 0
 297 496 269 469 234 469 c 0
 199 469 172 496 172 531 c 0
 172 566 199 594 234 594 c 0
156 461 m 0
 294 461 336 346 336 219 c 0
 336 208 336 197 335 186 c 1
 319 172 l 1
 79 172 l 1
 83 113 94 78 156 78 c 0
 194 78 212 91 222 111 c 1
 239 119 l 1
 304 103 l 1
 314 82 l 1
 289 20 238 -23 156 -23 c 0
 18 -23 -23 92 -23 219 c 0xfa
 -23 346 18 461 156 461 c 0
156 359 m 0
 94 359 83 324 79 266 c 1
 233 266 l 1
 229 325 218 359 156 359 c 0
EndSplineSet
Validated: 1
EndChar

StartChar: igrave
Encoding: 236 236 117
Width: 375
VWidth: 0
Flags: W
HStem: -16 94<31 109 203 281> 359 94<62 109>
VStem: 109 94<78 359>
LayerCount: 2
Fore
SplineSet
140 653 m 1
 239 554 l 1
 239 532 l 1
 194 487 l 1
 173 487 l 1
 73 587 l 1
 73 608 l 1
 118 653 l 1
 140 653 l 1
62 453 m 1
 188 453 l 1
 203 438 l 1
 203 78 l 1
 281 78 l 1
 297 62 l 1
 297 0 l 1
 281 -16 l 1
 31 -16 l 1
 16 0 l 1
 16 62 l 1
 31 78 l 1
 109 78 l 1
 109 359 l 1
 62 359 l 1
 47 375 l 1
 47 438 l 1
 62 453 l 1
EndSplineSet
Validated: 1
EndChar

StartChar: iacute
Encoding: 237 237 118
Width: 375
VWidth: 0
Flags: W
HStem: -16 94<31 109 203 281> 359 94<62 109>
VStem: 109 94<78 359>
LayerCount: 2
Fore
SplineSet
194 653 m 1
 239 608 l 1
 239 587 l 1
 140 487 l 1
 118 487 l 1
 73 532 l 1
 73 554 l 1
 173 653 l 1
 194 653 l 1
62 453 m 1
 188 453 l 1
 203 438 l 1
 203 78 l 1
 281 78 l 1
 297 62 l 1
 297 0 l 1
 281 -16 l 1
 31 -16 l 1
 16 0 l 1
 16 62 l 1
 31 78 l 1
 109 78 l 1
 109 359 l 1
 62 359 l 1
 47 375 l 1
 47 438 l 1
 62 453 l 1
EndSplineSet
Validated: 1
EndChar

StartChar: icircumflex
Encoding: 238 238 119
Width: 375
VWidth: 0
Flags: W
HStem: -16 94<31 109 203 281> 359 94<62 109>
VStem: 109 94<78 359>
LayerCount: 2
Fore
SplineSet
167 651 m 1
 261 558 l 1
 261 536 l 1
 217 492 l 1
 195 492 l 1
 156 530 l 1
 117 492 l 1
 96 492 l 1
 52 536 l 1
 52 558 l 1
 146 651 l 1
 167 651 l 1
62 453 m 1
 188 453 l 1
 203 438 l 1
 203 78 l 1
 281 78 l 1
 297 62 l 1
 297 0 l 1
 281 -16 l 1
 31 -16 l 1
 16 0 l 1
 16 62 l 1
 31 78 l 1
 109 78 l 1
 109 359 l 1
 62 359 l 1
 47 375 l 1
 47 438 l 1
 62 453 l 1
EndSplineSet
Validated: 1
EndChar

StartChar: idieresis
Encoding: 239 239 120
Width: 375
VWidth: 0
Flags: W
HStem: -16 94<31 109 203 281> 359 94<62 109> 469 125<30.8634 125.707 186.863 281.707>
VStem: 16 125<483.863 578.707> 109 94<78 359> 172 125<483.863 578.707>
LayerCount: 2
Fore
SplineSet
78 594 m 0xf0
 113 594 141 566 141 531 c 0
 141 496 113 469 78 469 c 0
 43 469 16 496 16 531 c 0
 16 566 43 594 78 594 c 0xf0
234 594 m 0
 269 594 297 566 297 531 c 0
 297 496 269 469 234 469 c 0
 199 469 172 496 172 531 c 0xe4
 172 566 199 594 234 594 c 0
62 453 m 1
 188 453 l 1
 203 438 l 1
 203 78 l 1xe8
 281 78 l 1
 297 62 l 1
 297 0 l 1
 281 -16 l 1
 31 -16 l 1
 16 0 l 1
 16 62 l 1xf4
 31 78 l 1
 109 78 l 1
 109 359 l 1xe8
 62 359 l 1
 47 375 l 1
 47 438 l 1
 62 453 l 1
EndSplineSet
Validated: 1
EndChar

StartChar: ntilde
Encoding: 241 241 121
Width: 375
VWidth: 0
Flags: W
HStem: -16 21G<-16 78 234 328> 359 102<110.363 201.778> 433 20G<-16 78> 479 94<191.779 229.498> 552 94<84 119.646>
VStem: -16 94<0 321.437 533 550.612> 234 94<0 319.581 574.388 592>
LayerCount: 2
Fore
SplineSet
102 646 m 2x8e
 104 646 l 0x8e
 147 646 180 617 198 583 c 1
 202 576 206 573 211 573 c 0
 214 573 216 573 220 575 c 1
 229 580 229 584 229 588 c 0
 229 592 l 1
 236 610 l 1
 300 641 l 1
 321 633 l 1
 326 621 328 609 328 595 c 0
 328 555 306 514 261 492 c 1
 243 483 226 479 210 479 c 0x96
 166 479 131 508 114 542 c 1
 111 549 107 552 102 552 c 0
 99 552 97 552 93 550 c 1
 84 545 84 541 84 537 c 0
 84 533 l 1
 76 515 l 1
 13 484 l 1
 -9 492 l 1
 -14 504 -16 516 -16 530 c 0
 -16 570 8 611 52 633 c 1
 63 639 72 643 81 644 c 1
 91 647 96 646 102 646 c 2x8e
156 461 m 0xc6
 243 461 328 412 328 219 c 0
 328 0 l 1
 312 -16 l 1
 250 -16 l 1
 234 0 l 1
 234 219 l 0
 234 312 204 359 156 359 c 0xc6
 95 359 78 279 78 219 c 0
 78 0 l 1
 62 -16 l 1
 0 -16 l 1
 -16 0 l 1
 -16 438 l 1
 0 453 l 1
 62 453 l 1xa6
 78 438 l 1
 78 438 146 461 156 461 c 0xc6
EndSplineSet
Validated: 1
EndChar

StartChar: ograve
Encoding: 242 242 122
Width: 375
VWidth: 0
Flags: W
HStem: -23 101<98.3553 213.678> 359 102<98.3553 213.678>
VStem: -23 101<100.344 337.303> 234 102<100.344 337.303>
LayerCount: 2
Fore
SplineSet
140 653 m 1
 239 554 l 1
 239 532 l 1
 194 487 l 1
 173 487 l 1
 73 587 l 1
 73 608 l 1
 118 653 l 1
 140 653 l 1
156 461 m 0
 294 461 336 346 336 219 c 0
 336 92 294 -23 156 -23 c 0
 18 -23 -23 92 -23 219 c 0
 -23 346 18 461 156 461 c 0
156 359 m 0
 78 359 78 301 78 219 c 0
 78 137 78 78 156 78 c 0
 234 78 234 137 234 219 c 0
 234 301 234 359 156 359 c 0
EndSplineSet
Validated: 1
EndChar

StartChar: oacute
Encoding: 243 243 123
Width: 375
VWidth: 0
Flags: W
HStem: -23 101<98.3553 213.678> 359 102<98.3553 213.678>
VStem: -23 101<100.344 337.303> 234 102<100.344 337.303>
LayerCount: 2
Fore
SplineSet
194 653 m 1
 239 608 l 1
 239 587 l 1
 140 487 l 1
 118 487 l 1
 73 532 l 1
 73 554 l 1
 173 653 l 1
 194 653 l 1
156 461 m 0
 294 461 336 346 336 219 c 0
 336 92 294 -23 156 -23 c 0
 18 -23 -23 92 -23 219 c 0
 -23 346 18 461 156 461 c 0
156 359 m 0
 78 359 78 301 78 219 c 0
 78 137 78 78 156 78 c 0
 234 78 234 137 234 219 c 0
 234 301 234 359 156 359 c 0
EndSplineSet
Validated: 1
EndChar

StartChar: ocircumflex
Encoding: 244 244 124
Width: 375
VWidth: 0
Flags: W
HStem: -23 101<98.3553 213.678> 359 102<98.3553 213.678>
VStem: -23 101<100.344 337.303> 234 102<100.344 337.303>
LayerCount: 2
Fore
SplineSet
167 651 m 1
 261 558 l 1
 261 536 l 1
 217 492 l 1
 195 492 l 1
 156 530 l 1
 117 492 l 1
 96 492 l 1
 52 536 l 1
 52 558 l 1
 146 651 l 1
 167 651 l 1
156 461 m 0
 294 461 336 346 336 219 c 0
 336 92 294 -23 156 -23 c 0
 18 -23 -23 92 -23 219 c 0
 -23 346 18 461 156 461 c 0
156 359 m 0
 78 359 78 301 78 219 c 0
 78 137 78 78 156 78 c 0
 234 78 234 137 234 219 c 0
 234 301 234 359 156 359 c 0
EndSplineSet
Validated: 1
EndChar

StartChar: otilde
Encoding: 245 245 125
Width: 375
VWidth: 0
Flags: W
HStem: -23 101<98.3553 213.678> 359 102<98.3553 213.678> 479 94<191.779 229.498> 552 94<84 119.646>
VStem: -23 101<100.344 337.303> 234 102<100.344 337.303>
LayerCount: 2
Fore
SplineSet
102 646 m 2xdc
 104 646 l 0xdc
 147 646 180 617 198 583 c 1
 202 576 206 573 211 573 c 0
 214 573 216 573 220 575 c 1
 229 580 229 584 229 588 c 0
 229 592 l 1
 236 610 l 1
 300 641 l 1
 321 633 l 1
 326 621 328 609 328 595 c 0
 328 555 306 514 261 492 c 1
 243 483 226 479 210 479 c 0xec
 166 479 131 508 114 542 c 1
 111 549 107 552 102 552 c 0
 99 552 97 552 93 550 c 1
 84 545 84 541 84 537 c 0
 84 533 l 1
 76 515 l 1
 13 484 l 1
 -9 492 l 1
 -14 504 -16 516 -16 530 c 0
 -16 570 8 611 52 633 c 1
 63 639 72 643 81 644 c 1
 91 647 96 646 102 646 c 2xdc
156 461 m 0
 294 461 336 346 336 219 c 0
 336 92 294 -23 156 -23 c 0
 18 -23 -23 92 -23 219 c 0
 -23 346 18 461 156 461 c 0
156 359 m 0
 78 359 78 301 78 219 c 0
 78 137 78 78 156 78 c 0
 234 78 234 137 234 219 c 0
 234 301 234 359 156 359 c 0
EndSplineSet
Validated: 1
EndChar

StartChar: odieresis
Encoding: 246 246 126
Width: 375
VWidth: 0
Flags: W
HStem: -23 101<98.3553 213.678> 359 102<98.3553 213.678> 469 125<30.8634 125.707 186.863 281.707>
VStem: -23 101<100.344 337.303> 16 125<483.863 578.707> 172 125<483.863 578.707> 234 102<100.344 337.303>
LayerCount: 2
Fore
SplineSet
78 594 m 0xf0
 113 594 141 566 141 531 c 0xe8
 141 496 113 469 78 469 c 0xf0
 43 469 16 496 16 531 c 0xe8
 16 566 43 594 78 594 c 0xf0
234 594 m 0xe2
 269 594 297 566 297 531 c 0xe4
 297 496 269 469 234 469 c 0xe2
 199 469 172 496 172 531 c 0xe4
 172 566 199 594 234 594 c 0xe2
156 461 m 0
 294 461 336 346 336 219 c 0
 336 92 294 -23 156 -23 c 0
 18 -23 -23 92 -23 219 c 0xf2
 -23 346 18 461 156 461 c 0
156 359 m 0
 78 359 78 301 78 219 c 0
 78 137 78 78 156 78 c 0
 234 78 234 137 234 219 c 0
 234 301 234 359 156 359 c 0
EndSplineSet
Validated: 1
EndChar

StartChar: ugrave
Encoding: 249 249 127
Width: 375
VWidth: 0
Flags: W
HStem: -23 101<110.222 201.637> -16 21G<234 328> 433 20G<-16 78 234 328>
VStem: -16 94<113.625 438> 234 94<115.97 438>
LayerCount: 2
Fore
SplineSet
140 653 m 1x38
 239 554 l 1
 239 532 l 1
 194 487 l 1
 173 487 l 1
 73 587 l 1
 73 608 l 1
 118 653 l 1
 140 653 l 1x38
0 453 m 1
 62 453 l 1
 78 438 l 1
 78 219 l 0
 78 126 108 78 156 78 c 0xb8
 217 78 234 159 234 219 c 0
 234 438 l 1
 250 453 l 1
 312 453 l 1
 328 438 l 1
 328 0 l 1
 312 -16 l 1
 250 -16 l 1x78
 234 0 l 1
 234 0 166 -23 156 -23 c 0xb8
 69 -23 -16 26 -16 219 c 0
 -16 438 l 1
 0 453 l 1
EndSplineSet
Validated: 1
EndChar

StartChar: uacute
Encoding: 250 250 128
Width: 375
VWidth: 0
Flags: W
HStem: -23 101<110.222 201.637> -16 21G<234 328> 433 20G<-16 78 234 328>
VStem: -16 94<113.625 438> 234 94<115.97 438>
LayerCount: 2
Fore
SplineSet
194 653 m 1x38
 239 608 l 1
 239 587 l 1
 140 487 l 1
 118 487 l 1
 73 532 l 1
 73 554 l 1
 173 653 l 1
 194 653 l 1x38
0 453 m 1
 62 453 l 1
 78 438 l 1
 78 219 l 0
 78 126 108 78 156 78 c 0xb8
 217 78 234 159 234 219 c 0
 234 438 l 1
 250 453 l 1
 312 453 l 1
 328 438 l 1
 328 0 l 1
 312 -16 l 1
 250 -16 l 1x78
 234 0 l 1
 234 0 166 -23 156 -23 c 0xb8
 69 -23 -16 26 -16 219 c 0
 -16 438 l 1
 0 453 l 1
EndSplineSet
Validated: 1
EndChar

StartChar: ucircumflex
Encoding: 251 251 129
Width: 375
VWidth: 0
Flags: W
HStem: -23 101<110.222 201.637> -16 21G<234 328> 433 20G<-16 78 234 328>
VStem: -16 94<113.625 438> 234 94<115.97 438>
LayerCount: 2
Fore
SplineSet
167 651 m 1x38
 261 558 l 1
 261 536 l 1
 217 492 l 1
 195 492 l 1
 156 530 l 1
 117 492 l 1
 96 492 l 1
 52 536 l 1
 52 558 l 1
 146 651 l 1
 167 651 l 1x38
0 453 m 1
 62 453 l 1
 78 438 l 1
 78 219 l 0
 78 126 108 78 156 78 c 0xb8
 217 78 234 159 234 219 c 0
 234 438 l 1
 250 453 l 1
 312 453 l 1
 328 438 l 1
 328 0 l 1
 312 -16 l 1
 250 -16 l 1x78
 234 0 l 1
 234 0 166 -23 156 -23 c 0xb8
 69 -23 -16 26 -16 219 c 0
 -16 438 l 1
 0 453 l 1
EndSplineSet
Validated: 1
EndChar

StartChar: udieresis
Encoding: 252 252 130
Width: 375
VWidth: 0
Flags: W
HStem: -23 101<110.222 201.637> -16 21G<234 328> 433 20G<-16 78 234 328> 469 125<30.8634 125.707 186.863 281.707>
VStem: -16 94<113.625 438> 16 125<483.863 578.707> 172 125<483.863 578.707> 234 94<115.97 438>
LayerCount: 2
Fore
SplineSet
78 594 m 0x38
 113 594 141 566 141 531 c 0x34
 141 496 113 469 78 469 c 0x38
 43 469 16 496 16 531 c 0x34
 16 566 43 594 78 594 c 0x38
234 594 m 0x31
 269 594 297 566 297 531 c 0x32
 297 496 269 469 234 469 c 0x31
 199 469 172 496 172 531 c 0x32
 172 566 199 594 234 594 c 0x31
0 453 m 1
 62 453 l 1
 78 438 l 1
 78 219 l 0
 78 126 108 78 156 78 c 0xb9
 217 78 234 159 234 219 c 0
 234 438 l 1
 250 453 l 1
 312 453 l 1
 328 438 l 1
 328 0 l 1
 312 -16 l 1
 250 -16 l 1x79
 234 0 l 1
 234 0 166 -23 156 -23 c 0
 69 -23 -16 26 -16 219 c 0
 -16 438 l 1xb9
 0 453 l 1
EndSplineSet
Validated: 1
EndChar

StartChar: yacute
Encoding: 253 253 131
Width: 375
VWidth: 0
Flags: W
HStem: -211 102<98.3254 213.585> -23 101<100.008 213.523> 433 20G<-16 78 234 328>
VStem: -16 94<-87.7209 -69 99.1887 438> 234 94<-86.9688 -2 97.4282 438>
LayerCount: 2
Fore
SplineSet
194 653 m 1
 239 608 l 1
 239 587 l 1
 140 487 l 1
 118 487 l 1
 73 532 l 1
 73 554 l 1
 173 653 l 1
 194 653 l 1
0 453 m 1
 62 453 l 1
 78 438 l 1
 78 219 l 0
 78 137 78 78 156 78 c 0
 221 78 234 119 234 188 c 0
 234 438 l 1
 250 453 l 1
 312 453 l 1
 328 438 l 1
 328 0 l 0
 328 -128 292 -211 156 -211 c 0
 52 -211 3 -161 -11 -76 c 1
 1 -59 l 1
 63 -41 l 1
 83 -52 l 1
 93 -96 113 -109 156 -109 c 0
 209 -109 233 -88 234 -2 c 1
 210 -19 186 -23 156 -23 c 0
 52 -23 -16 51 -16 219 c 0
 -16 438 l 1
 0 453 l 1
EndSplineSet
Validated: 1
EndChar

StartChar: ydieresis
Encoding: 255 255 132
Width: 375
VWidth: 0
Flags: W
HStem: -211 102<98.3254 213.585> -23 101<100.008 213.523> 433 20G<-16 78 234 328> 469 125<30.8634 125.707 186.863 281.707>
VStem: -16 94<-87.7209 -69 99.1887 438> 16 125<483.863 578.707> 172 125<483.863 578.707> 234 94<-86.9688 -2 97.4282 438>
LayerCount: 2
Fore
SplineSet
78 594 m 0xf8
 113 594 141 566 141 531 c 0xf4
 141 496 113 469 78 469 c 0xf8
 43 469 16 496 16 531 c 0xf4
 16 566 43 594 78 594 c 0xf8
234 594 m 0xf1
 269 594 297 566 297 531 c 0xf2
 297 496 269 469 234 469 c 0xf1
 199 469 172 496 172 531 c 0xf2
 172 566 199 594 234 594 c 0xf1
0 453 m 1
 62 453 l 1
 78 438 l 1
 78 219 l 0
 78 137 78 78 156 78 c 0
 221 78 234 119 234 188 c 0
 234 438 l 1
 250 453 l 1
 312 453 l 1
 328 438 l 1
 328 0 l 0
 328 -128 292 -211 156 -211 c 0
 52 -211 3 -161 -11 -76 c 1
 1 -59 l 1
 63 -41 l 1
 83 -52 l 1
 93 -96 113 -109 156 -109 c 0
 209 -109 233 -88 234 -2 c 1
 210 -19 186 -23 156 -23 c 0
 52 -23 -16 51 -16 219 c 0
 -16 438 l 1xf9
 0 453 l 1
EndSplineSet
Validated: 1
EndChar

StartChar: question
Encoding: 63 63 134
Width: 375
VWidth: 0
Flags: W
HStem: -23 140<105.206 207.318> 453 21G<-23 78> 547 101<89.7054 223.071>
VStem: -23 101<469 535.105> 86 141<-2.625 96.625> 109 94<180 321.344> 234 102<427.511 536.077>
LayerCount: 2
Fore
SplineSet
156 648 m 0xf6
 290 648 336 569 336 469 c 0
 336 328 203 354 203 281 c 0
 203 180 l 1
 188 164 l 1
 125 164 l 1
 109 180 l 1
 109 281 l 0
 109 421 234 396 234 469 c 0
 234 539 214 547 156 547 c 0
 98 547 78 539 78 469 c 1
 62 453 l 1
 -8 453 l 1
 -23 469 l 1
 -23 569 38 648 156 648 c 0xf6
156 117 m 0
 195 117 227 86 227 47 c 0
 227 8 195 -23 156 -23 c 0
 117 -23 86 8 86 47 c 0xfa
 86 86 117 117 156 117 c 0
EndSplineSet
Validated: 1
EndChar

StartChar: exclam
Encoding: 33 33 135
Width: 375
VWidth: 0
Flags: W
HStem: -23 140<105.206 207.318> 621 20G<94 219>
VStem: 86 141<-2.625 96.625> 94 125<334.863 625>
LayerCount: 2
Fore
SplineSet
109 641 m 1xd0
 203 641 l 1
 219 625 l 1
 219 500 219 305 203 178 c 1
 188 164 l 1
 125 164 l 1
 109 178 l 1
 95 291 94 458 94 581 c 0
 94 596 94 611 94 625 c 1
 109 641 l 1xd0
156 117 m 0
 195 117 227 86 227 47 c 0
 227 8 195 -23 156 -23 c 0
 117 -23 86 8 86 47 c 0xe0
 86 86 117 117 156 117 c 0
EndSplineSet
Validated: 1
EndChar

StartChar: numbersign
Encoding: 35 35 136
Width: 375
VWidth: 0
Flags: W
HStem: -16 21G<0 102 141 242> 141 93<-16 16 128 156 269 328> 383 94<-16 43 155 184 296 328> 621 20G<70 172 211 312>
LayerCount: 2
Fore
SplineSet
86 641 m 1
 156 641 l 1
 172 623 l 1
 155 477 l 1
 194 477 l 1
 211 627 l 1
 227 641 l 1
 297 641 l 1
 312 623 l 1
 296 477 l 1
 328 477 l 1
 344 461 l 1
 344 398 l 1
 328 383 l 1
 285 383 l 1
 269 234 l 1
 328 234 l 1
 344 219 l 1
 344 156 l 1
 328 141 l 1
 258 141 l 1
 242 -2 l 1
 227 -16 l 1
 156 -16 l 1
 141 2 l 1
 156 141 l 1
 117 141 l 1
 102 -2 l 1
 86 -16 l 1
 16 -16 l 1
 0 2 l 1
 16 141 l 1
 -16 141 l 1
 -31 156 l 1
 -31 219 l 1
 -16 234 l 1
 26 234 l 1
 43 383 l 1
 -16 383 l 1
 -31 398 l 1
 -31 461 l 1
 -16 477 l 1
 54 477 l 1
 70 627 l 1
 86 641 l 1
145 383 m 1
 128 234 l 1
 167 234 l 1
 184 383 l 1
 145 383 l 1
EndSplineSet
Validated: 1
EndChar

StartChar: period
Encoding: 46 46 137
Width: 375
VWidth: 0
Flags: W
HStem: -23 140<97.2058 199.318>
VStem: 78 141<-2.625 96.625>
LayerCount: 2
Fore
SplineSet
148 117 m 0
 187 117 219 86 219 47 c 0
 219 8 187 -23 148 -23 c 0
 109 -23 78 8 78 47 c 0
 78 86 109 117 148 117 c 0
EndSplineSet
Validated: 1
EndChar

StartChar: comma
Encoding: 44 44 138
Width: 375
VWidth: 0
Flags: W
HStem: -125 242<115.983 141>
VStem: 78 141<-1.57812 96.625>
LayerCount: 2
Fore
SplineSet
148 117 m 0
 187 117 219 86 219 47 c 0
 219 -20 184 -79 152 -119 c 1
 141 -125 l 1
 94 -125 l 1
 83 -99 l 1
 105 -77 112 -40 115 -15 c 1
 93 -2 78 21 78 47 c 0
 78 86 109 117 148 117 c 0
EndSplineSet
Validated: 1
EndChar

StartChar: colon
Encoding: 58 58 139
Width: 375
VWidth: 0
Flags: W
HStem: -23 140<97.2058 199.318> 219 140<97.2058 199.318>
VStem: 78 141<-2.625 96.625 239.375 338.625>
LayerCount: 2
Fore
SplineSet
148 359 m 0
 187 359 219 328 219 289 c 0
 219 250 187 219 148 219 c 0
 109 219 78 250 78 289 c 0
 78 328 109 359 148 359 c 0
148 117 m 0
 187 117 219 86 219 47 c 0
 219 8 187 -23 148 -23 c 0
 109 -23 78 8 78 47 c 0
 78 86 109 117 148 117 c 0
EndSplineSet
Validated: 1
EndChar

StartChar: semicolon
Encoding: 59 59 140
Width: 375
VWidth: 0
Flags: W
HStem: 219 140<97.2058 199.318>
VStem: 78 141<-1.57812 96.625 239.375 338.625>
LayerCount: 2
Fore
SplineSet
148 359 m 0
 187 359 219 328 219 289 c 0
 219 250 187 219 148 219 c 0
 109 219 78 250 78 289 c 0
 78 328 109 359 148 359 c 0
148 117 m 0
 187 117 219 86 219 47 c 0
 219 -20 184 -79 152 -119 c 1
 141 -125 l 1
 94 -125 l 1
 83 -99 l 1
 105 -77 112 -40 115 -15 c 1
 93 -2 78 21 78 47 c 0
 78 86 109 117 148 117 c 0
EndSplineSet
Validated: 1
EndChar

StartChar: quotesingle
Encoding: 39 39 141
Width: 375
VWidth: 0
Flags: W
HStem: 414 234<94 156>
VStem: 70 110<433.52 633> 78 94<430 627.911>
LayerCount: 2
Fore
SplineSet
86 648 m 1xc0
 164 648 l 1
 180 633 l 1xc0
 180 523 172 506 172 430 c 1
 156 414 l 1
 94 414 l 1
 78 430 l 1xa0
 78 506 70 523 70 633 c 1
 86 648 l 1xc0
EndSplineSet
Validated: 1
EndChar

StartChar: quotedbl
Encoding: 34 34 142
Width: 375
VWidth: 0
Flags: W
HStem: 414 234<47 109 203 266>
VStem: 23 110<433.52 633> 31 94<430 627.911> 180 109<433.52 633> 188 93<430 627.911>
LayerCount: 2
Fore
SplineSet
39 648 m 1xc0
 117 648 l 1
 133 633 l 1xc0
 133 523 125 506 125 430 c 1
 109 414 l 1
 47 414 l 1
 31 430 l 1xa0
 31 506 23 523 23 633 c 1
 39 648 l 1xc0
195 648 m 1
 273 648 l 1
 289 633 l 1x90
 289 523 281 506 281 430 c 1
 266 414 l 1
 203 414 l 1
 188 430 l 1x88
 188 506 180 523 180 633 c 1x90
 195 648 l 1
EndSplineSet
Validated: 1
EndChar

StartChar: underscore
Encoding: 95 95 143
Width: 375
VWidth: 0
Flags: W
HStem: -23 101<-8 320>
LayerCount: 2
Fore
SplineSet
-23 -8 m 1
 -23 62 l 1
 -8 78 l 1
 320 78 l 1
 336 62 l 1
 336 -8 l 1
 320 -23 l 1
 -8 -23 l 1
 -23 -8 l 1
EndSplineSet
Validated: 1
EndChar

StartChar: parenleft
Encoding: 40 40 144
Width: 375
VWidth: 0
Flags: W
HStem: -15 21G<167.5 242> 620 20G<167.5 242>
VStem: 23 118<170.9 453.354>
LayerCount: 2
Fore
SplineSet
242 629 m 1
 261 561 l 1
 250 542 l 1
 198 528 141 478 141 312 c 0
 141 146 198 97 250 83 c 1
 261 64 l 1
 242 -4 l 1
 224 -15 l 1
 111 14 23 123 23 312 c 0
 23 501 111 611 224 640 c 1
 242 629 l 1
EndSplineSet
Validated: 1
EndChar

StartChar: parenright
Encoding: 41 41 145
Width: 375
VWidth: 0
Flags: W
HStem: -15 21G<70 145.5> 620 20G<70 145.5>
VStem: 172 117<170.9 453.354>
LayerCount: 2
Fore
SplineSet
89 640 m 1
 202 611 289 501 289 312 c 0
 289 123 202 14 89 -15 c 1
 70 -4 l 1
 52 64 l 1
 62 83 l 1
 114 97 172 146 172 312 c 0
 172 478 114 528 62 542 c 1
 52 561 l 1
 70 629 l 1
 89 640 l 1
EndSplineSet
Validated: 1
EndChar

StartChar: bracketleft
Encoding: 91 91 146
Width: 375
VWidth: 0
Flags: W
HStem: -23 101<141 258> 547 101<141 258>
VStem: 39 234<-8 62 562 633> 39 102<78 547>
LayerCount: 2
Fore
SplineSet
55 648 m 1xe0
 258 648 l 1
 273 633 l 1
 273 562 l 1xe0
 258 547 l 1
 141 547 l 1
 141 78 l 1xd0
 258 78 l 1
 273 62 l 1
 273 -8 l 1
 258 -23 l 1
 55 -23 l 1
 39 -8 l 1
 39 633 l 1
 55 648 l 1xe0
EndSplineSet
Validated: 1
EndChar

StartChar: bracketright
Encoding: 93 93 147
Width: 375
VWidth: 0
Flags: W
HStem: -23 101<55 172> 547 101<55 172>
VStem: 39 234<-8 62 562 633> 172 101<78 547>
LayerCount: 2
Fore
SplineSet
273 633 m 1xe0
 273 -8 l 1
 258 -23 l 1
 55 -23 l 1
 39 -8 l 1
 39 62 l 1xe0
 55 78 l 1
 172 78 l 1
 172 547 l 1xd0
 55 547 l 1
 39 562 l 1
 39 633 l 1
 55 648 l 1
 258 648 l 1
 273 633 l 1xe0
EndSplineSet
Validated: 1
EndChar

StartChar: braceleft
Encoding: 123 123 148
Width: 375
VWidth: 0
Flags: W
HStem: -23 101<149.241 258> 258 109<0 60.8233> 547 101<149.241 258>
VStem: 47 94<88.2109 230.923 394.077 536.789> 62 94<126.462 253.429 371.069 498.538>
CounterMasks: 1 e0
LayerCount: 2
Fore
SplineSet
125 312 m 1xe8
 151 294 156 268 156 242 c 0xe8
 156 199 141 151 141 125 c 0
 141 80 182 78 258 78 c 1
 273 62 l 1
 273 -8 l 1
 258 -23 l 1
 123 -23 47 20 47 125 c 0xf0
 47 161 62 199 62 223 c 0
 62 243 59 258 0 258 c 1
 -16 273 l 1
 -16 352 l 1
 0 367 l 1
 59 367 62 382 62 402 c 0xe8
 62 426 47 464 47 500 c 0
 47 605 123 648 258 648 c 1
 273 633 l 1
 273 562 l 1
 258 547 l 1
 182 547 141 545 141 500 c 0xf0
 141 474 156 426 156 383 c 0
 156 358 149 329 125 312 c 1xe8
EndSplineSet
Validated: 1
EndChar

StartChar: braceright
Encoding: 125 125 149
Width: 375
VWidth: 0
Flags: W
HStem: -23 101<47 155.759> 258 109<243.316 305> 547 101<47 155.759>
VStem: 148 94<126.462 253.097 371.746 498.538> 164 94<88.2109 230.923 394.077 536.789>
CounterMasks: 1 e0
LayerCount: 2
Fore
SplineSet
180 312 m 1xf0
 154 330 148 357 148 383 c 0xf0
 148 426 164 474 164 500 c 0
 164 545 123 547 47 547 c 1
 31 562 l 1
 31 633 l 1
 47 648 l 1
 182 648 258 605 258 500 c 0xe8
 258 464 242 426 242 402 c 0
 242 382 246 367 305 367 c 1
 320 352 l 1
 320 273 l 1
 305 258 l 1
 246 258 242 243 242 223 c 0xf0
 242 199 258 161 258 125 c 0
 258 20 182 -23 47 -23 c 1
 31 -8 l 1
 31 62 l 1
 47 78 l 1
 123 78 164 80 164 125 c 0xe8
 164 151 148 199 148 242 c 0
 148 267 156 295 180 312 c 1xf0
EndSplineSet
Validated: 1
EndChar

StartChar: bar
Encoding: 124 124 150
Width: 375
VWidth: 0
Flags: W
HStem: -23 21G<109 203> 628 20G<109 203>
VStem: 109 94<-8 633>
LayerCount: 2
Fore
SplineSet
109 -8 m 1
 109 633 l 1
 125 648 l 1
 188 648 l 1
 203 633 l 1
 203 -8 l 1
 188 -23 l 1
 125 -23 l 1
 109 -8 l 1
EndSplineSet
Validated: 1
EndChar

StartChar: slash
Encoding: 47 47 151
Width: 375
VWidth: 0
Flags: W
HStem: -23 21G<-23 78> 628 20G<242 336>
VStem: 242 94<582.142 633>
LayerCount: 2
Fore
SplineSet
336 633 m 1
 336 554 83 33 78 -8 c 1
 62 -23 l 1
 -8 -23 l 1
 -23 -8 l 1
 -23 71 237 592 242 633 c 1
 258 648 l 1
 320 648 l 1
 336 633 l 1
EndSplineSet
Validated: 1
EndChar

StartChar: backslash
Encoding: 92 92 152
Width: 375
VWidth: 0
Flags: W
HStem: -23 21G<234 336> 628 20G<-23 70>
VStem: -23 93<581.475 633>
LayerCount: 2
Fore
SplineSet
-8 648 m 1
 55 648 l 1
 70 633 l 1
 76 590 336 71 336 -8 c 1
 320 -23 l 1
 250 -23 l 1
 234 -8 l 1
 228 35 -23 554 -23 633 c 1
 -8 648 l 1
EndSplineSet
Validated: 1
EndChar

StartChar: brokenbar
Encoding: 166 166 153
Width: 375
VWidth: 0
Flags: W
HStem: -23 21G<109 203> 628 20G<109 203>
VStem: 109 94<-8 250 375 633>
LayerCount: 2
Fore
SplineSet
125 648 m 1
 188 648 l 1
 203 633 l 1
 203 375 l 1
 188 359 l 1
 125 359 l 1
 109 375 l 1
 109 633 l 1
 125 648 l 1
125 266 m 1
 188 266 l 1
 203 250 l 1
 203 -8 l 1
 188 -23 l 1
 125 -23 l 1
 109 -8 l 1
 109 250 l 1
 125 266 l 1
EndSplineSet
Validated: 1
EndChar

StartChar: plus
Encoding: 43 43 154
Width: 375
VWidth: 0
Flags: W
HStem: 258 109<23 102 211 289> 441 20G<102 211>
VStem: 102 109<180 258 367 445>
LayerCount: 2
Fore
SplineSet
117 461 m 1
 195 461 l 1
 211 445 l 1
 211 367 l 1
 289 367 l 1
 305 352 l 1
 305 273 l 1
 289 258 l 1
 211 258 l 1
 211 180 l 1
 195 164 l 1
 117 164 l 1
 102 180 l 1
 102 258 l 1
 23 258 l 1
 8 273 l 1
 8 352 l 1
 23 367 l 1
 102 367 l 1
 102 445 l 1
 117 461 l 1
EndSplineSet
Validated: 1
EndChar

StartChar: hyphen
Encoding: 45 45 155
Width: 375
VWidth: 0
Flags: W
HStem: 258 109<23 289>
VStem: 8 297<273 352>
LayerCount: 2
Fore
SplineSet
8 273 m 1
 8 352 l 1
 23 367 l 1
 289 367 l 1
 305 352 l 1
 305 273 l 1
 289 258 l 1
 23 258 l 1
 8 273 l 1
EndSplineSet
Validated: 1
EndChar

StartChar: equal
Encoding: 61 61 156
Width: 375
VWidth: 0
Flags: W
HStem: 164 109<23 289> 352 109<23 289>
VStem: 8 297<180 258 367 445>
LayerCount: 2
Fore
SplineSet
23 461 m 1
 289 461 l 1
 305 445 l 1
 305 367 l 1
 289 352 l 1
 23 352 l 1
 8 367 l 1
 8 445 l 1
 23 461 l 1
23 273 m 1
 289 273 l 1
 305 258 l 1
 305 180 l 1
 289 164 l 1
 23 164 l 1
 8 180 l 1
 8 258 l 1
 23 273 l 1
EndSplineSet
Validated: 1
EndChar

StartChar: less
Encoding: 60 60 157
Width: 375
VWidth: 0
Flags: W
HStem: 164 94<229.594 320> 266 93<-8 60.8559> 367 94<235.431 320>
CounterMasks: 1 e0
LayerCount: 2
Fore
SplineSet
336 445 m 1
 336 383 l 1
 320 367 l 1
 282 367 207 337 140 312 c 1
 209 286 282 258 320 258 c 1
 336 242 l 1
 336 180 l 1
 320 164 l 1
 212 164 36 266 -8 266 c 1
 -23 281 l 1
 -23 344 l 1
 -8 359 l 1
 36 359 212 461 320 461 c 1
 336 445 l 1
EndSplineSet
Validated: 1
EndChar

StartChar: greater
Encoding: 62 62 158
Width: 375
VWidth: 0
Flags: W
HStem: 164 94<-8 82.625> 266 93<251.144 320> 367 94<-8 82.625>
CounterMasks: 1 e0
LayerCount: 2
Fore
SplineSet
-23 383 m 1
 -23 445 l 1
 -8 461 l 1
 100 461 276 359 320 359 c 1
 336 344 l 1
 336 281 l 1
 320 266 l 1
 276 266 100 164 -8 164 c 1
 -23 180 l 1
 -23 242 l 1
 -8 258 l 1
 30 258 106 287 173 312 c 1
 104 338 30 367 -8 367 c 1
 -23 383 l 1
EndSplineSet
Validated: 1
EndChar

StartChar: percent
Encoding: 37 37 159
Width: 375
VWidth: 0
Flags: W
HStem: -23 85<216.203 253.536> 188 85<215.141 253.536> 352 86<60.0331 97.4996> 562 86<60.0331 97.7167>
VStem: -31 86<438.412 561.588> 102 86<447.692 561.54> 125 86<62.9148 177.57> 258 86<62.969 187.031>
LayerCount: 2
Fore
SplineSet
234 188 m 0xfb
 225 188 211 180 211 125 c 0
 211 70 225 62 234 62 c 0
 243 62 258 70 258 125 c 0
 258 180 243 188 234 188 c 0xfb
234 273 m 0
 295 273 344 200 344 125 c 0
 344 50 295 -23 234 -23 c 0
 173 -23 125 50 125 125 c 0xfb
 125 143 128 161 133 178 c 1
 41 19 l 1
 20 13 l 1
 -35 44 l 1
 -41 65 l 1
 141 380 l 1
 123 362 101 352 78 352 c 0
 17 352 -31 425 -31 500 c 0
 -31 575 17 648 78 648 c 0
 139 648 188 575 188 500 c 0xfd
 188 482 185 464 180 447 c 1
 271 606 l 1
 293 612 l 1
 348 581 l 1
 354 560 l 1
 172 245 l 1
 190 263 211 273 234 273 c 0
78 562 m 0
 69 562 55 555 55 500 c 0
 55 445 69 438 78 438 c 0
 87 438 102 445 102 500 c 0xfd
 102 555 87 562 78 562 c 0
EndSplineSet
Validated: 1
EndChar

StartChar: asterisk
Encoding: 42 42 160
Width: 375
VWidth: 0
Flags: W
HStem: 621 20G<109 203>
VStem: 109 94<312 388 550 625>
LayerCount: 2
Fore
SplineSet
125 641 m 1
 188 641 l 1
 203 625 l 1
 203 550 l 1
 269 588 l 1
 290 582 l 1
 321 527 l 1
 315 506 l 1
 250 469 l 1
 315 432 l 1
 321 410 l 1
 290 355 l 1
 269 350 l 1
 203 388 l 1
 203 312 l 1
 188 297 l 1
 125 297 l 1
 109 312 l 1
 109 388 l 1
 44 350 l 1
 22 355 l 1
 -9 410 l 1
 -3 432 l 1
 62 469 l 1
 -3 506 l 1
 -9 527 l 1
 22 582 l 1
 44 588 l 1
 109 550 l 1
 109 625 l 1
 125 641 l 1
EndSplineSet
Validated: 1
EndChar

StartChar: currency
Encoding: 164 164 161
Width: 375
VWidth: 0
Flags: W
HStem: 180 93<121.516 190.597> 352 93<121.958 190.167>
VStem: 23 94<277.325 347.208> 195 94<277.516 347.411>
LayerCount: 2
Fore
SplineSet
62 473 m 1
 102 434 l 1
 119 442 136 445 156 445 c 0
 176 445 195 441 211 434 c 1
 250 473 l 1
 271 473 l 1
 316 428 l 1
 316 406 l 1
 277 367 l 1
 285 350 289 332 289 312 c 0
 289 292 284 274 277 258 c 1
 316 219 l 1
 316 197 l 1
 271 152 l 1
 250 152 l 1
 211 191 l 1
 194 183 176 180 156 180 c 0
 136 180 118 184 102 191 c 1
 62 152 l 1
 41 152 l 1
 -4 197 l 1
 -4 219 l 1
 35 258 l 1
 27 275 23 292 23 312 c 0
 23 332 28 351 35 367 c 1
 -4 406 l 1
 -4 428 l 1
 41 473 l 1
 62 473 l 1
156 352 m 0
 135 352 117 333 117 312 c 0
 117 291 135 273 156 273 c 0
 177 273 195 291 195 312 c 0
 195 333 177 352 156 352 c 0
EndSplineSet
Validated: 1
EndChar

StartChar: exclamdown
Encoding: 161 161 162
Width: 375
VWidth: 0
Flags: W
HStem: 445 141<106.375 206.125>
VStem: 86 141<465.875 565.625> 94 125<-62 228.137>
LayerCount: 2
Fore
SplineSet
94 -62 m 1xa0
 94 -48 94 -33 94 -18 c 0
 94 105 95 272 109 385 c 1
 125 398 l 1
 188 398 l 1
 203 385 l 1
 219 258 219 63 219 -62 c 1
 203 -78 l 1
 109 -78 l 1
 94 -62 l 1xa0
156 445 m 0
 117 445 86 477 86 516 c 0
 86 555 117 586 156 586 c 0
 195 586 227 555 227 516 c 0xc0
 227 477 195 445 156 445 c 0
EndSplineSet
Validated: 1
EndChar

StartChar: questiondown
Encoding: 191 191 163
Width: 375
VWidth: 0
Flags: W
HStem: -86 102<88.9749 222.348> 445 141<106.375 206.125>
VStem: -23 101<26.8538 135.385> 86 141<465.875 565.625> 109 94<240.812 383> 234 102<27.7559 94>
LayerCount: 2
Fore
SplineSet
156 -86 m 0xec
 22 -86 -23 -6 -23 94 c 0
 -23 235 109 208 109 281 c 0
 109 383 l 1
 125 398 l 1
 188 398 l 1
 203 383 l 1
 203 281 l 0
 203 141 78 167 78 94 c 0
 78 24 98 16 156 16 c 0
 214 16 234 24 234 94 c 1
 250 109 l 1
 320 109 l 1
 336 94 l 1
 336 -6 274 -86 156 -86 c 0xec
156 445 m 0
 117 445 86 477 86 516 c 0
 86 555 117 586 156 586 c 0
 195 586 227 555 227 516 c 0xf4
 227 477 195 445 156 445 c 0
EndSplineSet
Validated: 1
EndChar

StartChar: logicalnot
Encoding: 172 172 164
Width: 375
VWidth: 0
Flags: W
HStem: 266 93<-8 234>
VStem: 234 102<188 266>
LayerCount: 2
Fore
SplineSet
-8 359 m 1
 320 359 l 1
 336 344 l 1
 336 188 l 1
 320 172 l 1
 250 172 l 1
 234 188 l 1
 234 266 l 1
 -8 266 l 1
 -23 281 l 1
 -23 344 l 1
 -8 359 l 1
EndSplineSet
Validated: 1
EndChar

StartChar: uni00AD
Encoding: 173 173 165
Width: 375
VWidth: 0
Flags: W
HStem: 258 109<23 289>
VStem: 8 297<273 352>
LayerCount: 2
Fore
SplineSet
8 273 m 1
 8 352 l 1
 23 367 l 1
 289 367 l 1
 305 352 l 1
 305 273 l 1
 289 258 l 1
 23 258 l 1
 8 273 l 1
EndSplineSet
Validated: 1
EndChar

StartChar: macron
Encoding: 175 175 166
Width: 375
VWidth: 0
Flags: W
HStem: 547 101<-8 320>
LayerCount: 2
Fore
SplineSet
-23 562 m 1
 -23 633 l 1
 -8 648 l 1
 320 648 l 1
 336 633 l 1
 336 562 l 1
 320 547 l 1
 -8 547 l 1
 -23 562 l 1
EndSplineSet
Validated: 1
EndChar

StartChar: plusminus
Encoding: 177 177 167
Width: 375
VWidth: 0
Flags: W
HStem: -23 109<23 289> 258 109<23 102 211 289> 441 20G<102 211>
VStem: 102 109<180 258 367 445>
LayerCount: 2
Fore
SplineSet
117 461 m 1
 195 461 l 1
 211 445 l 1
 211 367 l 1
 289 367 l 1
 305 352 l 1
 305 273 l 1
 289 258 l 1
 211 258 l 1
 211 180 l 1
 195 164 l 1
 117 164 l 1
 102 180 l 1
 102 258 l 1
 23 258 l 1
 8 273 l 1
 8 352 l 1
 23 367 l 1
 102 367 l 1
 102 445 l 1
 117 461 l 1
23 86 m 1
 289 86 l 1
 305 70 l 1
 305 -8 l 1
 289 -23 l 1
 23 -23 l 1
 8 -8 l 1
 8 70 l 1
 23 86 l 1
EndSplineSet
Validated: 1
EndChar

StartChar: ellipsis
Encoding: 256 8230 168
Width: 375
VWidth: 0
Flags: W
HStem: -16 125<-16.1366 78.7067 108.863 203.707 233.863 328.707>
VStem: -31 125<-0.706699 46 48 94.7067> 94 125<-1.13659 46 48 94.5665> 219 125<-0.159088 46 48 93.6123>
LayerCount: 2
Fore
SplineSet
281 109 m 0xa0
 316 109 344 82 344 47 c 0x90
 344 12 316 -16 281 -16 c 0
 246 -16 219 11 219 46 c 1xa0
 219 11 191 -16 156 -16 c 0
 121 -16 94 11 94 46 c 1
 94 11 66 -16 31 -16 c 0
 -4 -16 -31 12 -31 47 c 0
 -31 82 -4 110 31 110 c 0
 66 110 94 83 94 48 c 1xc0
 94 83 121 109 156 109 c 0
 191 109 219 83 219 48 c 1
 219 83 246 109 281 109 c 0xa0
EndSplineSet
Validated: 1
EndChar

StartChar: Ydieresis
Encoding: 257 376 169
Width: 375
VWidth: 0
Flags: W
HStem: -16 21G<109 203> 621 20G<-16 78 234 328> 656 125<30.8634 125.707 186.863 281.707>
VStem: -16 94<474.859 625> 16 125<671.293 766.137> 109 94<0 285.734> 172 125<671.293 766.137> 234 94<474.789 625>
LayerCount: 2
Fore
SplineSet
78 781 m 0xf0
 113 781 141 754 141 719 c 0xe8
 141 684 113 656 78 656 c 0xf0
 43 656 16 684 16 719 c 0xe8
 16 754 43 781 78 781 c 0xf0
234 781 m 0xe1
 269 781 297 754 297 719 c 0xe2
 297 684 269 656 234 656 c 0xe1
 199 656 172 684 172 719 c 0xe2
 172 754 199 781 234 781 c 0xe1
0 641 m 1
 62 641 l 1
 78 625 l 1
 78 562 l 0
 78 505 118 429 156 356 c 1
 194 430 234 504 234 562 c 0
 234 625 l 1
 250 641 l 1
 312 641 l 1
 328 625 l 1
 328 562 l 0
 328 462 235 309 203 246 c 1
 203 0 l 1
 188 -16 l 1
 125 -16 l 1
 109 0 l 1
 109 246 l 1
 76 310 -16 462 -16 562 c 0
 -16 625 l 1xf5
 0 641 l 1
EndSplineSet
Validated: 1
EndChar

StartChar: Euro
Encoding: 258 8364 171
Width: 375
VWidth: 0
Flags: W
HStem: -23 101<145.829 204.632> 195 94<-23 8 116 195> 336 94<-23 8 116 195> 547 101<146.172 204.632>
VStem: 8 101<289 336> 224 96<96.3911 132.455 492.545 528.609>
LayerCount: 2
Fore
SplineSet
172 648 m 0
 228 648 296 615 320 504 c 1
 309 486 l 1
 243 469 l 1
 224 480 l 1
 215 527 187 547 172 547 c 0
 155 547 128 514 116 430 c 1
 195 430 l 1
 211 414 l 1
 211 352 l 1
 195 336 l 1
 109 336 l 1
 109 328 109 320 109 312 c 0
 109 304 109 295 109 289 c 1
 195 289 l 1
 211 273 l 1
 211 211 l 1
 195 195 l 1
 116 195 l 1
 129 109 155 78 172 78 c 0
 187 78 215 98 224 145 c 1
 243 156 l 1
 309 139 l 1
 320 121 l 1
 296 10 228 -23 172 -23 c 0
 103 -23 35 26 15 195 c 1
 -23 195 l 1
 -39 211 l 1
 -39 273 l 1
 -23 289 l 1
 8 289 l 1
 8 297 8 304 8 312 c 0
 8 320 8 330 8 336 c 1
 -23 336 l 1
 -39 352 l 1
 -39 414 l 1
 -23 430 l 1
 15 430 l 1
 36 601 103 648 172 648 c 0
EndSplineSet
Validated: 1
EndChar

StartChar: thorn
Encoding: 254 254 172
Width: 375
VWidth: 0
Flags: W
HStem: -23 101<98.2592 211.99> 359 102<95.3172 211.99> 621 20G<-16 78>
VStem: -16 94<-188 -2 97.4282 342.285 441 625> 234 102<99.4772 338.17>
LayerCount: 2
Fore
SplineSet
156 461 m 0
 258 461 336 412 336 219 c 0
 336 26 258 -23 156 -23 c 0
 126 -23 101 -18 78 -2 c 1
 78 -188 l 1
 62 -203 l 1
 0 -203 l 1
 -16 -188 l 1
 -16 625 l 1
 0 641 l 1
 62 641 l 1
 78 625 l 1
 78 441 l 1
 103 457 133 461 156 461 c 0
156 359 m 0
 90 359 78 327 78 250 c 0
 78 188 l 0
 78 119 91 78 156 78 c 0
 234 78 234 137 234 219 c 0
 234 301 234 359 156 359 c 0
EndSplineSet
Validated: 1
EndChar

StartChar: divide
Encoding: 247 247 173
Width: 375
VWidth: 0
Flags: W
HStem: 102 140<105.206 207.318> 258 109<23 289> 383 140<105.206 207.318>
VStem: 86 141<122.375 221.625 403.375 502.625>
CounterMasks: 1 e0
LayerCount: 2
Fore
SplineSet
156 523 m 0
 195 523 227 492 227 453 c 0
 227 414 195 383 156 383 c 0
 117 383 86 414 86 453 c 0
 86 492 117 523 156 523 c 0
23 367 m 1
 289 367 l 1
 305 352 l 1
 305 273 l 1
 289 258 l 1
 23 258 l 1
 8 273 l 1
 8 352 l 1
 23 367 l 1
156 242 m 0
 195 242 227 211 227 172 c 0
 227 133 195 102 156 102 c 0
 117 102 86 133 86 172 c 0
 86 211 117 242 156 242 c 0
EndSplineSet
Validated: 1
EndChar

StartChar: eth
Encoding: 240 240 174
Width: 375
VWidth: 0
Flags: W
HStem: -23 101<107.137 207.025> 328 102<107.137 192.693> 437 91<49.1818 129.656> 628 20G<56.2857 157>
VStem: -23 101<108.783 297.314> 234 102<105.681 298.562>
LayerCount: 2
Fore
SplineSet
156 328 m 0
 94 328 78 266 78 203 c 0
 78 140 94 78 156 78 c 0
 218 78 234 138 234 200 c 0
 234 209 234 218 233 228 c 1
 229 283 212 328 156 328 c 0
62 648 m 1
 148 648 l 1
 157 646 l 1
 185 626 214 603 238 574 c 1
 273 585 305 596 339 608 c 1
 358 598 l 1
 375 537 l 1
 367 520 l 1
 342 507 315 497 290 487 c 1
 317 422 334 335 336 214 c 1
 336 195 l 1
 334 86 291 -23 156 -23 c 0
 18 -23 -23 92 -23 203 c 0
 -23 314 18 430 156 430 c 0
 169 430 183 429 193 427 c 1
 189 439 186 446 182 456 c 1
 142 447 103 442 60 437 c 1
 43 448 l 1
 27 509 l 1
 40 528 l 1
 74 533 106 538 131 544 c 1
 109 575 84 599 54 620 c 1
 62 648 l 1
EndSplineSet
Validated: 1
EndChar

StartChar: multiply
Encoding: 215 215 175
Width: 375
VWidth: 0
Flags: W
HStem: 181 263<79 101 212 233>
VStem: 24 264<235 257 368 390>
LayerCount: 2
Fore
SplineSet
233 444 m 1
 288 390 l 1
 288 368 l 1
 233 312 l 1
 288 257 l 1
 288 235 l 1
 233 181 l 1
 212 181 l 1
 156 235 l 1
 101 181 l 1
 79 181 l 1
 24 235 l 1
 24 257 l 1
 79 312 l 1
 24 368 l 1
 24 390 l 1
 79 444 l 1
 101 444 l 1
 156 390 l 1
 212 444 l 1
 233 444 l 1
EndSplineSet
Validated: 1
EndChar

StartChar: Thorn
Encoding: 222 222 176
Width: 375
VWidth: 0
Flags: W
HStem: -16 21G<-16 78> 170 96<78 218.393> 422 94<78 218.138> 621 20G<-16 78>
VStem: -16 94<0 171 266 422 516 625> 242 94<289.698 397.587>
LayerCount: 2
Fore
SplineSet
0 641 m 1
 62 641 l 1
 78 625 l 1
 78 516 l 1
 125 516 l 0
 195 516 336 499 336 344 c 0
 336 281 315 170 107 170 c 0
 97 170 87 170 78 171 c 1
 78 0 l 1
 62 -16 l 1
 0 -16 l 1
 -16 0 l 1
 -16 625 l 1
 0 641 l 1
98 422 m 2
 78 422 l 1
 78 266 l 1
 101 266 l 0
 185 266 242 272 242 344 c 0
 242 417 183 422 98 422 c 2
EndSplineSet
Validated: 1
EndChar

StartChar: germandbls
Encoding: 223 223 177
Width: 375
VWidth: 0
Flags: W
HStem: -16 94<125 215.761> 547 94<102.901 195.079>
VStem: -16 94<0 519.421> 203 102<434.375 540.25> 234 102<97.6241 193.966>
LayerCount: 2
Fore
SplineSet
156 641 m 0xf0
 269 641 305 543 305 484 c 0xf0
 305 338 212 346 211 329 c 1
 217 315 336 260 336 156 c 0
 336 54 287 -16 125 -16 c 1
 109 0 l 1
 109 62 l 1
 125 78 l 1
 215 78 234 103 234 156 c 0xe8
 234 209 109 241 109 328 c 0
 109 455 203 392 203 484 c 0
 203 502 203 547 156 547 c 0
 105 547 78 512 78 438 c 0
 78 0 l 1
 62 -16 l 1
 0 -16 l 1
 -16 0 l 1
 -16 438 l 0
 -16 535 19 641 156 641 c 0xf0
EndSplineSet
Validated: 1
EndChar

StartChar: ae
Encoding: 230 230 178
Width: 375
VWidth: 0
Flags: W
HStem: -23 101<80.3966 106.708 204.718 230.864> 359 102<81.137 108.19 205.304 232.173>
VStem: -23 101<78.19 169.689> 109 94<78.0009 164 273 358.995> 234 102<267.838 358.849>
LayerCount: 2
Fore
SplineSet
94 461 m 0
 120 461 142 455 158 444 c 1
 175 455 197 461 219 461 c 0
 291 461 336 411 336 312 c 0
 336 186 264 164 219 164 c 0
 203 164 l 1
 203 162 l 0
 203 84 204 78 214 78 c 0
 215 78 217 78 219 78 c 0
 231 78 228 75 231 91 c 1
 255 102 l 1
 317 65 l 1
 324 47 l 1
 309 -2 277 -23 219 -23 c 0
 193 -23 170 -18 154 -7 c 1
 137 -18 116 -23 94 -23 c 0
 22 -23 -23 26 -23 125 c 0
 -23 251 49 273 94 273 c 0
 109 273 l 1
 109 275 l 0
 109 353 109 359 99 359 c 0
 98 359 96 359 94 359 c 0
 82 359 84 363 81 347 c 1
 58 336 l 1
 -5 372 l 1
 -12 391 l 1
 3 440 36 461 94 461 c 0
219 359 m 0
 217 359 203 358 203 312 c 0
 203 273 l 0
 203 268 204 267 204 267 c 1
 205 267 210 266 219 266 c 0
 222 266 224 266 226 266 c 0
 233 266 234 269 234 312 c 0
 234 358 221 359 219 359 c 0
94 172 m 0
 91 172 89 172 87 172 c 0
 80 172 78 168 78 125 c 0
 78 79 92 78 94 78 c 0
 96 78 109 79 109 125 c 0
 109 164 l 0
 109 169 108 171 108 171 c 1
 107 171 103 172 94 172 c 0
EndSplineSet
Validated: 1
EndChar

StartChar: Eth
Encoding: 208 208 179
Width: 375
VWidth: 0
Flags: W
HStem: -16 21G<47 192> 266 93<0 47 141 188> 621 20G<47 192>
VStem: 47 94<78 266 359 547> 234 102<121.891 506.443>
LayerCount: 2
Fore
SplineSet
62 641 m 1
 125 641 l 0
 259 641 336 597 336 312 c 0
 336 27 259 -16 125 -16 c 0
 62 -16 l 1
 47 0 l 1
 47 266 l 1
 0 266 l 1
 -16 281 l 1
 -16 344 l 1
 0 359 l 1
 47 359 l 1
 47 625 l 1
 62 641 l 1
141 547 m 1
 141 359 l 1
 188 359 l 1
 203 344 l 1
 203 281 l 1
 188 266 l 1
 141 266 l 1
 141 78 l 1
 209 82 234 106 234 312 c 0
 234 519 209 543 141 547 c 1
EndSplineSet
Validated: 1
EndChar

StartChar: AE
Encoding: 198 198 180
Width: 375
VWidth: 0
Flags: W
HStem: -16 94<203 312> 172 94<62 109> 297 94<203 312> 547 94<203 312>
VStem: -47 94<0 159.089> 109 219<0 62 312 375> 109 94<78 172 266 297 391 479>
LayerCount: 2
Fore
SplineSet
125 641 m 2xfa
 312 641 l 1
 328 625 l 1
 328 562 l 1xfc
 312 547 l 1
 203 547 l 1
 203 391 l 1xfa
 312 391 l 1
 328 375 l 1
 328 312 l 1xfc
 312 297 l 1
 203 297 l 1
 203 78 l 1xfa
 312 78 l 1
 328 62 l 1
 328 0 l 1
 312 -16 l 1
 125 -16 l 1
 109 0 l 1xfc
 109 172 l 1
 53 172 l 1
 50 121 47 63 47 0 c 1
 31 -16 l 1
 -31 -16 l 1
 -47 0 l 1
 -47 400 40 641 125 641 c 2xfa
109 479 m 1xfa
 92 439 75 371 62 266 c 1
 109 266 l 1
 109 479 l 1xfa
EndSplineSet
Validated: 1
EndChar

StartChar: guillemotright
Encoding: 187 187 181
Width: 375
VWidth: 0
Flags: W
HStem: 169 287
LayerCount: 2
Fore
SplineSet
198 456 m 1
 331 323 l 1
 331 302 l 1
 198 169 l 1
 177 169 l 1
 133 214 l 1
 133 235 l 1
 209 312 l 1
 133 390 l 1
 133 411 l 1
 177 456 l 1
 198 456 l 1
42 456 m 1
 175 323 l 1
 175 302 l 1
 42 169 l 1
 21 169 l 1
 -23 214 l 1
 -23 235 l 1
 53 312 l 1
 -23 390 l 1
 -23 411 l 1
 21 456 l 1
 42 456 l 1
EndSplineSet
Validated: 1
EndChar

StartChar: uni00B9
Encoding: 185 185 182
Width: 375
VWidth: 0
Flags: W
HStem: 234 94<62 109 203 250> 621 20G<111 203>
VStem: 109 94<328 472>
LayerCount: 2
Fore
SplineSet
125 641 m 1
 188 641 l 1
 203 625 l 1
 203 328 l 1
 250 328 l 1
 266 312 l 1
 266 250 l 1
 250 234 l 1
 62 234 l 1
 47 250 l 1
 47 312 l 1
 62 328 l 1
 109 328 l 1
 109 472 l 1
 108 472 109 472 108 472 c 1
 55 503 l 1
 49 524 l 1
 111 633 l 1
 125 641 l 1
EndSplineSet
Validated: 1
EndChar

StartChar: periodcentered
Encoding: 183 183 183
Width: 375
VWidth: 0
Flags: W
HStem: 242 141<106.375 206.125>
VStem: 86 141<262.375 362.125>
LayerCount: 2
Fore
SplineSet
227 312 m 0
 227 273 195 242 156 242 c 0
 117 242 86 273 86 312 c 0
 86 351 117 383 156 383 c 0
 195 383 227 351 227 312 c 0
EndSplineSet
Validated: 1
EndChar

StartChar: paragraph
Encoding: 182 182 184
Width: 375
VWidth: 0
Flags: W
HStem: -16 21G<109 203 234 328> 547 94<203 234 328 375>
VStem: -23 226<315.076 546.548> 109 94<0 238.074> 234 94<0 547>
LayerCount: 2
Fore
SplineSet
125 641 m 2xe8
 375 641 l 1
 391 625 l 1
 391 562 l 1
 375 547 l 1
 328 547 l 1
 328 0 l 1
 312 -16 l 1
 250 -16 l 1
 234 0 l 1
 234 547 l 1
 203 547 l 1
 203 0 l 1
 188 -16 l 1
 125 -16 l 1
 109 0 l 1
 109 235 l 1xd8
 21 243 -23 317 -23 438 c 0
 -23 567 27 641 125 641 c 2xe8
EndSplineSet
Validated: 1
EndChar

StartChar: uni00B5
Encoding: 181 181 185
Width: 375
VWidth: 0
Flags: W
HStem: -23 101<108.767 201.637> -16 21G<234 328>
VStem: -16 94<-195 -7 113.625 312> 234 94<115.97 312>
LayerCount: 2
Fore
SplineSet
0 328 m 1xb0
 62 328 l 1
 78 312 l 1
 78 219 l 0
 78 126 108 78 156 78 c 0xb0
 217 78 234 159 234 219 c 0
 234 312 l 1
 250 328 l 1
 312 328 l 1
 328 312 l 1
 328 0 l 1
 312 -16 l 1
 250 -16 l 1x70
 234 0 l 1
 234 0 166 -23 156 -23 c 0
 130 -23 102 -19 78 -7 c 1
 78 -195 l 1
 62 -211 l 1
 0 -211 l 1
 -16 -195 l 1
 -16 312 l 1
 0 328 l 1xb0
EndSplineSet
Validated: 1
EndChar

StartChar: copyright
Encoding: 169 169 186
Width: 375
VWidth: 0
Flags: W
HStem: 156 102<111.121 248.688> 281 250<123.515 208> 555 101<111.121 248.688>
VStem: -31 101<299.247 513.753> 94 86<366 446> 289 102<299.247 513.753>
LayerCount: 2
Fore
SplineSet
180 656 m 0
 277 656 391 604 391 438 c 0
 391 375 l 0
 391 209 277 156 180 156 c 0
 83 156 -31 209 -31 375 c 0
 -31 438 l 0
 -31 604 83 656 180 656 c 0
180 555 m 0
 118 555 70 516 70 438 c 0
 70 375 l 0
 70 297 118 258 180 258 c 0
 242 258 289 297 289 375 c 0
 289 438 l 0
 289 516 242 555 180 555 c 0
180 531 m 0
 208 531 234 516 250 494 c 1
 245 472 l 1
 196 444 l 1
 180 446 l 1
 180 366 l 1
 196 368 l 1
 245 341 l 1
 250 318 l 1
 234 296 208 281 180 281 c 0
 132 281 94 319 94 367 c 0
 94 445 l 0
 94 493 132 531 180 531 c 0
EndSplineSet
Validated: 1
EndChar

StartChar: guillemotleft
Encoding: 171 171 187
Width: 375
VWidth: 0
Flags: W
HStem: 169 287
LayerCount: 2
Fore
SplineSet
136 456 m 1
 180 411 l 1
 180 390 l 1
 104 312 l 1
 180 235 l 1
 180 214 l 1
 136 169 l 1
 114 169 l 1
 -19 302 l 1
 -19 323 l 1
 114 456 l 1
 136 456 l 1
292 456 m 1
 336 411 l 1
 336 390 l 1
 260 312 l 1
 336 235 l 1
 336 214 l 1
 292 169 l 1
 271 169 l 1
 138 302 l 1
 138 323 l 1
 271 456 l 1
 292 456 l 1
EndSplineSet
Validated: 1
EndChar

StartChar: registered
Encoding: 174 174 188
Width: 375
VWidth: 0
Flags: W
HStem: 156 102<111.121 249.261> 555 101<111.121 248.688>
VStem: -31 101<299.247 513.753> 94 172<398.612 501.485> 94 86<297 347> 188 85<308 345.675> 289 102<311.506 513.753>
LayerCount: 2
Fore
SplineSet
109 531 m 1xee
 180 531 l 2xee
 228 531 266 493 266 445 c 0xf2
 266 427 260 411 251 398 c 1
 267 377 272 345 273 308 c 1
 283 326 289 348 289 375 c 2
 289 438 l 2
 289 516 242 555 180 555 c 0
 118 555 70 516 70 438 c 2
 70 375 l 2
 70 297 118 258 180 258 c 0
 208 258 232 265 251 281 c 1
 203 281 l 1
 188 297 l 1
 188 321 184 338 180 347 c 1
 180 297 l 1
 164 281 l 1
 109 281 l 1
 94 297 l 1
 94 516 l 1
 109 531 l 1xee
180 656 m 0
 277 656 391 604 391 438 c 2
 391 375 l 2
 391 209 277 156 180 156 c 0
 83 156 -31 209 -31 375 c 2
 -31 438 l 2
 -31 604 83 656 180 656 c 0
EndSplineSet
Validated: 1
EndChar

StartChar: uni2070
Encoding: 259 8304 189
Width: 375
VWidth: 0
Flags: W
HStem: 227 93<139.137 173.125> 555 93<138.951 173.323>
VStem: 39 94<322.079 553.316> 180 93<322.137 553.263>
LayerCount: 2
Fore
SplineSet
156 648 m 0
 231 648 273 595 273 438 c 0
 273 281 231 227 156 227 c 0
 81 227 39 281 39 438 c 0
 39 595 81 648 156 648 c 0
156 555 m 0
 143 555 133 545 133 438 c 0
 133 331 143 320 156 320 c 0
 169 320 180 331 180 438 c 0
 180 545 169 555 156 555 c 0
EndSplineSet
Validated: 1
EndChar

StartChar: uni2074
Encoding: 260 8308 190
Width: 375
VWidth: 0
Flags: W
HStem: 621 20G<175 266>
VStem: 172 94<250 359 453 461>
LayerCount: 2
Fore
SplineSet
188 641 m 1
 250 641 l 1
 266 625 l 1
 266 453 l 1
 289 453 l 1
 305 438 l 1
 305 375 l 1
 289 359 l 1
 266 359 l 1
 266 250 l 1
 250 234 l 1
 188 234 l 1
 172 250 l 1
 172 359 l 1
 62 359 l 1
 47 375 l 1
 47 438 l 1
 50 446 l 1
 175 634 l 1
 188 641 l 1
172 461 m 1
 167 453 l 1
 172 453 l 1
 172 461 l 1
EndSplineSet
Validated: 1
EndChar

StartChar: uni2075
Encoding: 261 8309 191
Width: 375
VWidth: 0
Flags: W
HStem: 227 101<116.943 169.215> 547 94<141 250>
VStem: 172 101<328.031 421.689>
LayerCount: 2
Fore
SplineSet
62 641 m 1
 250 641 l 1
 266 625 l 1
 266 562 l 1
 250 547 l 1
 141 547 l 1
 141 516 l 1
 156 516 l 0
 247 516 273 440 273 375 c 0
 273 311 248 227 156 227 c 0
 94 227 61 267 48 313 c 1
 59 332 l 1
 126 350 l 1
 145 340 l 1
 148 331 151 328 156 328 c 0
 168 328 172 353 172 375 c 0
 172 397 168 422 156 422 c 0
 62 422 l 1
 47 438 l 1
 47 625 l 1
 62 641 l 1
EndSplineSet
Validated: 1
EndChar

StartChar: uni2076
Encoding: 262 8310 192
Width: 375
VWidth: 0
Flags: W
HStem: 227 93<136.209 176.362> 430 93<135.707 176.362> 555 93<136.441 177.954>
VStem: 39 94<323.482 429.959 522 553.374> 180 93<320.86 429.14 554.125 554.992>
LayerCount: 2
Fore
SplineSet
156 320 m 0
 172 320 180 334 180 375 c 0
 180 416 172 430 156 430 c 0
 140 430 133 416 133 375 c 0
 133 334 140 320 156 320 c 0
156 227 m 0
 70 227 40 275 39 367 c 1
 39 500 l 0
 39 597 68 648 156 648 c 0
 221 648 258 621 269 562 c 1
 257 544 l 1
 197 528 l 1
 178 541 l 1
 177 554 178 555 156 555 c 0
 153 555 151 555 149 555 c 0
 131 555 134 552 133 522 c 1
 142 523 148 523 156 523 c 0
 244 523 273 472 273 375 c 0
 273 278 244 227 156 227 c 0
EndSplineSet
Validated: 1
EndChar

StartChar: uni2077
Encoding: 263 8311 193
Width: 375
VWidth: 0
Flags: W
HStem: 547 94<62 167>
VStem: 47 219<562 625>
LayerCount: 2
Fore
SplineSet
62 641 m 1
 250 641 l 1
 266 625 l 1
 266 562 l 1
 266 560 l 1
 204 278 l 1
 188 266 l 1
 125 266 l 1
 109 284 l 1
 167 547 l 1
 62 547 l 1
 47 562 l 1
 47 625 l 1
 62 641 l 1
EndSplineSet
Validated: 1
EndChar

StartChar: uni2078
Encoding: 264 8312 194
Width: 375
VWidth: 0
Flags: W
HStem: 628 20G<121 191>
VStem: 39 102<328.468 421.132 516.204 546.984> 172 101<328.349 421.584 516.624 546.984>
LayerCount: 2
Fore
SplineSet
156 648 m 0
 226 648 273 601 273 531 c 0
 273 501 269 475 253 456 c 1
 267 435 273 416 273 375 c 0
 273 295 246 227 156 227 c 0
 66 227 39 295 39 375 c 0
 39 417 47 436 60 456 c 1
 43 477 39 502 39 531 c 0
 39 601 86 648 156 648 c 0
156 547 m 0
 149 547 141 538 141 531 c 0
 141 524 149 516 156 516 c 0
 163 516 172 524 172 531 c 0
 172 538 163 547 156 547 c 0
156 422 m 0
 155 422 154 422 153 422 c 0
 148 422 141 418 141 375 c 0
 141 329 146 328 155 328 c 0
 156 328 l 0
 157 328 l 0
 166 328 172 329 172 375 c 0
 172 418 164 422 159 422 c 0
 158 422 157 422 156 422 c 0
EndSplineSet
Validated: 1
EndChar

StartChar: uni2079
Encoding: 265 8313 195
Width: 375
VWidth: 0
Flags: W
HStem: 227 93<135.045 179.219> 352 93<136.002 177.139> 555 93<136.002 176.154>
VStem: 39 94<320.001 320.412 445.834 554.166> 180 93<321.626 353 445.094 551.518>
LayerCount: 2
Fore
SplineSet
156 555 m 0
 140 555 133 541 133 500 c 0
 133 459 140 445 156 445 c 0
 172 445 180 459 180 500 c 0
 180 541 172 555 156 555 c 0
156 648 m 0
 242 648 272 600 273 508 c 1
 273 375 l 0
 273 278 244 227 156 227 c 0
 91 227 55 254 44 313 c 1
 56 331 l 1
 115 347 l 1
 135 334 l 1
 136 321 134 320 156 320 c 0
 159 320 161 320 163 320 c 0
 181 320 179 323 180 353 c 1
 171 352 164 352 156 352 c 0
 68 352 39 403 39 500 c 0
 39 597 68 648 156 648 c 0
EndSplineSet
Validated: 1
EndChar

StartChar: uni2080
Encoding: 266 8320 196
Width: 375
VWidth: 0
Flags: W
HStem: -23 93<139.137 173.125> 305 93<138.951 173.323>
VStem: 39 94<72.0791 303.316> 180 93<72.1365 303.263>
LayerCount: 2
Fore
SplineSet
156 398 m 0
 231 398 273 345 273 188 c 0
 273 31 231 -23 156 -23 c 0
 81 -23 39 31 39 188 c 0
 39 345 81 398 156 398 c 0
156 305 m 0
 143 305 133 295 133 188 c 0
 133 81 143 70 156 70 c 0
 169 70 180 81 180 188 c 0
 180 295 169 305 156 305 c 0
EndSplineSet
Validated: 1
EndChar

StartChar: uni2081
Encoding: 267 8321 197
Width: 375
VWidth: 0
Flags: W
HStem: -23 93<62 109 203 250>
VStem: 109 94<70 214>
LayerCount: 2
Fore
SplineSet
125 383 m 1
 188 383 l 1
 203 367 l 1
 203 70 l 1
 250 70 l 1
 266 55 l 1
 266 -8 l 1
 250 -23 l 1
 62 -23 l 1
 47 -8 l 1
 47 55 l 1
 62 70 l 1
 109 70 l 1
 109 214 l 1
 108 214 109 214 108 214 c 1
 55 245 l 1
 49 267 l 1
 111 375 l 1
 125 383 l 1
EndSplineSet
Validated: 1
EndChar

StartChar: uni2082
Encoding: 268 8322 198
Width: 375
VWidth: 0
Flags: W
HStem: -16 94<149 250>
VStem: 39 102<250 296.621> 172 101<225.528 296.81>
LayerCount: 2
Fore
SplineSet
156 398 m 0
 228 398 273 349 273 250 c 0
 273 118 158 157 149 78 c 1
 250 78 l 1
 266 62 l 1
 266 0 l 1
 250 -16 l 1
 62 -16 l 1
 47 0 l 1
 47 62 l 0
 47 229 172 205 172 250 c 0
 172 296 158 297 156 297 c 0
 154 297 141 296 141 250 c 1
 125 234 l 1
 55 234 l 1
 39 250 l 1
 39 349 84 398 156 398 c 0
EndSplineSet
Validated: 1
EndChar

StartChar: uni2083
Encoding: 269 8323 199
Width: 375
VWidth: 0
Flags: W
HStem: -23 21G<124.5 201> 172 94<133 170.658> 297 101<112.665 171.984>
VStem: 172 101<78.2702 171.909 266.624 296.984>
LayerCount: 2
Fore
SplineSet
156 398 m 0
 226 398 273 351 273 281 c 0
 273 251 269 225 253 206 c 1
 267 185 273 166 273 125 c 0
 273 45 246 -23 156 -23 c 0
 93 -23 57 11 45 63 c 1
 57 82 l 1
 125 100 l 1
 145 89 l 1
 148 78 147 78 156 78 c 0
 157 78 l 0
 166 78 172 79 172 125 c 0
 172 168 164 172 159 172 c 0
 158 172 157 172 156 172 c 0
 133 172 l 1
 117 188 l 1
 117 250 l 1
 133 266 l 1
 156 266 l 0
 163 266 172 274 172 281 c 0
 172 288 163 297 156 297 c 0
 151 297 144 291 142 285 c 1
 123 275 l 1
 54 294 l 1
 42 312 l 1
 54 367 97 398 156 398 c 0
EndSplineSet
Validated: 1
EndChar

StartChar: uni2084
Encoding: 270 8324 200
Width: 375
VWidth: 0
Flags: W
HStem: -16 21G<172 266>
VStem: 172 94<0 109 203 211>
LayerCount: 2
Fore
SplineSet
188 391 m 1
 250 391 l 1
 266 375 l 1
 266 203 l 1
 289 203 l 1
 305 188 l 1
 305 125 l 1
 289 109 l 1
 266 109 l 1
 266 0 l 1
 250 -16 l 1
 188 -16 l 1
 172 0 l 1
 172 109 l 1
 62 109 l 1
 47 125 l 1
 47 188 l 1
 50 196 l 1
 175 384 l 1
 188 391 l 1
172 211 m 1
 167 203 l 1
 172 203 l 1
 172 211 l 1
EndSplineSet
Validated: 1
EndChar

StartChar: uni2085
Encoding: 271 8325 201
Width: 375
VWidth: 0
Flags: W
HStem: -23 101<116.943 169.215> 297 94<141 250>
VStem: 172 101<78.0306 171.689>
LayerCount: 2
Fore
SplineSet
62 391 m 1
 250 391 l 1
 266 375 l 1
 266 312 l 1
 250 297 l 1
 141 297 l 1
 141 266 l 1
 156 266 l 0
 247 266 273 190 273 125 c 0
 273 61 248 -23 156 -23 c 0
 94 -23 61 17 48 63 c 1
 59 82 l 1
 126 100 l 1
 145 90 l 1
 148 81 151 78 156 78 c 0
 168 78 172 103 172 125 c 0
 172 147 168 172 156 172 c 0
 62 172 l 1
 47 188 l 1
 47 375 l 1
 62 391 l 1
EndSplineSet
Validated: 1
EndChar

StartChar: uni2086
Encoding: 272 8326 202
Width: 375
VWidth: 0
Flags: W
HStem: -23 93<136.209 176.362> 180 93<135.707 176.362> 305 93<136.441 177.954>
VStem: 39 94<73.4822 179.959 272 303.374> 180 93<70.86 179.14 304.125 304.992>
LayerCount: 2
Fore
SplineSet
156 70 m 0
 172 70 180 84 180 125 c 0
 180 166 172 180 156 180 c 0
 140 180 133 166 133 125 c 0
 133 84 140 70 156 70 c 0
156 -23 m 0
 70 -23 40 25 39 117 c 1
 39 250 l 0
 39 347 68 398 156 398 c 0
 221 398 258 371 269 312 c 1
 257 294 l 1
 197 278 l 1
 178 291 l 1
 177 304 178 305 156 305 c 0
 153 305 151 305 149 305 c 0
 131 305 134 302 133 272 c 1
 142 273 148 273 156 273 c 0
 244 273 273 222 273 125 c 0
 273 28 244 -23 156 -23 c 0
EndSplineSet
Validated: 1
EndChar

StartChar: uni2087
Encoding: 273 8327 203
Width: 375
VWidth: 0
Flags: W
HStem: -16 21G<109 204> 266 93<62 167>
VStem: 47 219<281 344>
LayerCount: 2
Fore
SplineSet
62 359 m 1
 250 359 l 1
 266 344 l 1
 266 281 l 1
 266 278 l 1
 204 -3 l 1
 188 -16 l 1
 125 -16 l 1
 109 3 l 1
 167 266 l 1
 62 266 l 1
 47 281 l 1
 47 344 l 1
 62 359 l 1
EndSplineSet
Validated: 1
EndChar

StartChar: uni2088
Encoding: 274 8328 204
Width: 375
VWidth: 0
Flags: W
HStem: -23 21G<111 201>
VStem: 39 102<78.468 171.132 266.204 296.984> 172 101<78.3486 171.584 266.624 296.984>
LayerCount: 2
Fore
SplineSet
156 398 m 0
 226 398 273 351 273 281 c 0
 273 251 269 225 253 206 c 1
 267 185 273 166 273 125 c 0
 273 45 246 -23 156 -23 c 0
 66 -23 39 45 39 125 c 0
 39 167 47 186 60 206 c 1
 43 227 39 252 39 281 c 0
 39 351 86 398 156 398 c 0
156 297 m 0
 149 297 141 288 141 281 c 0
 141 274 149 266 156 266 c 0
 163 266 172 274 172 281 c 0
 172 288 163 297 156 297 c 0
156 172 m 0
 155 172 154 172 153 172 c 0
 148 172 141 168 141 125 c 0
 141 79 146 78 155 78 c 0
 156 78 l 0
 157 78 l 0
 166 78 172 79 172 125 c 0
 172 168 164 172 159 172 c 0
 158 172 157 172 156 172 c 0
EndSplineSet
Validated: 1
EndChar

StartChar: uni2089
Encoding: 275 8329 205
Width: 375
VWidth: 0
Flags: W
HStem: -23 93<135.045 179.219> 102 93<136.002 177.139> 305 93<136.002 176.154>
VStem: 39 94<70.0008 70.4118 195.834 304.166> 180 93<71.6264 103 195.094 301.518>
LayerCount: 2
Fore
SplineSet
156 305 m 0
 140 305 133 291 133 250 c 0
 133 209 140 195 156 195 c 0
 172 195 180 209 180 250 c 0
 180 291 172 305 156 305 c 0
156 398 m 0
 242 398 272 350 273 258 c 1
 273 125 l 0
 273 28 244 -23 156 -23 c 0
 91 -23 55 4 44 63 c 1
 56 81 l 1
 115 97 l 1
 135 84 l 1
 136 71 134 70 156 70 c 0
 159 70 161 70 163 70 c 0
 181 70 179 73 180 103 c 1
 171 102 164 102 156 102 c 0
 68 102 39 153 39 250 c 0
 39 347 68 398 156 398 c 0
EndSplineSet
Validated: 1
EndChar

StartChar: uni00B2
Encoding: 178 178 206
Width: 375
VWidth: 0
Flags: W
HStem: 234 94<149 250> 628 20G<120 192>
VStem: 39 102<500 546.621> 172 101<475.528 546.81>
LayerCount: 2
Fore
SplineSet
156 648 m 0
 228 648 273 599 273 500 c 0
 273 368 158 407 149 328 c 1
 250 328 l 1
 266 312 l 1
 266 250 l 1
 250 234 l 1
 62 234 l 1
 47 250 l 1
 47 312 l 0
 47 479 172 455 172 500 c 0
 172 546 158 547 156 547 c 0
 154 547 141 546 141 500 c 1
 125 484 l 1
 55 484 l 1
 39 500 l 1
 39 599 84 648 156 648 c 0
EndSplineSet
Validated: 1
EndChar

StartChar: uni00B3
Encoding: 179 179 207
Width: 375
VWidth: 0
Flags: W
HStem: 422 94<133 170.658> 547 101<112.665 171.984>
VStem: 172 101<328.246 421.909 516.655 546.984>
LayerCount: 2
Fore
SplineSet
156 648 m 0
 226 648 273 601 273 531 c 0
 273 501 268 476 253 456 c 1
 266 435 273 416 273 375 c 0
 273 295 246 227 156 227 c 0
 93 227 58 261 45 313 c 1
 57 332 l 1
 125 351 l 1
 144 339 l 1
 147 328 147 328 156 328 c 0
 157 328 l 0
 166 328 172 329 172 375 c 0
 172 418 164 422 159 422 c 0
 158 422 157 422 156 422 c 0
 133 422 l 1
 117 438 l 1
 117 500 l 1
 133 516 l 1
 156 516 l 0
 163 516 172 524 172 531 c 0
 172 538 163 547 156 547 c 0
 151 547 144 542 142 535 c 1
 123 525 l 1
 54 544 l 1
 42 562 l 1
 54 616 97 648 156 648 c 0
EndSplineSet
Validated: 1
EndChar
